<mxfile host="app.diagrams.net" modified="2024-01-22T07:38:59.861Z" agent="Mozilla/5.0 (Windows NT 10.0; Win64; x64) AppleWebKit/537.36 (KHTML, like Gecko) Chrome/118.0.0.0 YaBrowser/23.11.0.0 Safari/537.36" etag="8Vb14J1m2noXlKP0aUWa" version="22.1.21" type="device">
  <diagram name="Страница — 1" id="k-SoK8l7nn-8HU1liceL">
    <mxGraphModel dx="998" dy="559" grid="1" gridSize="10" guides="1" tooltips="1" connect="1" arrows="1" fold="1" page="1" pageScale="1" pageWidth="50000" pageHeight="35000" math="0" shadow="0">
      <root>
        <mxCell id="0" />
        <mxCell id="1" parent="0" />
        <mxCell id="qXZDPsuC2iJt4Pbkiq8Y-3" value="" style="endArrow=classic;html=1;rounded=0;" edge="1" parent="1">
          <mxGeometry width="50" height="50" relative="1" as="geometry">
            <mxPoint x="80" y="320" as="sourcePoint" />
            <mxPoint x="80" y="80" as="targetPoint" />
          </mxGeometry>
        </mxCell>
        <mxCell id="qXZDPsuC2iJt4Pbkiq8Y-4" value="" style="endArrow=classic;html=1;rounded=0;" edge="1" parent="1">
          <mxGeometry width="50" height="50" relative="1" as="geometry">
            <mxPoint x="80" y="320" as="sourcePoint" />
            <mxPoint x="440" y="320" as="targetPoint" />
          </mxGeometry>
        </mxCell>
        <mxCell id="qXZDPsuC2iJt4Pbkiq8Y-6" value="" style="endArrow=none;html=1;rounded=0;entryX=1;entryY=0.5;entryDx=0;entryDy=0;" edge="1" parent="1" target="qXZDPsuC2iJt4Pbkiq8Y-17">
          <mxGeometry width="50" height="50" relative="1" as="geometry">
            <mxPoint x="240" y="320" as="sourcePoint" />
            <mxPoint x="160" y="80" as="targetPoint" />
          </mxGeometry>
        </mxCell>
        <mxCell id="qXZDPsuC2iJt4Pbkiq8Y-7" value="" style="endArrow=none;html=1;rounded=0;" edge="1" parent="1">
          <mxGeometry width="50" height="50" relative="1" as="geometry">
            <mxPoint x="80" y="320" as="sourcePoint" />
            <mxPoint x="240" y="80" as="targetPoint" />
          </mxGeometry>
        </mxCell>
        <mxCell id="qXZDPsuC2iJt4Pbkiq8Y-8" value="" style="endArrow=none;html=1;rounded=0;" edge="1" parent="1">
          <mxGeometry width="50" height="50" relative="1" as="geometry">
            <mxPoint x="400" y="320" as="sourcePoint" />
            <mxPoint x="240" y="80" as="targetPoint" />
          </mxGeometry>
        </mxCell>
        <mxCell id="qXZDPsuC2iJt4Pbkiq8Y-9" value="" style="endArrow=none;html=1;rounded=0;" edge="1" parent="1">
          <mxGeometry width="50" height="50" relative="1" as="geometry">
            <mxPoint x="240" y="320" as="sourcePoint" />
            <mxPoint x="400" y="80" as="targetPoint" />
          </mxGeometry>
        </mxCell>
        <mxCell id="qXZDPsuC2iJt4Pbkiq8Y-11" value="0" style="text;html=1;strokeColor=none;fillColor=none;align=center;verticalAlign=middle;whiteSpace=wrap;rounded=0;" vertex="1" parent="1">
          <mxGeometry x="20" y="340" width="60" height="30" as="geometry" />
        </mxCell>
        <mxCell id="qXZDPsuC2iJt4Pbkiq8Y-12" value="15" style="text;html=1;strokeColor=none;fillColor=none;align=center;verticalAlign=middle;whiteSpace=wrap;rounded=0;" vertex="1" parent="1">
          <mxGeometry x="210" y="340" width="60" height="30" as="geometry" />
        </mxCell>
        <mxCell id="qXZDPsuC2iJt4Pbkiq8Y-13" value="30" style="text;html=1;strokeColor=none;fillColor=none;align=center;verticalAlign=middle;whiteSpace=wrap;rounded=0;" vertex="1" parent="1">
          <mxGeometry x="370" y="340" width="60" height="30" as="geometry" />
        </mxCell>
        <mxCell id="qXZDPsuC2iJt4Pbkiq8Y-14" value="" style="endArrow=none;dashed=1;html=1;rounded=0;" edge="1" parent="1">
          <mxGeometry width="50" height="50" relative="1" as="geometry">
            <mxPoint x="80" y="80" as="sourcePoint" />
            <mxPoint x="440" y="80" as="targetPoint" />
          </mxGeometry>
        </mxCell>
        <mxCell id="qXZDPsuC2iJt4Pbkiq8Y-15" value="Ux" style="text;html=1;strokeColor=none;fillColor=none;align=center;verticalAlign=middle;whiteSpace=wrap;rounded=0;rotation=0;" vertex="1" parent="1">
          <mxGeometry x="10" y="110" width="60" height="30" as="geometry" />
        </mxCell>
        <mxCell id="qXZDPsuC2iJt4Pbkiq8Y-16" value="x" style="text;html=1;strokeColor=none;fillColor=none;align=center;verticalAlign=middle;whiteSpace=wrap;rounded=0;" vertex="1" parent="1">
          <mxGeometry x="420" y="340" width="60" height="30" as="geometry" />
        </mxCell>
        <mxCell id="qXZDPsuC2iJt4Pbkiq8Y-17" value="1" style="text;html=1;strokeColor=none;fillColor=none;align=center;verticalAlign=middle;whiteSpace=wrap;rounded=0;" vertex="1" parent="1">
          <mxGeometry x="20" y="70" width="60" height="30" as="geometry" />
        </mxCell>
        <mxCell id="qXZDPsuC2iJt4Pbkiq8Y-18" value="" style="endArrow=none;dashed=1;html=1;rounded=0;" edge="1" parent="1">
          <mxGeometry width="50" height="50" relative="1" as="geometry">
            <mxPoint x="440" y="200" as="sourcePoint" />
            <mxPoint x="80" y="200" as="targetPoint" />
          </mxGeometry>
        </mxCell>
        <mxCell id="qXZDPsuC2iJt4Pbkiq8Y-19" value="0.5" style="text;html=1;strokeColor=none;fillColor=none;align=center;verticalAlign=middle;whiteSpace=wrap;rounded=0;" vertex="1" parent="1">
          <mxGeometry x="20" y="180" width="60" height="30" as="geometry" />
        </mxCell>
        <mxCell id="qXZDPsuC2iJt4Pbkiq8Y-20" value="Мало" style="text;html=1;strokeColor=none;fillColor=none;align=center;verticalAlign=middle;whiteSpace=wrap;rounded=0;" vertex="1" parent="1">
          <mxGeometry x="60" y="40" width="60" height="30" as="geometry" />
        </mxCell>
        <mxCell id="qXZDPsuC2iJt4Pbkiq8Y-21" value="Средне" style="text;html=1;strokeColor=none;fillColor=none;align=center;verticalAlign=middle;whiteSpace=wrap;rounded=0;" vertex="1" parent="1">
          <mxGeometry x="210" y="40" width="60" height="30" as="geometry" />
        </mxCell>
        <mxCell id="qXZDPsuC2iJt4Pbkiq8Y-22" value="Много" style="text;html=1;strokeColor=none;fillColor=none;align=center;verticalAlign=middle;whiteSpace=wrap;rounded=0;" vertex="1" parent="1">
          <mxGeometry x="380" y="40" width="60" height="30" as="geometry" />
        </mxCell>
        <mxCell id="qXZDPsuC2iJt4Pbkiq8Y-23" value="Параметр количество слов" style="text;html=1;strokeColor=none;fillColor=none;align=center;verticalAlign=middle;whiteSpace=wrap;rounded=0;" vertex="1" parent="1">
          <mxGeometry x="135" width="210" height="30" as="geometry" />
        </mxCell>
        <mxCell id="qXZDPsuC2iJt4Pbkiq8Y-32" value="0" style="text;html=1;strokeColor=none;fillColor=none;align=center;verticalAlign=middle;whiteSpace=wrap;rounded=0;" vertex="1" parent="1">
          <mxGeometry x="40" y="750" width="60" height="30" as="geometry" />
        </mxCell>
        <mxCell id="qXZDPsuC2iJt4Pbkiq8Y-33" value="777 600" style="text;html=1;strokeColor=none;fillColor=none;align=center;verticalAlign=middle;whiteSpace=wrap;rounded=0;" vertex="1" parent="1">
          <mxGeometry x="230" y="750" width="60" height="30" as="geometry" />
        </mxCell>
        <mxCell id="qXZDPsuC2iJt4Pbkiq8Y-34" value="2 457 600" style="text;html=1;strokeColor=none;fillColor=none;align=center;verticalAlign=middle;whiteSpace=wrap;rounded=0;" vertex="1" parent="1">
          <mxGeometry x="390" y="750" width="60" height="30" as="geometry" />
        </mxCell>
        <mxCell id="qXZDPsuC2iJt4Pbkiq8Y-36" value="Ux" style="text;html=1;strokeColor=none;fillColor=none;align=center;verticalAlign=middle;whiteSpace=wrap;rounded=0;rotation=0;" vertex="1" parent="1">
          <mxGeometry x="30" y="520" width="60" height="30" as="geometry" />
        </mxCell>
        <mxCell id="qXZDPsuC2iJt4Pbkiq8Y-37" value="x" style="text;html=1;strokeColor=none;fillColor=none;align=center;verticalAlign=middle;whiteSpace=wrap;rounded=0;" vertex="1" parent="1">
          <mxGeometry x="440" y="750" width="60" height="30" as="geometry" />
        </mxCell>
        <mxCell id="qXZDPsuC2iJt4Pbkiq8Y-38" value="1" style="text;html=1;strokeColor=none;fillColor=none;align=center;verticalAlign=middle;whiteSpace=wrap;rounded=0;" vertex="1" parent="1">
          <mxGeometry x="40" y="480" width="60" height="30" as="geometry" />
        </mxCell>
        <mxCell id="qXZDPsuC2iJt4Pbkiq8Y-40" value="0.5" style="text;html=1;strokeColor=none;fillColor=none;align=center;verticalAlign=middle;whiteSpace=wrap;rounded=0;" vertex="1" parent="1">
          <mxGeometry x="40" y="590" width="60" height="30" as="geometry" />
        </mxCell>
        <mxCell id="qXZDPsuC2iJt4Pbkiq8Y-41" value="Низкое" style="text;html=1;strokeColor=none;fillColor=none;align=center;verticalAlign=middle;whiteSpace=wrap;rounded=0;" vertex="1" parent="1">
          <mxGeometry x="90" y="440" width="60" height="30" as="geometry" />
        </mxCell>
        <mxCell id="qXZDPsuC2iJt4Pbkiq8Y-42" value="Среднее" style="text;html=1;strokeColor=none;fillColor=none;align=center;verticalAlign=middle;whiteSpace=wrap;rounded=0;" vertex="1" parent="1">
          <mxGeometry x="230" y="440" width="60" height="30" as="geometry" />
        </mxCell>
        <mxCell id="qXZDPsuC2iJt4Pbkiq8Y-43" value="Высокое" style="text;html=1;strokeColor=none;fillColor=none;align=center;verticalAlign=middle;whiteSpace=wrap;rounded=0;" vertex="1" parent="1">
          <mxGeometry x="410" y="440" width="60" height="30" as="geometry" />
        </mxCell>
        <mxCell id="qXZDPsuC2iJt4Pbkiq8Y-44" value="" style="endArrow=classic;html=1;rounded=0;" edge="1" parent="1">
          <mxGeometry width="50" height="50" relative="1" as="geometry">
            <mxPoint x="110" y="724.5" as="sourcePoint" />
            <mxPoint x="110" y="484.5" as="targetPoint" />
          </mxGeometry>
        </mxCell>
        <mxCell id="qXZDPsuC2iJt4Pbkiq8Y-45" value="" style="endArrow=classic;html=1;rounded=0;" edge="1" parent="1">
          <mxGeometry width="50" height="50" relative="1" as="geometry">
            <mxPoint x="110" y="724.5" as="sourcePoint" />
            <mxPoint x="470" y="724.5" as="targetPoint" />
          </mxGeometry>
        </mxCell>
        <mxCell id="qXZDPsuC2iJt4Pbkiq8Y-46" value="" style="endArrow=none;html=1;rounded=0;entryX=1;entryY=0.5;entryDx=0;entryDy=0;" edge="1" parent="1">
          <mxGeometry width="50" height="50" relative="1" as="geometry">
            <mxPoint x="270" y="724.5" as="sourcePoint" />
            <mxPoint x="110" y="489.5" as="targetPoint" />
          </mxGeometry>
        </mxCell>
        <mxCell id="qXZDPsuC2iJt4Pbkiq8Y-47" value="" style="endArrow=none;html=1;rounded=0;" edge="1" parent="1">
          <mxGeometry width="50" height="50" relative="1" as="geometry">
            <mxPoint x="110" y="724.5" as="sourcePoint" />
            <mxPoint x="270" y="484.5" as="targetPoint" />
          </mxGeometry>
        </mxCell>
        <mxCell id="qXZDPsuC2iJt4Pbkiq8Y-48" value="" style="endArrow=none;html=1;rounded=0;" edge="1" parent="1">
          <mxGeometry width="50" height="50" relative="1" as="geometry">
            <mxPoint x="430" y="724.5" as="sourcePoint" />
            <mxPoint x="270" y="484.5" as="targetPoint" />
          </mxGeometry>
        </mxCell>
        <mxCell id="qXZDPsuC2iJt4Pbkiq8Y-49" value="" style="endArrow=none;html=1;rounded=0;" edge="1" parent="1">
          <mxGeometry width="50" height="50" relative="1" as="geometry">
            <mxPoint x="270" y="724.5" as="sourcePoint" />
            <mxPoint x="430" y="484.5" as="targetPoint" />
          </mxGeometry>
        </mxCell>
        <mxCell id="qXZDPsuC2iJt4Pbkiq8Y-50" value="" style="endArrow=none;dashed=1;html=1;rounded=0;" edge="1" parent="1">
          <mxGeometry width="50" height="50" relative="1" as="geometry">
            <mxPoint x="110" y="484.5" as="sourcePoint" />
            <mxPoint x="470" y="484.5" as="targetPoint" />
          </mxGeometry>
        </mxCell>
        <mxCell id="qXZDPsuC2iJt4Pbkiq8Y-51" value="" style="endArrow=none;dashed=1;html=1;rounded=0;" edge="1" parent="1">
          <mxGeometry width="50" height="50" relative="1" as="geometry">
            <mxPoint x="470" y="604.5" as="sourcePoint" />
            <mxPoint x="110" y="604.5" as="targetPoint" />
          </mxGeometry>
        </mxCell>
        <mxCell id="qXZDPsuC2iJt4Pbkiq8Y-52" value="0" style="text;html=1;strokeColor=none;fillColor=none;align=center;verticalAlign=middle;whiteSpace=wrap;rounded=0;" vertex="1" parent="1">
          <mxGeometry x="50" y="1180" width="60" height="30" as="geometry" />
        </mxCell>
        <mxCell id="qXZDPsuC2iJt4Pbkiq8Y-53" value="0.5" style="text;html=1;strokeColor=none;fillColor=none;align=center;verticalAlign=middle;whiteSpace=wrap;rounded=0;" vertex="1" parent="1">
          <mxGeometry x="240" y="1180" width="60" height="30" as="geometry" />
        </mxCell>
        <mxCell id="qXZDPsuC2iJt4Pbkiq8Y-54" value="1" style="text;html=1;strokeColor=none;fillColor=none;align=center;verticalAlign=middle;whiteSpace=wrap;rounded=0;" vertex="1" parent="1">
          <mxGeometry x="400" y="1180" width="60" height="30" as="geometry" />
        </mxCell>
        <mxCell id="qXZDPsuC2iJt4Pbkiq8Y-55" value="Ux" style="text;html=1;strokeColor=none;fillColor=none;align=center;verticalAlign=middle;whiteSpace=wrap;rounded=0;rotation=0;" vertex="1" parent="1">
          <mxGeometry x="40" y="950" width="60" height="30" as="geometry" />
        </mxCell>
        <mxCell id="qXZDPsuC2iJt4Pbkiq8Y-56" value="x" style="text;html=1;strokeColor=none;fillColor=none;align=center;verticalAlign=middle;whiteSpace=wrap;rounded=0;" vertex="1" parent="1">
          <mxGeometry x="450" y="1180" width="60" height="30" as="geometry" />
        </mxCell>
        <mxCell id="qXZDPsuC2iJt4Pbkiq8Y-57" value="1" style="text;html=1;strokeColor=none;fillColor=none;align=center;verticalAlign=middle;whiteSpace=wrap;rounded=0;" vertex="1" parent="1">
          <mxGeometry x="50" y="910" width="60" height="30" as="geometry" />
        </mxCell>
        <mxCell id="qXZDPsuC2iJt4Pbkiq8Y-58" value="0.5" style="text;html=1;strokeColor=none;fillColor=none;align=center;verticalAlign=middle;whiteSpace=wrap;rounded=0;" vertex="1" parent="1">
          <mxGeometry x="50" y="1020" width="60" height="30" as="geometry" />
        </mxCell>
        <mxCell id="qXZDPsuC2iJt4Pbkiq8Y-59" value="Стадарт" style="text;html=1;strokeColor=none;fillColor=none;align=center;verticalAlign=middle;whiteSpace=wrap;rounded=0;" vertex="1" parent="1">
          <mxGeometry x="100" y="870" width="60" height="30" as="geometry" />
        </mxCell>
        <mxCell id="qXZDPsuC2iJt4Pbkiq8Y-60" value="Высоко" style="text;html=1;strokeColor=none;fillColor=none;align=center;verticalAlign=middle;whiteSpace=wrap;rounded=0;" vertex="1" parent="1">
          <mxGeometry x="240" y="870" width="60" height="30" as="geometry" />
        </mxCell>
        <mxCell id="qXZDPsuC2iJt4Pbkiq8Y-61" value="Очень высоко" style="text;html=1;strokeColor=none;fillColor=none;align=center;verticalAlign=middle;whiteSpace=wrap;rounded=0;" vertex="1" parent="1">
          <mxGeometry x="420" y="870" width="60" height="30" as="geometry" />
        </mxCell>
        <mxCell id="qXZDPsuC2iJt4Pbkiq8Y-62" value="" style="endArrow=classic;html=1;rounded=0;" edge="1" parent="1">
          <mxGeometry width="50" height="50" relative="1" as="geometry">
            <mxPoint x="120" y="1154.5" as="sourcePoint" />
            <mxPoint x="120" y="914.5" as="targetPoint" />
          </mxGeometry>
        </mxCell>
        <mxCell id="qXZDPsuC2iJt4Pbkiq8Y-63" value="" style="endArrow=classic;html=1;rounded=0;" edge="1" parent="1">
          <mxGeometry width="50" height="50" relative="1" as="geometry">
            <mxPoint x="120" y="1154.5" as="sourcePoint" />
            <mxPoint x="480" y="1154.5" as="targetPoint" />
          </mxGeometry>
        </mxCell>
        <mxCell id="qXZDPsuC2iJt4Pbkiq8Y-64" value="" style="endArrow=none;html=1;rounded=0;entryX=1;entryY=0.5;entryDx=0;entryDy=0;" edge="1" parent="1">
          <mxGeometry width="50" height="50" relative="1" as="geometry">
            <mxPoint x="280" y="1154.5" as="sourcePoint" />
            <mxPoint x="120" y="919.5" as="targetPoint" />
          </mxGeometry>
        </mxCell>
        <mxCell id="qXZDPsuC2iJt4Pbkiq8Y-65" value="" style="endArrow=none;html=1;rounded=0;" edge="1" parent="1">
          <mxGeometry width="50" height="50" relative="1" as="geometry">
            <mxPoint x="120" y="1154.5" as="sourcePoint" />
            <mxPoint x="280" y="914.5" as="targetPoint" />
          </mxGeometry>
        </mxCell>
        <mxCell id="qXZDPsuC2iJt4Pbkiq8Y-66" value="" style="endArrow=none;html=1;rounded=0;" edge="1" parent="1">
          <mxGeometry width="50" height="50" relative="1" as="geometry">
            <mxPoint x="440" y="1154.5" as="sourcePoint" />
            <mxPoint x="280" y="914.5" as="targetPoint" />
          </mxGeometry>
        </mxCell>
        <mxCell id="qXZDPsuC2iJt4Pbkiq8Y-67" value="" style="endArrow=none;html=1;rounded=0;" edge="1" parent="1">
          <mxGeometry width="50" height="50" relative="1" as="geometry">
            <mxPoint x="280" y="1154.5" as="sourcePoint" />
            <mxPoint x="440" y="914.5" as="targetPoint" />
          </mxGeometry>
        </mxCell>
        <mxCell id="qXZDPsuC2iJt4Pbkiq8Y-68" value="" style="endArrow=none;dashed=1;html=1;rounded=0;" edge="1" parent="1">
          <mxGeometry width="50" height="50" relative="1" as="geometry">
            <mxPoint x="120" y="914.5" as="sourcePoint" />
            <mxPoint x="480" y="914.5" as="targetPoint" />
          </mxGeometry>
        </mxCell>
        <mxCell id="qXZDPsuC2iJt4Pbkiq8Y-69" value="" style="endArrow=none;dashed=1;html=1;rounded=0;" edge="1" parent="1">
          <mxGeometry width="50" height="50" relative="1" as="geometry">
            <mxPoint x="480" y="1034.5" as="sourcePoint" />
            <mxPoint x="120" y="1034.5" as="targetPoint" />
          </mxGeometry>
        </mxCell>
        <mxCell id="qXZDPsuC2iJt4Pbkiq8Y-70" value="" style="shape=image;verticalLabelPosition=bottom;labelBackgroundColor=default;verticalAlign=top;aspect=fixed;imageAspect=0;image=data:image/png,iVBORw0KGgoAAAANSUhEUgAAAg8AAADeCAYAAAC62OMBAAAAAXNSR0IArs4c6QAAAARnQU1BAACxjwv8YQUAAAAJcEhZcwAADsMAAA7DAcdvqGQAAELZSURBVHhe7Z1ZqB5F+v87/7vgMC4xCkFlEAxoRBlRxpUoboERTKJGGEVxjzfidqFE8EaJFxolvwt1NMoICu4KChoVFcfooCgRF4ggknhjNMkII16e//up9PekTqXXd+nzvud8P9CnT1dX19a1PPXUU/0umOqRGWOMMcY05P/lZ2OMMcaYRlh4MMYYY0wrLDwYY4wxphUWHowxxhjTCgsPxhhjjGmFhQdjjDHGtMLCgzHGGGNaYeHBGGOMMa2w8GCMMcaYVlh4MMYYY0wrLDwYY4wxphUWHowxxhjTCgsPxhhjjGmFhQdjjDHGtMLCgzHGGGNaYeHBGGOMMa2w8GCMMcaYVnQiPCxYsKDR8dVXX+VPGGOMMWZc6UR4WL58ebZjx45samoqHGvWrAnuut6zZ0+2bt264GaMMcaY8WbkwgPahI0bN2ZHHHFE7rI/Bx10UHbnnXdmv//+e+5ijDHGmHFl5MLDCSecEI46ECBOO+20/CrLXn755ez4448Pyxmcn3rqqfxOll1++eX7LXno4DnAP9f45X8OhccB//3vf7N77rknO+yww4Ib9995551wr4zvv/8+u/nmm6fDOfvss4ObkLuOIjctz8RpIg0PP/xwcBdV+VS+YjeuCTt2wx95jN3ig3iLnoHYTe7xdfqc3EBlK3fKDLeYOP+cP/nkk2l3Pceh9FA+XHNummbBO1L6i8o6Jo1fR5yHsjSK+B7Hxx9/HOoW/niW/5V3yikuG8qBeqVn43i5h5viqysr7guejctbdb2oLMvebXytuGI3DlFX5lzj/tNPP+UuxpiJYWoWWLNmzVRV1Bs2bJhavnz51I4dO8L1Sy+9FPyvW7cuXIPctm7dmrtMTW3btm1q06ZN+dVeP/E18RLunj17wjXhLVu2LMSD29q1a0OYul8E/vGHH57jmjAF7rhxxOEobOVp8+bNM9JPOrnesmVLuBY8F+cRP7gJlQNngX/cVF6Up9KSlr3uUXZp2LgvXrx4Rpml+QDu409+OOOmNJEe7hO3IG34UdkrXQo3zRdhEDeH3JqmGX+8D5Wjwo7rRor86Bm9r6I6yL0iVFbET74UBnklbuUpDhd/XCtt+OGa9wTUD57Hv+JVOhRGXFbywzkub/zyjPJXVpaq33FZFvnrp8wJg+f0zo0xk8PYCQ/qPIsGUdzplECdqjqnMuLOing5BGHGnSBx1oVJZ0dHKOjU07yk8QDpiP0RBmEJOl3ux+kFruP0pH6KykH5SMOCqrJPn9EAEOeF++nzaX7JWzzIgsqJMDUAxYOGBpey90t4Gphi8FOXZt5xOsAz0MXln1JUrmm4RX5iisqKawkCgjBxpzxUNioHIK1xvEJ1N02HBMKYdJBWfYvrP9dpnSHeNO7U37DK3BgzOYzdVs1ehxPORx55ZDiLq666Kpw/+uijcG4C6tADDzwwv9qfRx99NBz4Q4V68cUX53fK2blzZ3bJJZcEFS7q5ttvvz2/0w7CICzU0Sy1nHnmmfmdwUBVfOihh+ZX/UO6fv3116w3KOQuM5GqmfPPP/8c/hcvvPBCdv/9989QZaucfvzxx+l3GNvBUB69+pgdc8wxucs+KOtFixaFpa0qytL82GOPZRdccMGM9Hz44YfZL7/80lhlzjv65ptvsuuvvz536Z+0TvYG3XDevXt3yL/KQcscpLWI1atXTy/TCS1FxGVF+ZFX2pTyf/DBB4d7bdpTEaMsc2PM+DJ2woP4448/8v/2csABB+T/NUedcRl0fAgNJ510UnbUUUdlr7/+en6nHDo+OvRbbrkl7CLpzcDyOzNhAI07zuuuuy6/sw86/qVLl2bbt2/P3nrrrdy1f2R7UZXnJlAu33333QwbFHHsscdmvdljGIhYr2aQYPBIoVwYBNPj/PPPz30048QTTwxHHVVpht6svDA9VYa8QNy8v0svvTTsCDrllFPyO/uQHw7sE2IbmCak74vBHpuEV155JcQp4SLl66+/DulS+XBmwC6jKP+EEUM9VV44qMdljKrMjTHjz9gKD0UDElRpElLee++9IBSUcdNNNwWBYdu2bWHmWyeg0FkiaNDZf/DBB5UDIR1+3GGmQgaGbAw0GNLddtttA3eoDFiU2aCCw2+//RbKrWxAwB2NCXnifN999xVqJ5555pn8v31QfgyMomiQ1cxZMACtXbs2aC7SWbaoSzNwP0UGmlVoAOT82muvBWGPfMTIz5YtW0IaV61ald9pRrzLiPJBCECoRStWZmxMOVEmlA3xA+cNGzYE99hQUhTlN3VLhb4ywWWUZW6MGX/GTng466yzwvmRRx4JZ6EO9m9/+1s410EHv2vXrkpVN7MqlkPq1OECDQFq17IOtQ1vv/12ds455zQa7KsEoJiqjrwpEqQGgfJBRZ0KAk8//XTIy8knnxyuWfaJYeD9y1/+kl/tg9k32g6ErSKVd12aGWDXr1+/n7Dy5ptv5v/VwyDOoMz7px4UQfnzTlneaAPpQAAjjs8//zy4VQmm1O0rrrgi/E/ZxFxzzTWhrNAgqKwIF7e77757huDDfTQH/dBFmRtjxpfOhQc6LKlCi2aeDKZ0iPjRTJNn6PiYVWmGrmeLwqCDfPDBB/cb5OnUOdSB0qEyQ+Y6TVfRLHfhwoXhLH/MEhECgBkVB2ERB3YAcUctf+rQDznkkOz9998PceFP8f3www9h1sjBPZ6TcKO8fvbZZ+EMRfnX7J6wYohH9glx2qAoHPyQxjQvMbiTX/zJz7nnnhsGQ1ToLPGQF85ojcgLgxnvhnLUfQSJL7/8clqYUnqIm3fOLJyB+8orr5wuw6Zp1qCP1oB4iI9lgSohMA2bOKVN4d1B6odyJ26Ws6q46667pt8RZ+xDnnjiiXAtzZoEL86qT9QR4qRukx+0BJSN0kF5Ur7PPvtsuKasVAaUHwIdZYBWg2PFihXBbgIURlxnisoyzTP0W+YIg96qacyEMtUhvc4uWGrHR68zye/OBL+9wT346Q1EM3Y48EwcBn5j4ntlB2ANThwchI81Ov8TfpFlP2jXAGnaunXr9M4GWdDHcXAUufGcLNS5lnU81ugKV+mSxXpadqQxdeO5In8idudQufFc6p66caQU+cENKEss7nEjH4pLkN+ekDh9X+UHZXmI3/uLL744w09dmrlH+eJGGae7eWLS+HUQv54r8kM+yBN5i+Ojbqk+cU04evdpWvCnfHKmHCkb1QXd4xq/ZWWl8DkE6ZA7/qiDkJYb94rKMnUbtMwpK+XDGDNZLOBPr3HPKZjNYMtQpMZHO8CuCtbrjekajBB7g2527bXX5i7GGDN5jK3B5CCgoi1b/8ed+8YYY4zpjzkpPNQZ/A1qEGhMP5TZohhjzKQxJ5ctjBk3MBhMv/XhpmeMmVQsPBhjjDGmFXNy2cIYY4wxo8PCgzHGGGNaYeHBGGOMMa2w8GCMMcaYVlh4MMYYY0wrLDwYY4wxphUWHowxxhjTCgsPxhhjjGmFhQdjjDHGtMLCgzHGGGNaYeHBGGOMMa2w8GCMMcaYVlh4MMYYY0wrLDwYM6Y8/PDD4ae8u4K4uoxPxPF+9dVX2eWXX5799NNP4dp0y3//+9/snnvuCe/ANId6O9+w8GDMmEEHfvbZZ2e7du3Krr322tx1fnDCCSdk119/fXbSSSdl33//fe5quoB6t3LlyvD/448/Hs6CwREB7+WXXx6KYEcYsyEgthnkP/nkk1AmKSqL+PjHP/6R350/WHgwZsy4++67s8MPPzy77777cpd90Hkfdthh+dU+6MAWLFgw4xin2Tsd8fHHHx/Sxay2qFMW559/fvboo49mZ5xxRqU/M1wefPDB6Xp30EEH5a5Z0EScd9554f8XXnhhIMHunXfeCe9/xYoVucvooQ7Rbqh/999/f+5aDv5vvvnm7PTTT59RDuLzzz/PNmzYkF/t5fbbb8//mz9YeDBmjKBzpaN76KGHcpe9MNuhQ3v33XezX375JXedyaZNm7Kpqanp44gjjsjvzC4IMRdffHH23HPPZXv27AluCEhVXHLJJdk555yT3XTTTbmLGSUMmAysaH1iEBJwp96hBXv++eeD8JoOnlXw/hFuee6VV17J1q1bl3399dcjr5+kHcFn6dKl2Zdffpm99dZbIf1VIORS5xYtWpS7FLNs2bJQHvEx37DwYMyYQAd+xRVXZA888MB+HeshhxwSZuMIEF3CLJFOH+GF9Om6Df/5z3+y4447LixJMJO79dZbs8ceeyy/Ww6DDDPdNqpm0x/bt28P52OPPTacxUcffZQtXrw4vDtx3XXXNXp/DMTUVzQV8MUXX4Q6HIdVhQRpISGkSqNGHeU5lv1WrVqVLV++PNu2bVvQpjQRVg444IAgYKxZsyZ3MWVYeDBmTHjvvfeCVmH16tW5yz6adHx33XVXWBZgcMfYclAYtOl0b7zxxpA21Nq6bsNvv/0W1OGCDroJDDJ04k1UzWYwUMVDWs/efvvtoAGKOfDAA8O5bBBnxs8SwSOPPBLq8s6dO8PMvI2mASEB7cSll14ahAHCvOOOO8K9snDwh5bhww8/zDZu3BieZwmsaOmhjKaCzc8//xziI52c5yMWHowZE+69995s7dq1rTo7QSfNDIvlClTMrMGqU0MIiG0h0qNsZk9Heswxx2R///vfQ3hXX311uJYtRr/htgE1OtqHftfYzejYvXt3/t/wOfnkk7PbbrsttAeEAZYfMOIch+WBCy64ILvqqquyHTt2BMEYbSGajvmGhQdjxgAGx2+++aZQ69AEBA4JHZqx07npOraFSI+62dZ3330XzqivY9qES97E77//vl9YZZxyyinh/MYbb4SzGS2o/Zty1FFH5f/NBAGTWT/LU9g4oAmrW25IUd3BUBPNE4JDnVCNlgEBmqWKW265JWg/EKDb5KkJaD5k54CAg7COgMMyzXzCwoMxYwBry5CuOadoBp52iPFMnzOzdWZv/UL4LH2w5nzkkUeGDvmzzz7rqzM+66yzgvCgzvWZZ55pvPTBgEHcr7/+eu5iRoHqimwfxKmnnpq9//77+dU+EP7qBvPTTjst2Dhg6wDYPmADMQyNVBmkCSHigw8+yF599dUwqLOUgeaijfDSBgk6ErLnC50JD0ieqVqz7DDNYCChXGPo7MtUvLgzIKic6xpTqpZO45oNUA8yk1EeGczGJW2DwNoyHXLZeq7eBWvAcPDBB8/4kA/qXWZp+GHP+ebNm2s1ClUwiLBUgVqWznj9+vVBXUtnXDdopDATJT3suCB9cOedd4ZzE84888wQ77BnkGYfCxcuDOe070B4wA4nHvDbCH+gmTq2D2jW0CSgFajrf2jb1EPaBYIr77+sbytCS2xoI/7617+G7aFxm+mXtK+RUDyIsD6RTHXInj17ptasWTO1adOm3GUvuJGULVu25C6mDspy3bp1+dVeKNdeQ8mvyqGsOdLnU/Reli1bFuKbbUhDryMJaeoNlsFtw4YN0/kZhzT2C+mnvGcT6k/aNrugLl7uUT5bt27NXcwooIxpTynUS9od74H/h9Ef7NixIxxF8J5Jh/on2vry5cvDdZP+rYq6OkSa8EOcKg+u4/ziTnooD+5TNnV96VxkAX96hdEZktpiwxekQdSsHSdlomEmgIV0XI5I86w11sHsD1UwsznWxYtmu4TPO2GW0OswavdHdwlpQx3KIahDTdZFxxFmVGgSeh3QtDHibFDUNrugLl7e94knnpi99NJL4fsPZjRoVl7U1tEC0FewhIUdSlU7Q6OApqkONFlFfQ9xARovUHgsf6FNKEN9Yh1V9bssjDitaD9+/PHHaZuiunTNVWbF5qFuXRfoUBjkyg6BPwbN9L46pBgqYeovPuI9xTyPehx3VOVSl3FG9c89On3W8PBDGqS+ogIqTNxTCCMNl7BYl1OcPKdGVAb7rfGreFELct1ENcdABWX7tREaUIUXQXyknbg4KINYpdz03fE+VH4c/K/yqAI/WDsL4uY7CP0IDnqHvLMU6kNcJ0aF1pmPPvrocJ4t6FS7FhygabwsoQxC3C7Tg3Yn5EY95qBdxm6irI+YVKoGQAZy3hHnUQvoxCHBAbTs0cUAzVKf6mN8xEIO6VB5cMxHwSGA5qFLUPWkqiOpx1N6M40Z6sxUZdaTRsNzqIxwI1yuea4I7vOM/sevwkddpf8JT2HijooK1ZTiUHpRWbHUQphSp+MfUK9xzZHml+fiuIH4yBvPE4/UZsprEaSDeBW+yoPwq8APEF9RHISnZQHuE48gfbgp7SrHNM66d0c4pF3vKi7nKtUkedQ7BJ4j7qpyKoNnpA4tQnkdVFVah8owLi+zD5VP2XtqA++cehjXaVB7B/kRij+ud/jXM3HdVRiTCPUvLRdjyuhceKBy0thicKNxptBo0wEortzc4zn8gRq5rquQ37TDZqCIOw5AQMCvBjrFG3cUCi/u4EgrHYoGYuCZIuEBP7E/xdkkL20hXJCwkZYB6Va83I/LXEJRPKDSccZ+gOfjcLkf+6GceC5GYcflMEqK0p1CXYjf6Sgoq4tmH2k9HIS0LhYRvwu9H7WJJn1EGbR/6nfcfoC2WCf0l6H01R1KfxmUyajrupk7dL5swZatonWufpB1K3t66yx3m8KWOdIoNSUHP5ACfB89Jlbfoe7qCQr7qS75hj9LA0ofVsMXXXRR+D9Ga/j4Y1kEy/RRg+qt1wmGLxNq2UHpLLPUR0XXqzfhzLIKSyTYTrSFZRGs6GMIszegN/r07aCgcibd8W9IsETB+47rEuUziDqaMiJMLS31Q1wX5/oxLlQtkbTpI2JoY/xqJTsOUlU3bZEdLf3UNdoqbbLuqNp9Q91nS2ZPsMldjKmmU+GBTpnOeFjQGHrSdPgfQx6MqoZBTwIvbHx1xmzpZ1zhsssuC+fezCKcGbCK1sjoWBAa2AvNx1e62tdOnGzF4mMuwMDdm32E/8tg7RibDP3IDeXVD/zkdEr8GeNR0pvlhY4yFmT52Av1s4lw2+X6dlFdnKvHuKBPMJfRTx+B4ICtjtbzEbxpf4L+Q9/76BIEabYAU/+HNbEzc59OhQcG0PRX2wYFQ7lvv/02NGYJEoPCLgPNxGPqZo987zyFxsggxWDFgMPMugh+yQ2BYdu2bcGivOn3/wcl1j6QPo6qGQqCA0IanR6akiq/dZR9VAUNzqhh5qivFwpmX3TwMdQF6pgg/xjHYUTXBMqXQYUP5pj+kKBWJHSPAtp+nXFm2z4CdyYO8RdECYPvKIi0/2Cy1aSeVRmCxgf+isDoj76Z74R0KRSbyaYz4YGGwACadth1VO3MoPFeeeWV4f/0J4z7hW03wI8AxdQJDuSPzqFIOGK2wWB1ww03lOafjgR/s7HVUNqHM844o1broG1Mmj1VUfXuEKgor7RDowNt+8NLw4BOkzKIdzxot4s6fMoJf012C5nh8ccff4RzV7tR0KgVLS2KfvoIBGUmOGrf8qu6RF9Ge0CDCmgD0AKyvFfHMJYtaM9MWv71r3/lLsZU04nwwADB172eeOKJwsFRErc6a840Ln7J79BDDw1uNC4GYA5J/NgT0OCeffbZMMOX1NxEelac6QyD2Q0Dm76CRiNG+ucX4tLZI+6khQP/aBU0qJIGxcFzzO5Z4yf/Sh9fFRTMtvlyG2EhiCBMAH6HuV2wqIxIM/GjNo07GHVwcZlLnRu/K+6TV9JJeTV5d3y9kDhjexWeR4vUxbor7wNhlrhJE4Id8WKTAtRZfvCGDl/vlO/Y08G2FYDrkGZj0K2I8x3qHjNszmUU1cUY3jt1INZyqB2rzbTpIwRCAW2aMIgXv/QXCKxc05dxrbqFNqDrb34Qd9wvTAKkl+UfDvUjpiN6EulIwWqZaJoevc46HPwv6+Mia2L56TXi4CeNp8pyvShNMdoR0Rvcwj0skOOdFXoedz0f+0nTCzyDhXV6j3wA1tbEx4HFNjtS+J/7cdyDoDJL4wbSRxpE6pcDP6RF9zhrqyRp5Xndq3p3gvKI4+FdpjtxRgVx9zrrEG9PkAhpj/OGG/ktAnf8DRPiHHaYcwXaA+VDXapC9ZCjiKq6CLzX9H56qE5QV6r6iCLUX1C32J1BHdTz1P2i57nXFaRhVHWQdk3+CZ8zeR8GlBnhlb1zMzpGXjPVIKk0ZRWGihX7G3eUVjM/4f0Pu54SnjvAYhikaW91g7PQhKItvFcGoiIBVoMffrqky34GYXoU/S9lR92m/BDgeD9cF5VzP4yiPZp6Olm2QB3HJ0/LDJ5YckBN16sEuYsx84sLL7wwqLBnS/VKvFqKisENtXx8dA2GxCwzNbEHQo3d77ISS3IsFRTtOMCNe3W7MIZJ0bLKKGEJmHo4bF588cXwJU7Kj2VRtqRS13EfBiwzjSLdpppOhIeNGzfm/1WDABFbto8rslXwGtv8gvfNmji2KayZ8/+w6oCM8Lr+WV8GKAQCtgg/+eSTues+cPvhhx/yq71r911C+hjU+BR7Hdja8JsD9CP90OR3M7r6bQ2Mc/UdFHb3FAl2w4S6DKMwBkb4i3cxIQSuWbMm+/TTT3OXesg/n5HHtiEVYLGVSn/Rkrog/xyp3Rj5xU6Fe7JdMy3JNRAjI15Hb0Jb/11DkcVH12pMM3vIpiM+hllfWQtHtdsl1F+WE1kaID8puNXZGowSypd2Nqw18kmB/FLuOoal4i9jlOVc1E9Sr5ou0+GXJRXsRGT/onRy5jpGbuSJsqNNxUtZpIW4uU+Y/F/3ZVCzP164N2ZMUKfWdG1/mBB3mfCAYMF9Otuu00anz8BhRgvvNx2Eh0WZ8NAkPp6L3z91MG4jDPpp/UBgIGwJXPjV/9zjeV0jaHCNu2lHpx+JMsaUo+9J6Guf4wBryVrnZ6tq+hGtUcKSUJMvnprJpCdA5P+Vw8frfv3117C8gN0E22P5EqbsX/g//ZQ/dhU9gTcssekLnrJj0c/433HHHWGb7apVqwb+2N28JRcijDFjADOt2dA+EG+R5iGG2RpdRleztFFuHTQz0Q97jaLe8Q7T94i2oG6JTssPaBeoc0Vpo62Q9iJ4nnjiJQv8a9fHqJeC5jrWPBgzRmDsd9xxx+339cLZoGwHxsKFC/P/RgcGbxi5DevLsaYaGcKOwmAXDYM+kAWcMYLFXaBZSOua6tmSJUuCZgBtA35k3En9ZNcGn/LHHaNH7sk4kt19fLU3/r0QtBeLFi0K4aGNwH9RHTcNyIUIY8yYwAyLGVO6TjwKmIFJ28HB/9IscKaLYKaGe1cGncwYiYuz6Y4iDcGwIFzqF2fqVGqgiFtRfae+6TnqBGdpDKQJo61glwOEgRv+FCd2EoL/dZ/nCFP13bRjAX96hWmMGSOYRfFjadgc9Lv1sAnMvPR7JYJtb1oDju+zjW/UP/DFrJR16FdffbX0uzBmNDCTZ8suvy1z5513NvquRht4t/xOCb8anIbNZ8V7wmLhO9dzbONPv8FBmrkXP4fb7t27w/9Fcek+mg3Xsf6x8GDMGIMQMexOfJyZb/kdNxhYMVJlwObDfl2AUSPGi01+bM+MDxYejDHGzBoWGCcTCw/GGGOMaYV3WxhjjDGmFRYejDHGGNMKCw/GGGOMaYWFB2OMMca0wsKDMcYYY1ph4cEYY4wxrbDwYIwxxphWWHgwxhhjTCssPBhjjDGmFRYejDHGGNMKCw/GGGOMaYWFB2OMMca0wsKDMRMOP2n81FNP5Vejh7i6jK8pcbq++uqr7PLLLw8/MW2MGT4WHoyZUPgp47PPPjvbtWtXdu211+auBk444YTs+uuvz0466aTs+++/z13NbIMwd8899wTBjvOg74bwZkOQJd0vv/xyflUM7RM/5JUDIR+3lHfeeWfaT12Y44SFB2MmlLvvvjs7/PDDs/vuuy932Qed0GGHHZZf7YOOdsGCBTOOcZudozU4/vjjwzmG6zTtdLxlnH/++dmjjz6anXHGGYWdtukW6hnCHKxbty4IvbybfurfJ598kt18883ZihUrcpfRQx2iviGw33DDDdmSJUvyO/uDcLF06dLst99+C3lFkF2/fn1200035T72gkBxxRVXZLfeemvwQ55wmwimjDETx+bNm6cWL148tWPHjtxlL1u3bp1au3ZtOIqa96ZNm8IxCMMIowjyQro3bNgQ0k5eYrhes2ZNfrU/ZenimarnzPDZs2dPeI/Lli2bfo+6FvjhPePeBPy/9NJLIQzeJ22gC6iXpJH21hME9quXRZDWbdu25Vd7Ic3Lly/Pr/blP86H6j73xh1rHoyZMJgBMVt54IEHsiOOOCJ33cshhxwSZtvMYLoElSuaDrQDpE/XbfjTn/4UZme33XZb7jIcmPm98MIL+2kyzOhYuXJl9vrrr2dvvfVWWEICrnEXBx10UNYbULNPP/00dymG98YSBzP5L7/8MoT5/PPPB81SE9ACpDN6NHB1bUTLCWg3DjzwwKwnDAQtn/JTBXk75phj8qu9efjmm2+yJ554InfJsu+++y6cjz322HCGc889N5y3b98ezuOMhQdjJoz33nsv++WXX7LVq1fnLvtIhYki7rrrrqDyZ3AfhoqUjpFO9cYbbwxpe/DBB6ev20CHy1HF+++/P71kQeffZDmCzp5B6v77789dzChh0P3222+z1157bUZ9/PDDD7Ojjz46v9oH77QMBvkTTzwx683YpwfvJnVcUD96s/nQVm6//fYgSCCIIAxwXQZCA0Isywlff/11sCmqq5tF0L5oZ+edd1723HPPzRAoJDwU5WdQW5AusPBgzIRx7733ZmvXru2rM6MTpROemprK3n333dCBym4AIUADc9FRNnNncKZT/Pvf/x7Cu/rqq8O1bDH6DTeFeL744ouQ9h07dmQfffRREFSawHoy2odJ6JQnnVdeeSW75JJLGtdPBOEyTj755CD4MZATblv7CNKANgstxbJly4LggCBC+uKBPIX6AtgV0T6aCKlFXHTRRaGdEQ5CUFNhHVuJccfCgzETBIMf6s8irUMT6EzVqWtGzkCsawbmsoP7VWgmtXjx4nAWg4Ybo1kaZ80km3DKKaeE8xtvvBHOZnQg1Km8m0AdLIO6wRIFSxUMqBhcIgA0FThB9V1LJk2WO/CDxmHjxo1BY8KSCQN/W+EFAYU8IPywfFal7YhBaBp3LDwYM0HQMUO8TlqEBtV0xhTP9DkzGx+koyJ8OlV2dxx55JFhVvfZZ58NNFtT2n///fdwFqiStS2PThx19IUXXhiu62AAIW2su5vRgnBbBELC22+/nV/t5eeff67UAAiERQbgnTt3hvd4yy23hB05TesZfiR4t4GBHw0a2jqWOrB/oB6y26Mt6ZKN2l0sCKnOY7s09vQk/07ACpromhymGVjzptblWCPjXgfWvDzba4jT5c7/WP7q3lxCVsyybKaMsJ7udWjhelIgvaS7DCzB9T51xHlkNwPP447Vej8W69QN1Q/Fp+stW7aEa6zS+0Fpjg9BHKQZN/LAO42J01UEaeLZSbBkn2Qo46L3QN/EPfVPnLlusnuhCJ7nncY7OIrgfdMGVDd5jv/TnUpN4VntaCqDdpW2AdKQ9jfU4zgc/k/9jCudjtR6iWnFwo2XyksxzaAs08pJuaphVoEfKi3CQlzmNCbCKGv8k4zqmAZedSSTVu9I72x3LtSNcawfdeniHuXX72BlmkG/UvYeqLu0QbVHBIpBqRIG6SNJj/pFBA2OVPDsh6p4iY94iYu8co7TIeh71BfLT79CTdcs4E/vJXaG1I7xF/FQA6E+7TgpEw2qrs8//3xGOaLGY52uClR3fJjluOOOC9bQWg+MQRXIOp8M3uYSWD6j+hTUR5YATjvttNxlfEH1evDBB4e109l8N0VteByoSxdtBqO13oAVDObMaKA/B2wViqAP+uOPP7KjjjqqsP+JoS968skn86tyyuLincfx0IbYBllnZ8NSXN0W0lNPPbV2WzHLa7t3784WLlxYujyjNFX5GUsQHroEiTSd6UkKjdEsoewQ+ENiS+8XSb5IdKm/+IilYJ5HIsQ9lhg5I7VyD8kTNRN+SIPyFauOcU8hjDRcaRIUJ89VqZTjOBSvnq2amaqs62bb5J80kQae4Zr/VdakNZW8y8pM4M6BPw7CiN2UNh3kMXXDH6i85M57SNOToncX0+Q5oLxi9WIMeW0SxqDonasMTDuGVX48r3qXHqojiov2gn+OuC5zH/qpx+MObYy8DgP6bMqq7hg29BVF8cRH2r/NN2ZFeKDgY9SoUhjM44aOPxqjGheDGc9pICNcrstUYdzXgCy/Cl8qeyA8hYk7g4OEBZ5TemkkDCqEqUFTKicqFtccaX55Lo4biI+88Tzx0IngR3ktgnQQr8JXeaQDpCBspakJ+FeYxKV3p7SRZlFVZoL/yaPQO9A7AYUdN0zeZ+yPcAhf75lwiIs0loGfuLyBcmrSAej9lvkl3xo0RonKK82HaYbKL663/aL2Hb8L6mUcNn7iOolfnlEf0U89ngTI56TnwdTTufBApVLjEbjRqFLSDh9/caVUY8QfqHPQdRXyG4cPNPh4gAMEBPyqkSveeGBUeHHnQVrpDOKBhWeKhAf8xP4UZ5O8NEVpjMuwCTyTCiR6Z7zLJmUm4jwrPXEeVbYxqT/CTAcAlWnZAN8vTd6DBKy0Xg8blUNaZ01zKL+29b+MJu8ivp/W7UHqcSqYCMKjzvYLcdcdTfLchTBtZpfOt2qyVabNF8Kq0FYXtu308+MqRbAVjjTGH7E5/fTTwz0+jRoTr9exhtYTFKa3mQk+DvLYY49Np49tbHw4JIVPCnPgj/W2iy++OL8zHrBNKabXcYUz63ltymwYHz/BPoavBcbxaf/0jz/+GM7DgLVI3kOvQ56xRordBHvNBT9OBZRFv7C2Sz762QIm4vKY78e4UFXf+63H9DGrVq0qtHvhA12D9B29MaH2qLJ1oc30BKDOP49uuqdT4YGBsTdDza8Ghw69NxsL/7PHHGOoYcDAWNRo6ozUzjnnnPy/fVx22WXh3JudhjOGiEVGMTQ6hAY+goKBzyj2o2OQA1Wfg21KmoemZZYKIWXEHWrRe+3Nbgrja/q9+yYg6PH1OzpkQceN2/Lly3OXcjDWSoXJUVJUHvP1GBfq6nvbekwfisFz/Klj2oiETtyon/G3A7qCtGHQiwBUZ5BoJp9OhQcGUH32c1jwMQ2+o87gJUFiUJgRMJin1M0K+eBJClqWtWvXBmmcgaRs0OGnWhEYtm3bFizBDzjggPzO8KBjQXgbRueSfsCnSZlxv6nmIe5Ii97rM888k/+3D8IfZqe5I//yYiwoKfz4I03segEJZ1j9s/OFWSUdPT/hWweDBXmdhF0fk4oEuVTwHRXU/bqPebWtxy+++GLYKaXBOa2PaRtkQEdLFn9gq4pYaC87ysKhr9uzZ0/o64bZDs140pnwQCWmUrX5bClUNT4aypVXXhn+f+ihh8J5UM4666xwTr+ZXyc4kD+0CkXC0VVXXRXU+vwGfFn+GXzxV7d1aVD0q24s9aQdjcAdLUgVb775ZhBE6MSalhnfpi9asmkLgiJljao/5umnnw5am1HCd+ohXnqjXlMWGpT4it6///3vsH0M/6TVnensw/ZAKPpxplGAYFAlDPZTj9k+SD8h+CEyJiTqN/SJcH2hEE0mvzlCv3TdddfVasJiob3sqFq2IB1oHliCNXObToQHOk4+68nAVTQ4asauRsSZgYeGceihhwY3BjQGYA4NetgT0PieffbZ0JmrYTRRFSvOdCbMAICmgFkjs0ekbCT3Rx55ZL+OAHfSwoF/GrHUjaRBcfAcg8uZZ54Z8q/0xZ9qxV6CzoawEEQQJgC/fPp3WJAWNECUG+mhrFWenLmmXK+55prgJvglRg2AnMmvBJEmZcYzLAPEsz6VT/y+8AOUgdDMXv752VrK84ILLpieUXFGRTxM4YulMNBMi7LBrkG2LZQX+aROokYWCA1KB504/och1GhAGIbdiCmHuoRdS9WEQXVW9TWFNptOFH744Ydw1rP91GPaD8IqdY9w0FT++uuv0/0GExRsdCTcfvzxx6EN0i/RP0k7NmoGsf+ZLWjflL/tNRrSkyRHiiyMmx49aXzakr/XSEIYsjJP/XGWVW8aD9dlFKUpRjsi2CnBPSyY450Veh53PR/7SdMLPIOFdHqPfIC2A3JghY3lPv9zP457WJAO0qw8cvQ6l5DOND6ls9fRhf85pxbdVWVWVN7pgR+9Ux2kMXXDH1A+vHvciFPuwybOE/GRJ70ruVVZxnMf/8OCOFVnTDtoV5Qf9aoK2gF1vKyc0/qc+kvrbNGhNLStx/hX+Jype9QvPa8+M4X4RtVGUkhDWdkNA/JCmREHcQ2rf6RsefeEberpTHhQRS+Clxb7G3eU1vkCeR2k4+FZhAnecwpu3Bsk/HGFfA1TcADaB4OEaQ8DDXW56WDT7yDCO0JQKYqHPpABqk6AGSbEWSZUjALyP6p+PN4Czv+UJcewIN1zsS8aBZ0sW/ReblDlxirrGFRsrKP1XlruYuYSqGHZdRHbCQjcuNd0F8akwHIG9R51MSpljmHAr0hi8Bov68wmpAN1bwpuqOHjY7bBIJllgiZLWyw79Ku+7g1Awei5KB76QC33dQFLG/wMOZ9R5n8tmYyapr922haWVHtCeShflmPWr18flmDrbNKawk60Sfg57HGgE+GB30RvAgLEJPwUqWwVxqUDHyWyc9B6bT80+R2BufRbAzI25fsPlB+GpHy7fhjIOFWGcbMFwhACAQZ5Rb89gFtcZ2Q/MluQXgYZjAbrQHBgkO93u2FdXR4k7DaQZ3b7YGTJWj7fhpDR6CiRvdaw0TtEKBeyqWraHgiD90t5cMRCB4IVgnn6bmL/CJSpoIKgjDv3x0FI7oxcAzEy2qpth63mHTYUWXzMZRUXeUvza6pBVS21bXxU2UW0hfV4lkRmE+qG1OHkLwW3LlXzdcguYJjvYdyhLvIO4mNY9gFVUM6j6BdJP2FzjsGtyRITS6S0HfwSBm0oXgJkKSSty7jJxotnWCLBTeAfN+7jPp/qmEcDYyYMOmY6vS4GgjpIS5nwgGDBfQbu2U4rAwadvBk9DLZdCw9FdTBFdVIgPMTPUUdS2xDyQb1R/UUA0f+6J6jn49Iuu6DTj0QZYwZn9erV4cx3M8YV1rxlx8J6+8qVK8P/swHLi3winrVyM3pYWhtkmbMf6mwsWJJgOQW7F5YX+NjVrl27ZnwfiOUJfmY7hrbG8uPSpUvDfWy0ZMvC9nW2yRIeW3vZqs53XZrY1MwJciHCGDNBMOsZh1kO6aib9TFbo6tJZ4xdwYyyyczUDIdRzsCpR7FWgzhwq1vu1pICdbCoHrLUwP2yNLMsQZ60ZCH/XBPefNE2xFjzYMwEgnExnylOv+o5DpTtwOjqA0UxGLcxYxzWF2hNPewwom6ibRq2UXlPEJz+SBbwIcHeoD79QS40DGgC0l0lf/7zn8OZj7VhEMnzGDcqHP0QGVoD6gtwlsE4hpn8dpF+6E91ecmSJSE8nqPOy/+8IBcijDETBrMd1lzjmVhXMNuS9oOD/zWj40zXwpoy7rNl4MnskLjnk5HkuEDdlEFi0Uy/X2T0yEHdT8NX3UvjVFvhObRQPId9gzQGMqjlnrQY8sdZz8Z1SfnjvsIlffOFBfxBiDDGTB7MnPhRNdZ8q35zYNgww9JnwwX747XNLb7P79NoS11XMPNka+Krr75a+n0ZM7lohp9uq8T9vPPOy3bu3Jm7zETPoYFIbROoM2gU4u/R4KbtrWlcoPt8YqDoOzZzGQsPxswBECLmjaFWA1we8xOWLPjonAXG0WPhwRhjzJzAQmN3WHgwxhhjTCu828IYY4wxrbDwYIwxxphWWHgwxhhjTCssPBhjjDGmFRYejDHGGNMKCw/GGGOMaYWFB2OMMca0wsKDMcYYY1ph4cEYY4wxrbDwYIwxxphWWHgwxhhjTCssPBhjjDGmFRYejJkgHn744eypp57Kr0YPcXUZX1PidH311Vfhp5h/+umncG26hV+yvOeee8I7GBTepZkMLDwYMwHQQZ999tnZrl27smuvvTZ3NXDCCSdk119/fXbSSSdl33//fe5quoB6uXLlyvD/448/Hs4p77zzTv7fTCQA6kAA+fzzz/O7/YEAORtCZJN4uf/yyy+HvFImlF0KbvLzySef5K7jiYUHYyaAu+++Ozv88MOz++67L3fZB53NYYcdll/tgw5owYIFM47Z6FiLYJC/+eabQ7pJF7PWdOAn/bqPxqWK888/P3v00UezM844o7BTNqPhwQcfnK6XBx10UO66F94nAu+TTz6Zu8zkuuuuy3744Yf8KsuOPvro7OSTT86v2sFgTB1asWJF7tINTeNFMMLPb7/9Fo4rrrhiWugSlNfSpUuzd999N/i5+OKLw3Njy5QxZqzZvHnz1OLFi6d27NiRu+xl69atU2vXrg1HUVPetGlTOAZhGGEUQZike8+ePeFYtmzZ1Lp16/K7U1NbtmwJbuSZg/y/9NJL+d3ydK1ZsyYcZvTw3qh31M8Uvd+q98Gz1OF+oV4QD3WDuAYJqw39xIt/yktwTf7jNq3yEpQrfrZt25a7jBfWPBgzxjCLZpbywAMPZEcccUTuupdDDjkkzLaZwXeJNBpoPACtANdtlgxYeiHtzFY5eoJCtmjRovxulj3zzDNhZkqeOdC8vPDCC/ndcnoCSPDntfPRs3379nA+9thjwzkGDQLv98ILL8xdhgfqfOo8y1TwxRdfhLhYvmoC2gLVXUAbR52u08oNEi/1PdbMfPbZZ6Guxm36sccey3rCQ36VZaeccko4f/TRR+E8blh4MGaMee+997JffvklW716de6yj1SYKOKuu+4KAzvq/zrVfxMQZo488sisNyvK/u///i90wscff3zoCI855pjcV3O0xgvXXHNNOMPu3buzAw88ML/KZvxfBR05HfD999+fu5hRIfuEonrYdCBH4GTgbjJ445e69sgjj4T2sHPnzjAoN2kHgni+/vrr7NJLLw1CBGHecccd4V5ZOMOIFxBoWYYgrPPOO2/GEqSE3bgNSdiIl3bGCQsPxowx9957b7Z27dr91pObQEe3bds21jPCOurtt98eOkygs0KoKDvKZu6kA/sCZkUffvhhcOM67giLwtNB5y2I4+CDDw6zOTrN//3vf/mdwcB4Eu1DG02I6R4EUNb24e233w5C6aiNBNGI3HbbbaFNUX8ZzDH07MoIGbuOs846KwgvTYX5ca3HFh6MGVPoNL755ptCrUMTGOgldGhGvmPHjulrhIqyo27mKJX1kiVLwjmmKDwd6qSZZR511FHBDfUvu0hSbUE842KQYZmmCVL3vvHGG+FsRku/BqoIndQHjueffz7UT5anykDARGtw6623Zq+88krQpjXRWMSoXjPzp74hONQJ5sOIF4ibvLLUsWnTpiDMNxEMTj311Py/8cLCgzFjitY6i9aUY9QBpZ04M31pEDgzG+/Xml0wUyMsllM2bNiQvfnmmyH+Mk1FGcw6GShI85/+9KfcdR8MJP/85z9DB40fOtumQhSDwfLly7PXX389dzGjQHVJguSgYB8hbVYVp512WhiAEToBGwS0V23rYFuGGa/K7o8//ghnBGkoEiZ0b9zoTHhAUktVmGWHaQYVLVYDA+vHZdIs7jJu46iTnGkU8XtJ4xpXUH2SXm1zYvBhyxhrjW1nC7MJqtzFixeXrq3q/aACBZYA4g/1oJplhoWff/zjH2HArtMo1MFsjQ4U+4TLLrssDPA33HBD6w4O1S2QZg5gJiYuueSSIFygymb7GsaTzFSbcuaZZ4aBqN9Zsaln4cKF4VzW31RB3U0HXYxkY4PBOmgXzOSxQUCwpG42aeMs3SHw0LYwXKSOtMlD23hxT/vOn3/+OZylTZPAGxsFawnnb3/7WziPHVMdwlaVXuUI21RicCMpbM8yzaAs461tQLk22dZDWXOkz6fovbBlLt5mNO5oGxQH5aGtflz3Zsu5r/GH9PIOZhPKMm2v40BdulQHutq+N18pa1O0O/rz3oAY/LDtMH4XvB/aJH0Q/1PPuR50WyJtPd7+GEP8pFX9HlsjSR/Xo4xX/Y/GPtLAdVp/SR9lRbrkJ96ePG4s4E8vwZ0hCQzJTTBbQuLqOCkTDVI71s5xOSL9sjZXBzNRpFxmZr2KXTizJXzeCVJ1r9KHNclJg3qFIZ8smMkT6nYMpsYdZkPMyHsdW+GHobqiqL2OA3Xp4l2feOKJWa/zDVoMMxqk6Ur7B2b39C0pel/Ub2b/2rGBhglblSr7A2bwaM/quOCCCwr7NBkLS4Ol8NCCxbscUgaNV6BJ+O6778L/ZXHGcdWla7aZFZuHujVcoHNgkCs7BP4YNNP76lxieDGpv/iI9/7yvL5uh8pbai2p/rlHA2DNCz+kQWomOi6FiXsKYaThEhZqdsXJc6rsZaDKxa/iRY3Gday6LoNBCdhbXARCA2rvFMImDh3kNXWLy15b+XDnHN9Ln4uP+F1UhVEG5YlKMG58dFTnnntuflUO5cl7LYJ3RtijRuvIWGfPJnT24yY4QNN0yZq/X+K2nB601diP6iZHXLe5D2rjcqeOdVGXRknZ4BYbQ8aHQEiQASEH/usMFweFOOKlLy0/dDVAYzOh/JbFqTR1ma6+QfPQJahqUlWi1OMpqGxi1Q7+YhU6qjCeQ+2Em9Q+Zaoe7vOM/sevwke1pP8JT2HijmoLFZLiUHpRLaGaI0zu44Z/QA3GNUeaX56L4wbi0xf1iAfVFX6U1yJIB/EqfJUH4VeBHyC+ojgIj/iB+8QTo7TFqj7KHDeVL5AOyk5lIj/kVcgtLiPCVdk0CSMFvzwX54t0xWkrQ++yTI1JvCqbUUJ5kM+4jpjmqPyq6klTqEe0lbQdELbqGPUlvs97I37VW/xRj9U3kT7qWRrmpEE+Jz0Ppj86Fx6oaGpQAjcaWgoNLO488RdXVDVQDTzqMHRdhfymnTOdAB1FDAICftXwFW88OCm8uLMirXQQ8WDDM0XCA35if4qzSV7aQrggYSMtA9KteLkflzko/zHKv57jHXOd2rGkgkf6XEzTMIZFkzJXmaV1eNioXNJ3Y5pD+aV1t18Ipy6s+F2lbYS+IxVk1A/U1eNUMBGEl7aNNhB33VFX/0jXMAQ0M3l0vmzBvvWqdaE2aLvLLbfcEpYkhgHb40ijVIscp59+erj35ZdfhrOI1Wyo4HqCwn5Wu1iMszSg9GHde9FFF4X/Y7Bg58AfyyL8KMqoQYXXE5TCVwilPlU6B7XK7w2y4cxaZsxVV10Vzk0+uTqMMJpC/inzXkc4I++oprVrA/gRIOALiP3CchT1SstN/RDXz/l+jAtVSySyH4rTrd0lP/74YzgXQX+yatWqQruXq6++eqB+otf/1x6oz8tgOfH9998vXN40c59OhQcGJgarYUEn35uhhf8ZYDCQGgY9abqwIdUZrp1zzjn5f/tgOxtoIMRIsWgti8ELoYG9w2x762qPOnHy+WM+fgIIOgygTYg7wrKy1z5mccABB+T/NWcYYdSBUEc50CELOm7cMC6tg3VtrW13QVH9nK/HuFD3Ce3eLL4w/fE6fAz9Jb8S+txzz033GbQ1CZ24UT+7rHcCuw62CPPl0mFNBs1k0anwwADKp2OHCUZx3377bRjwJUgMCrOEIkOmupmi9u7G0LCQzDds2BAGo7KB6KabbgoCw7Zt24J1+CgGyCJi7QPp42iqdYg7wLKy//XXX/P/ZtL0twpgGGHUsWPHXsvwWLBTpxwb+Mo6XHvc6UTp0JlV8i0FjOakvSmDMqfMMKAyo4F6DF0ZndE31BmC8x2DFPqZssH/xRdfzI477rjp9pjWx7SPIg1oyTDW5FzUh8XEwn/ZUWacjEaC/pzviKiszfyiM+GBDpUBVJ+ObUpVg6RxXHnlleH/hx56KJwHRR+v4XfqY+oEB/KHVqFIOELNzlIIH9Mpyz8CC/5GbXFchLQPzHKaah3qUDnyYzIxv//+ezg3+fDJMMIYBGZVEM+sqMMIWxqUUFUjOLFV7d///nd4z//5z3/CPTN7SFvV1W4VBIMqYZDJDf1DuoPq6aefLv3A1qeffjq9RAdsM2byoT5C2/70oSHayV//+tfQhl977bXgv4pY+C87qpYtEIKZ6PzrX//KXcx8ohPhAYl5xYoV2RNPPFE4OGrGrobFmcGayn/ooYcGNwQFOmYOSdTYE9Agn3322dDBSwJuIgkrznSdkkEBTYG+GobkjRRPw0w7B0n3HPinYUsFSRoUB88x4PDVO/Kv9PEFQYG9BB0QYSGIIEwAfuNti4NSVEakmfhZdom1DhKY4jIHVPwQz7A1I1eeKUc6MfKh9OOfd8YArAG5KD2iaRjDQHYVmmlRB7FrkB0L+ed9UxaokQXfjEg1NU01N1VoQBh0q6Gphlk6di1VkwPefdr3xFA300mBfpdD9ZotwvQBfAuAOKlnnNGelU0YqP/Uc+IkHLSSaOG4ph0wGaF9qB2wrMpgjjBCXMOoh3WQ76K2O2nQ3nkfZVu0TQE96XKkyOq46YH1Lgf/9xpOCEOW56k/zljeQxpPlZVwUZpitCOCnRLc6zXQGTsr9Dzuej72k6YXeAar6fQe+YDN+RZBDiyzsebnf+7HcQ+CyiyNG0gfaRCpXw78pO7kJ3XDn+B/lWOvQ5vesQJVz8VUhTFM4ndOvaLc9V7kVmQZz7vCH/cHsX5PIc74HZnmUEcoP+pnFWyfpE6VlXNR3xOT1uGiQ2mgnlBHcKNOldV3gX+Fz5m6Rz3T8+ofY1SH68IeFuSnyzpKWSpO8jqsvpGypi4QtmlGZ8KDKn8RvLjY37ijtBoDdOjUWzptztTnYaAwTXsYWGijTQeXfgcN3hGCSlE89HcMSHUCzDAhTgRY4h2VkB1DPF312dpKTb6UR45hQT66ErrmAp0sW/RecFgT1jpxCmo31tZ6Ly53MWYyQN2J6pb6zRc+WbbpCRP53cHgVwaxRYmXh2YT0qGlxRjcUMPHx2yD8TGq+yY2RCw79Kuu7g04YamgKB76O5Zqu4I8ECfLpGzh7GLJi2Vj6mkXsFzJMg3lTR7Xr18f4q+zR2sK204H/dXZ+UQnwsPGjRvz/6pBgNBa7zgjW4Vx6dTN7PHkk0+GTg27HgZRdv6k36XoFxmMyjButmCNHYGAbcTkNwU3rfHDsPLfL6SXQYXPt9eB4MCA2699AANZFYOE3RZsdLDTYu2egVX1Z1QU7UYaFXqnTESFbNCatg/6a4zDZdsQ22rwP4J6/K6IU/45sHlK7Tto84TF/XEQmjsl10CMDFS6bWjrv2sosviwmmt+wxIFKnJUnqi+h11/WY/HnmY2oY6jDlc+U3DrUjVfB++Atlm2TDqXIc9dvYsuy5k8EVeaN9yaLDmxzCFbEMJguSN+jqWQtG5zX3Vbz8d55R7hcE82NvOpzo1c86DdB01p679remU246jaymTmPiy5seOCZQu+EDrs+stXCP/5z3+GWdBsQR1nBl31XQ12RjHzYiY2m2kFPnjGDJU0zze61HT0BOdwnu1yrvvaK/WRZRyWsqjL2hob75BhW/app56aX+2FcFWeaDk+/vjj6bxS11mi/OCDD8K9P//5z2FnFsd8obPvPBhj2rN69epw1hdAxxHWvCVYIEitXLky/D8boJpu85VUM/nU2Vwg2LIkwXZ7fhV36dKlQZhQ2wKWr1Lhga2vfC+DpSCWaGIhiY/qsW2W5Qq2+rJVHwGkiY3NnKE3ezbGjDGoWlGZDmtbWr+QjqJlixiWcehWulKdp0jVbEaPdj90VS+JK14mJl7c6pYKqRMsL1Ani5YVcCvLB27pkoT8406Ys90uZwtrHowZc1C18pni9Kun40DZDgx9vrtLsLpnBjmsr82aamQY25VBb08ImP5oFqBRYJlAyw/UQzQBKYsWLQpnlh/QHlBnY+NG/TAZWgPqD+gDgLjJKFb+VLeXLFkSwsQPccuAdN6QCxHGmDGG2Q2zp3jm1RXMrqT94OB/aRY4041g1In7bBl4Mhsk7qKZpRkdaHm60vSg1eIdc9AWqIuqh0D9KxrSqBP45RnSyv9oDYQMP7knLQbXxIObzrGGgTpOOPH9YX3fZVJYwJ9eQRljxhxmQvyAGmu8XRrqMqPS58cF++FlmBffZ9uettB1Bdvn+NnqV199ddaN9+YbzOLZwnvjjTdmd955Zydr/prhp4ahaBP4dD6Gyym0ne3bt4f/0+eAOoRGIf7kveLBvahe8Qy/ocLnBYb5qfxJwcKDMROG1KlmLy6P2UVGqgym7DqaDUjDHXfckT3++OOuCx1h4cEYY8zEYyGyWyw8GGOMMaYV3m1hjDHGmFZYeDDGGGNMKyw8GGOMMaYVFh6MMcYY0woLD8YYY4xphYUHY4wxxrTCwoMxxhhjWmHhwRhjjDGtsPBgjDHGmFZYeDDGGGNMKyw8GGOMMaYVFh6MMcYY0woLD8YYY4xphYUHY4wxxrTCwoMxxhhjWmHhwRhjjDGtsPBgjDHGmFZYeDDGGGNMKyw8GGOMMaYVFh6MMcYY0woLD8YYY4xphYUHY4wxxrTCwoMxxhhjWmHhwRhjjDGtsPBgjDHGmFZYeDDGGGNMKyw8GGOMMaYVFh6MMcYY0woLD8YYY4xphYUHY4wxxrTCwoMxxhhjWmHhwRhjjDGtsPBgjDHGmFZYeDDGGGNMKyw8GGOMMaYVFh6MMcYY0woLD8YYY4xphYUHY4wxxrTCwoMxxhhjWmHhwRhjjDGtsPBgjDHGmFZYeDDGGGNMKyw8GGOMMaYVFh6MMcYY0woLD8YYY4xphYUHY4wxxrTCwoMxxhhjWmHhwRhjjDEtyLL/D9J3XnXmjQZ/AAAAAElFTkSuQmCC;" vertex="1" parent="1">
          <mxGeometry x="510" y="100" width="407" height="171.45" as="geometry" />
        </mxCell>
        <mxCell id="qXZDPsuC2iJt4Pbkiq8Y-72" value="" style="shape=image;verticalLabelPosition=bottom;labelBackgroundColor=default;verticalAlign=top;aspect=fixed;imageAspect=0;image=data:image/png,iVBORw0KGgoAAAANSUhEUgAAAjkAAADBCAYAAAAttaEwAAAAAXNSR0IArs4c6QAAAARnQU1BAACxjwv8YQUAAAAJcEhZcwAADsMAAA7DAcdvqGQAAETLSURBVHhe7Z1ZqB3Fvv87/7cgOA8gKiIomC3KCYpxIkqc4AgmUSMYUZxifLjikAclghxQ9CHuiPdBPZ4oR1BQY6KgoFFRUaMX5UjEASLIwcgFNXHr4YqP+78+lf7G2pWe1l69hr329wO9enV1dc3Dr6t+Vb1gukNmjDHGGDNm/L/8bIwxxhgzVljIMcYYY8xYYiHHGGOMMWOJhRxjjDHGjCUWcowxxhgzlljIMcYYY8xYYiHHGGOMMWOJhRxjjDHGjCUWcowxxhgzlljIMcYYY8xYMjQhZ8GCBY2OL774In/CGGOMMaY5QxNyli5dmu3atSvj01kcq1atCua6npqaytavXx/MjDHGGGO6ZShCDqMzjz32WHbMMcfkJvtz8MEHZ+vWrct+//333MQYY4wxpjlDEXJOPfXUcNSBoHPWWWflV1n28ssvZ6ecckqYxuL89NNP53ey7Oqrr95vqksHzwH2ucYu/znkHgf8+uuv2X333ZcdeeSRwYz7b731VrhXxrfffpvddttt+9w5//zzg5mQuY4iM03LxWEiDBs3bgzmoiqeildsxjVux2bYI46xWXzgb9EzEJvJPL5On5MZKG1lTpphFhPHn/PHH3+8z1zPcSg8pA/XnJuGWZBHCn9RWsek/uuI41AWRhHf4/joo49C2cIez/JfcSed4rQhHShXejb2l3uYyb+6tOK+4Nk4vVXWi9KyLG/ja/kVm3GIujTnGvMffvghNzHGmB6YHhFWrVo1XRWcycnJ6aVLl07v2rUrXG/evDnYX79+fbgGme3YsSM3mZ7euXPn9KZNm/KrvXbia/zF3ampqXCNexMTE8EfzNauXRvc1P0isI897PAc17gpMMeMI3ZHbitO27ZtmxF+wsn19u3bw7XguTiO2MFMKB04C+xjpvQiPRWWNO11j7RL3cb8iCOOmJFmaTyA+9iTHc6YKUyEh/v4LQgbdpT2CpfcTeOFG/jNIbOmYcYe+aF0lNtx2UiRHT2j/Coqg9wrQmmF/8RLbhBX/FacYnexx7XChh2uySegfPA89uWvwiE34rSSHc5xemOXZxS/srRU+Y7TssjebNIcN3hOeW6MMb0wJ4QcNfJFnT3mNJ6gxl+NaBlxo4q/HAI348YaP+vcpFGmwRZ0PmlcUn+AcMT2cAO3BJ0D9+PwAtdxeFI7RemgeKRuQVXap8+oo4rjwv30+TS+xC0WBkDphJvqKOPOTZ1gWf7injrQGOzUhZk8TgUROuQ4/VOK0jV1t8hOTFFacS2BReAm5qSH0kbpAIQ19leo7KbhkOAakwoTKm9x+ec6LTP4m/qd2msrzY0xphfmxBLyTsMYzscee2w4i+uuuy6cP/jgg3BuAsPgBx10UH61P48//ng4sMfQ+eWXX57fKeenn37KrrjiijB0zzTDXXfdld/pDtzALaYhmGI799xz8zu9wRTB4Ycfnl/NHsK1e/furNN55SYz0RQD5x9//DH8Fy+++GL24IMPzpjCUDr9+9//3peHsZ4W6dEpo9mJJ56Ym/wJaX3YYYeFKc0qysL8xBNPZBdffPGM8Lz//vvZzz//3HiqhDz66quvsptvvjk3mT1pmewIB+H8yy+/hPgrHTS9RViLWLly5b7pWaEpqDitSD/iSp1S/A855JBwr5v6VEQ/09wYY7phTgg54o8//sj/7eWAAw7I/zVHnUYZNNAIN4sXL86OO+647NVXX83vlEMDTcdz++23h1VjnTfa/M5M6OjjBv6mm27K7/wJHdRJJ52Uff/999kbb7yRm84e6QZVxbkJpMs333wzQ0dKnHzyyVnnbTx0mOhT0JnRyaWQLnTW6XHRRRflNppx2mmnhaOOqjDDjh07CsNTpRAP+E3+XXnllWEF4BlnnJHf+RPZ4UB/JtbRakKaXwgl6Mxs2bIl+CkhKOXLL78M4VL6cEawKKMo/rgRQzlVXDgox2X0K82NMWY2zCkhp6jjhKqRmZR33nknCC9l3HrrrUGw2blzZxhJqBOkaNQRiOiU3nvvvcoOm44pbthTYQiFUDpEFFLvvPPOnht+OlbSrFcB57fffgvpVtZxYc4IFHHi/MADDxSO9jz77LP5vz8h/ejARZEwoJEIQUe5du3aMBKUjlqIujAD91Ok6FyFOmrOr7zyShBKiUeM7Gzfvj2EccWKFfmdZsSrCkkfhBWEb0YZy5T2SSfShLTBf+A8OTkZzGOFY1EU39QsFU7LBKx+prkxxsyGOSHknHfeeeH86KOPhrNQR3DmmWeGcx10RHv27Kmc4uAtlWmwumkQwYgLw+1lDX83vPnmm9kFF1zQSCipEtRiqjqcpkjg6wXSh6mJVGB55plnQlxOP/30cM10XwwCwvHHH59f/QmjGYweIRQWTXXUhRlB4KGHHtpPqHr99dfzf/UgbCA8kP+UgyJIf/KUaa1uIBwIivjx2WefBbMqAZqyvXr16vCftIm54YYbQloxIqO0wl3M7r333hkCGvcZiZkNg0hzY4zphpEQcmhYNQRe9CZPp0/DjR29ufMMDTRvqRrx0LNFbtCQb9iwYT9hhM6HQw09DT8jDlyn4SoaNVi4cGE4yx5v3QgrwBsqB27hB3oqcYcie+p4Dj300Ozdd98NfmFP/n333XfhLZyDezwnIUxx/fTTT8MZiuKv0RLcisEf6c/EYYMid7BDGNO4xGBOfLEnO8uWLQudNlMnTO0RF86MwhEXOl3yhnTUfQSezz//fJ/Qp/DgN3nOqAYCxrXXXrsvDZuGWcIJozD4g39MB1UJq6nb+KnRKfIOUjukO34zjVnFPffcsy+POKO/9NRTT4VrjVRKQOSs8kQZwU/KNvFh1IW0UThIT9L3ueeeC9ekldKA9EPwJA0YJeK49NJLg14PyI24zBSlZRpnmG2aI7R6CbkxpjWmh0ynUQ4rM+Kj0+jld2eC3Y4QEux0OswZK5p4JnYDuzHxvbIDWP2BHxy4z+oT/uN+0Uoe0CohwrRjx459K5m0Yib2g6PIjOe0IoVrrYZh9YncVbi0QiVNO8KYmvFckT0Rm3Mo3XguNU/NOFKK7GAGpCUrbDAjHvJLEN+OMLvvvtIPyuIQ5/tLL700w05dmLlH+mJGGqer92JS/3Xgv54rskM8iBNxi/2jbKk8cY07yvs0LNhTPDmTjqSNyoLucY3dsrSS+xyCcMgce5RBSNONe0VpmZr1muakleJhjDG9soCfToMz9vB2iK5N0fQNoy2sokKfxJhBgzJvRzjIbrzxxtzEGGNMG8wpxeNeYGi+TD8Fc+4bY4wxZnyYN0JOneJsr4q1xsyGMl0pY4wxvTNvpquMGTVQvE33SnJ1NMaY9rCQY4wxxpixZN5MVxljjDFmfmEhxxhjjDFjiYUcY4wxxowlFnKMMcYYM5ZYyDHGGGPMWGIhxxhjjDFjiYUcY4wxxowlFnKMMcYYM5ZYyDHGGGPMWGIhxxhjjDFjiYUcY4wxxowlFnKMMcYYM5ZYyDHGNGLjxo3hy+nDAH+H4Xfs7xdffJFdffXV2Q8//BCuzeD49ddfs/vuuy+kv5k9lOH5hoUcY0wldDDnn39+tmfPnuzGG2/MTecfp556anbzzTdnixcvzr799tvc1PQbyt/y5cvD/yeffDKcBQKnBNE28gS/hpG3Tf1FSCGuL7/8cq2wrXTRgZD42Wef5XfnDxZyjDGV3HvvvdlRRx2VPfDAA7lJFhpk3qoXLFiQnXLKKaUNNI0yduLjrbfeyu8On6bxEBdddFH2+OOPZ+ecc07omEz/2bBhw77yd/DBB+emWShHxx57bPbbb79l3333XXbSSSfNumxRThECcGP37t25af/pxl/sXXjhheH/iy++WCts33TTTSFdxAknnJCdfvrp+dU8YtoYY0rYtm3b9BFHHDG9a9eu3GQvS5cund60aVP4Pzk5GewUsWPHjulVq1blV7MHv+Rfm9TFo8xf4tRGvEw1U1NT03RTlMMU8irOm/Xr15eWwyJwG3cnJiZCOSjyox/Mxt+dO3eGdKA+CZ5fu3ZtfrU/qf35ikdyjDGFMFKxevXq7OGHH86OOeaY3HTv6Mf777+frVy5MlzfcMMN2c8//zzQ+f6PP/44O/LII7PbbrstXPMGzzXD+E3pJR6dDjW8TQ8yzvOR77//PpxPPvnkcBakO3l13nnn5SZZ9te//rVR/pHvGj0h/7du3Zq99957YZSuCbjP9I9G8jhT7vrp7wcffJB1BLgwZSoYqXniiSfyK1OGhRxjTCHvvPNO6DQkBIg//vgjnDV1EE8hFPHuu+/um6pCKGljmud///d/s3/961+hkadzodN47rnnshNPPDG3UU+38Yihs1m1alX24IMP5iamH0iHJBayQeZxfh9wwAHh/OOPP4ZzEeiWrVixIvvLX/6S7dy5M0yBdVNmKGtMV05OToZpNMryrbfeGqbMDj300NzW/vTq75tvvpldcMEF+dVeDjrooHCu0s1BsJJOznxVmLeQY4wp5P7778/Wrl3bVeefgjCAMDI9PZ3t2rUrvJHSOQgJP0UHDXMZV1xxRej4li5dGjodOg3eiPWmKz2boqOtFTooITOaQ0diRgfKWT+hvP3tb3/LPvzww6CvRtlDIT8VxAbFL7/8kv+bybZt24LwBQhJ6C8xAjrfsJBjjNkPOu6vvvpqv1GcGL0ZamRm4cKF4Zyixp/zXXfdNUMoQPgpO+pWcuHv119/HYb/U1544YVCNzm4F9M0HilnnHFGOL/22mvhbPpHN6N/6dRWDNNDTBN9/vnnodwwfdSNkCohmjOjh9ddd12jEZle/a3iuOOOy//NBKGfOsRBmWfkEaFsvmEhxxizH4y4QFGHQQOPfsBLL70UrpnWmpiY2NfYM1KiUZj4P8IEw/yXXHJJuJ4t7NdDB8GIEFNUmzZtCp1gtytr6uJRByNcjCS9+uqruYlpG60Gkm6OULksEhQOP/zw/F8x5C+jL0wbkX9MIzGd1O9Vf734u2TJkjDtm0L5bTrSSr1DMJtvDFXIofErGk4uOkwzqPTpMD9KcU3eGugoeJaKp3RXJdQ98yd02ii7kkZ60+QNDbO5PizM8DYNaNkQ/EcffRSEC8rIf//3f4e31CJoWBFssMeSV5Qle91r55NPPsluueWW7Prrrw9vq3RqvB0ff/zxuY3mNI1HGeeee27oOLoZaTDN0aha2n5JyJEwDrMRUik/X375ZfbYY4+FfGxSdwkL9Zyp3Ndffz2Y1Skdx8zGX4ScVKn62WefzdasWRP+0xbRPus+5zRM2Gc0Z94xPWRYTsdSzHSZJmYEb/v27bmJqYO0ZBllDOnK8sM6sNPp1MKSxjjNWTqMG+RFmkfzHZZnki4cmzdvDmakH9ec5zLEgTo4KlD2hlH+6vzlHmnlpbr9g/RleX+K0p57Wj7eaz7Qhpa1l2oLqRfYo87jJ/73uvy8yl+Bv/inMLCEnOdAbZHKKmfski6yz3WTvmDcWMBPJ3GGikYI4jc8hrlR6huB4M0ZkNxZdRCnIxuc8cZQBW8mbG62aNGi7JVXXikc/mQ0hzcOhlvNTCi/rHRAGVYwusM8/FyEUYlDDjkkLJMelfwuaiMGQZ2/1LnTTjst63R4M/LftIcUxVNdKlCbR/0788wza5V/lZ9VMEUm3ZsY/KKtXLZsWWgjqSeMHh199NHZWWedldsqphd/Y2iHUaxGiRidMLXVjOSgaCw3CBtTfFqFltqfT4yMTk6VspigoGgapegQ2KNzT+8XFTQKR2ovPuJ9N3ieYUXM6cQ0hMoZPQHuUbhYJosdwqAhSCqI3MQ8BTdSd3FL0x96rm7+lukA7Mrfn376KVxXrSjBD4ZCH3roodJKwPAqO2Y2TS/8Jy4yj5cOp/nIdWqm8CrdiLvscU/2uA+YK89JL/JDEBbiyHOkrcKla+C+3EwP3KuCXUVpYAVhQiFxNhBW7f2SQriVhv1E+g/k96iAkDFoAQea+qtVLLMlLtPpoTolO5TVtM5wT1CGVBeatBmjTtX0Ex06+aPVdv0Ev/BHbSRnrusEnDaRMjHnuK0m7phLSOKe0qbI/ryCkZxhw3BaOszI8FpR8Bgi1JAcpMN2DBvyHMN0mGkYT9MJKdzXUGM65KfhScA9uYk50xEM/8kPhZehS6Z7cJP7mGEfGCrkmiONL8/FfgP+ETeexx92t8SO4lqEhiXlvtKjaLgXcFthakKT9JKbMpe9OAzkB2Zxvih9iHcM5sRL4C72lK6Ko+Ks++SD8oc0Ic9wm2vZIX2BsCld07IX30vhXjwELLdng8pM2ZAyYa/a4bQtlF+zjcd8QmmVltnZoDqBm4KyEOcD+R/fT/2mDFHO1WZwL3VzrkH84/pvTDeMhJBDAVaHJdKORlBZ40qPvbgCcC+u1JybVnLZTRt3Ghp1hoIOFLvqpOVv3BnKvbgRIqx0ZHFnxTN0lqnf2Intyc8mcWmKwhinYVOq0gvzuLOm4Y390LNpXIrcg9hMaS3IA9JUkJ6pO/id6snIHQltArux+4OgSd5KmEvrStuU5asphrSaTf1JKasTMdyL76f5RD2Iy4fqQhPhGHfilw7ArbTedIPqUtVRl3bcb0OINPOTkZiuYj+OtoYateTw9ttvD1MrbYAGP2HU0DDH2WefHe6x70FMPCTIcGGn0dk3JSLYq4CdWhW+Tz/9NLvsssvC/xg2neLAHtMvl19+eX5ntGF4uVO2wpmhcobSe126WDUdwJAx03JM5TC0z4qXIvjIX4y2hO805OE8LAg3edtpyPcNNwPTZExNCIW/bPOvJjB9wbRXL8T1YD4dowC7+Zbt48M0KdPO6F8ozOhWQbwKqQjKGdOuqV4R7TKqBPG0fTdU7Veko0jXRuAvS6c7QlpuYkx3DF3IoQOfmJjIr3qHTqLzphP+U9lRCmyDzttEYQWtU8xMt+KGq666Kpw7b+bhjABQNO9M54dww9JbNnzqx34cajCL9mDoBRpcOtQtW7aEzpv0K4L8adKRaAvzMmgMWUaMPskbb7yRm1bTdKlpv0HIpXNiSbRAMMas8xadm5RDHRqEro4oqgfz4RgFEMjrym1R2KsWH2jfIbVl6PrEgjAKqywCGTSE48orr8zefvvtvuvbmPFl6EIOHT3bo7cJ3xBhJ1Q6Vgk8vUIlL+pIpOBbRtF3VKiwvJlMTk6GxqWsI+ObKAg2O3fuDG9Y+jZLm9BgImSmezD0Au4gvNB4MhIVj06kkD9xY1wEaVylmE5jiLIue57ceeedjRvEQQoGVWgkKe68lBdxvLVSQoIp4SfuCPPpZmll0NnN1VVfo4hGaQclMDPaUkdRm1TWTlGG2IX6jjvuyE327pEUjxqno6gqd+kIdRFVCtU6YqXpGBRm6R8uvPDCRn4ZU8RQhRzeQOnotT16U6o6PCrgtddeG/4/8sgj4dwrmtaIv7kDdQIO8WOUpkiIY/UNU2BsalYWfwQr7PVbK/6pp54KZ6b4yjp+zOMVS1WoM0ajvw3YxKpqBYM+XtdtR8MIClx88cXhPErw9gqxwEZdQSAlnjT6THs2WZVo+oc+8jmIlWgIvnzgsQxNj1Mu4npMO/TNN9/kVzORcKz6xXO0O2w+J3jRUt1i+vmZZ57J7rnnnn1xr6LX6SraEF7w/vnPf+YmxnTH0IQcKuyll14aOtiiTlwjIFr+yBmhgn0JtG03FRJBgUOVmgqOYMF273QQegNo8iYgP9M3Fyo4Iy98cZgpGN5imMN+9NFH9+t8MScsHNhnlEadPWGQHzxHh4X+CPFX+OiwBQ0WHTxu0VBpyBi7s50jL4Kw8MZEuhEe0lrpyZlr0vWGG24IZqIsvTS1FOcdeYR9wk1cFF+5ARq9iN9WsZ8KgbovNxi5Y7qNa8KrtMEeeSVIP90jDIz6IDjEggTPK0xKg37DSAworKQXejfS5yIclCvS8Pnnnw92KJOMklUJf7NFX1PudVm02QvtFvpVZSMWQuVZ5xjKK+0Je7QIzEDCOlAmqMdM3fJSwkE7W/YNMuW16gUvcoyA85V3oEwyKq6pVNoy6k3RNHy/oP4XpclcgHCT7xzKLzNgOpL0wNGqlqYH2vUc/GcVErDCoMgeZ60kSP2pWi1SFKYYrYBi9QL30PbHTOh5zPV8bCcNL/AMK5DSe8QDWE2DfxysemClA/+5H/vdFoSDMCuOHKysIJypf1XphV3lBWfCrbQjTumzXKdmPCc3qg7CrNVvXOMP/hNuzLTCC7e4lpuEBT9TYrc5iuz0g7hsUX6Jg/JfZvFqtRjukw5tgpuklammaNl3ilbOUf7K7KVlPS53PBPfKzrivCJMqg+Yl5UbodWJqhOqPzzPueh53G27zJVB2e93WaSNou3DH851adYU0lJtqhkOQxVyqioghS62N+oorKY9yHcaYBqKFMoNDXDThha35kI5mg2Uu7Y7HNLKDXM9CKekf1EZTaGNmE3nSd6WCRv4Sx0ZdNnGv0EJOcS9n/HTyyPCCHFCqOIa8zYg38e17ZkLDG26qlNww1xsmR4FUwgonnUKSG5i5hudhiHMxxdNZ1JupEtk2ocPa6KMPowhdqYtmSbRdGcRhAs78aHpzkGCvsrExESt3hxTjkyflrV3dVDWi57FX+oIdWWQxNPM/Ybpt16/XF8FX6FnOpHVZeg1sfM7ZV9fp+8VphP7GX5TzdCEHL6+2gQEHc0bjzLSpfG8a3uke3ak0OhXrdwSdDDo7NAwD0rPZhDQqUuXAmXvNjt5KduXKaz2C4SVa665JvxH9yPeJygGnaXJycn8ai+DbicoS3TAfEqlCvQy0CVct25dbtIdlPE64aiurrQFgifLy4k3+dR0McJsUZnup4I9gury5cvzq72CI0IjX7tvCunCCk90byjDMdRR7d8m0NOSfQ7VY0G8Kfvck56nmSX5iM5AQdegG7q1P2hIxvhgeNKMBgw/p/kzqGH2fsMQeHq0CXodDOEPCqZeyB9NyyjviqYNuNd2fLuFdikO73yAvCDtdfQ77oNIY9xP22zKVtPpWuwypYbulXS0FF7OXMfIjLiRhtQx6ZECYcFv7uMm/3HXzA4rkRhjClFj20TfpA1o8NMOgWvMUzCjYyGMHP3ubIugYyIMpn+Qt2mZaBvcx58YBJcm/vJcXAYQTOI6g3CSlhGVcwnv2NV/7vG8rinXXBfVAdOMoW8GaIwZTbTsmF2rRw2mpvT5DnRdWDJdt29VmzAtzadZOm/huYkZNzqCTv6vHPYL2r17d5hWQq+HZf7scSUdLf6nn+Nh+pGpVraO0HSftrFgCwC4++67w3YlK1asqN1Q1VSzAEkn/2+MMTNAv4CGvPNGWatc2yvoIbBTdtwksSNu5y22tpFHbwHdl6qN5doEfQr0ggbl33wFwZXvBE5NTfWt/CGgQJyX6B0hRFd9tofyhnC9efPmoDPFp3fSMCL4oPNTtJ8Vz7MZLPpGEm6wv2bNmiBgIcjHe3iZ2eGRHGNMKSj+L1q0aL/dvvuBFIc1IkMnAHQegHKnFFH5nyr5D0rxmPChKNrWjuqmHG2U2U8FeAQKNgpVeeOMYnU8koMglK720+dVjj766CCEI+DEZZTyySotPseDOcrD3JOSMYIRO9rHH09FyDnssMOCewg42E/9NV3CSI4xxpSBzoD0X/oNSpgoPEvXgX1oBHoSCgP/ZY9n0FsYhF4OfuDvMHSA5ivkNUc/wX3KEGe6xVTRF7Oi8q+yp/LIWfo0nHkuLse4gRn25Cd6PEKK1tzjOdy0Pk5veLrKGFMLb6F8MJb9Phjd6Se8uXY6iDCMHw/zY37UUUeFt1zeknm7xx6fETnzzDP7PrTPGz46Elu3bq1d0m3ag7xevHhxmMZhGX6/pq3IX77HVTTtxLQpU7ZF+a7niqaXCDv34ucwY6oTivzSfUaKXM56x0KOMaYxCDv96mRGnfkc92FDx4+iNwLFoPWgUA5GCbitDw6bwWIhxxhjjCnBwu3cxkKOMcYYY8YSr64yxhhjzFhiIccYY4wxY4mFHGOMMcaMJRZyjDHGGDOWWMgxxhhjzFhiIccYY4wxY4mFHGOMMcaMJRZyjDHGGDOWWMgxxhhjzFhiIccYY4wxY4mFHGOMMcaMJRZyjDHGGDOWWMgxZszZuHFj9vTTT+dXgwV/h+V3U+IwfvHFF9nVV1+d/fDDD+HaGDO3sZBjzJjy66+/Zueff362Z8+e7MYbb8xNTRWnnnpqdvPNN2eLFy/Ovv3229zUDJu33norCJ8cL7/8cm46ez7++ONwDJpu/EXgbiOu8x0LOcaMKffee2921FFHZQ888EBushca2VNOOSVbsGBB6DQQhopgdAM78TFKIxz9isdFF12UPf7449k555xT6qYZHIxErl69OrvjjjuCAHrbbbcFs24hzykLlJlnn302O/zww/M7/aVbfylzxO+0007Lfvvtt9zUzBYLOcaMIbz58hb4yCOP5CZ7ocG9/PLLs+effz6bmpoKZghDZWzatCmbnp7edxxzzDH5neHS73hcccUV2QUXXJDdeuutuYkZBOrgEQgYyeD6rrvuyp577rnsrLPOCgIo+YxZUwEUd+67774wOofQ8MYbbwQh9sQTT8xt9IfZ+Eu5pswtWbIkW7p0aW5qesFCjjFjBo0/b74PP/zwfp35//zP/2SLFi0K0zIHH3xweDt+4okn8ruDgVGXI488cl8nputuGEQ81q9fn7344oshnGYwLF++PHv11VeDQEDefvPNN8H85JNPDmdYtmxZOH///ffhXATlCiEfYen2228PAsNPP/2U3XnnnY0FdUZfKJuatuTMKFLVdFOv/mLnySefDAIdo7CmdyzkGDNmvPPOO9nPP/+crVy5Mjf5E94o48bzgAMOyP8Vc88994TpHYSQ2UwRpCAwMH22Zs2aEM4NGzbsu+6GQcSDTnbVqlXZgw8+mJuYfsLo49dff5298sor+wQCCTlFAkKVztQhhxwSBNStW7dm7733XhgB6gYElYMOOij8n5ycDH4xKoOQEwtcKb36Cwjtpj0s5BgzZtx///3Z2rVre24sEZJ27twZpnfefvvtMEVARwRFei7xUQaCA8P1f/3rX4N7119/fbiW3hBCUJF7OmYzqlIVjzrQAaHTshJy/9myZUuYJmxabqv0VRBM3n333XBuqugbw2gRYSH/P/jgg+AOIywaOSyjV39N+1jIMWaMoDP+6quvCkdxBPfF77//nh1xxBH51UxozNWga1Rj165d4ZrVWrGOS3rUoTf01G/8KXJPB/dFG/Go44wzzgjn1157LZxN/0CYUHo34fTTT8//7Q/TQ0wTUQ8effTRMH3E6ExTPR6VF0ZtKGeM4Misil79Ne1jIceYMYKOAsqG1M8777zQaOstk9Ue8VRRPFoS/+fMiEZVx1IHDT1TRTT6xx57bNBX+PTTT8OoSredwKDiQcdGONETMf0lFlqF8kn5Bwi0cOihh4ZzFUwXvfDCC0HH5/PPP89OOumkMO3UdGQOYRzh+ccff8xNmtGrv6Y9hirk1A15x4dpBpWIdI2hUymrXCjWFaU3B/oLvMHEDcy4QmdJnGmIgE6XPWZ4E2PFw1zhzTffDI1ymZIjU0Pbtm0LK5OIL6xbty6cU5jyuvDCC4O9a665JjwXj6R0C4qiTBUxzUAn8NBDD2UXX3xx9v777zd6S44ZZDzOPffcEEa/jQ8e8onyzKokgUDLaFwTRV6BXaZEmbZEaL3llltCu1gFwjf5jvDMVBrUPZMyG39jqqbkTEOmh8zU1NR0p8BOb9q0KTfZC2YEb/v27bmJqYO0XL9+fX61F9K1U8Hyq2J27doV0jouDrjV6QymOw3MvMgH0klpQHqRJor75ORkbmv0IbzUnVGBdE3r9qhRF0aVjR07duQmph90hIDCfKDtoS5yf2JiIpypn71CG1cE+UwdUltKO6h6VdeWNqHMX0Ea4Dd+Em/aH8JgZscCfjqJOVQ08hDvysoIA8PKIxC8OQMjLp999tmMdGQk4ssvv8yvymHUgreWNL0ZAWKotdO4NHJnrkO5481Le1mQpqwCYq591GGkgdUdLH2WIu+wKarbo0ZdGCkDbMy2efPmoIxq+gN1D5jmSaFsMxK4cOHCfXWzCrlVBUrFRaufGLn9448/ZvhDO4jfdaNHvfgrikbOm8bbFICQM2yQXNORAo3kxOiNquwQ2EPiT+8XvSXEoxhFR6dhy23udVdv97xNSKrnjLTNPaT0tWvXBjuEQfHi7UBuYp6CG6m7uIVELz95rkqij/2Qv3q27u2+KL2F3BS61hG/4aZ5FPtLmIgf5oQrzQ/yQmnHwf/4zUlh1MHzpJHM4zJEvqkMcC7K+xTlXQzPNXmDJ5yEAzdS0nj0C+V/k7ia5rSVrmn5jQ+1M/jBNXb5z6FyzCFU3jCjLs2l0cYyiANxagPyrO5oYzQopcif9OiHv6ac4l5twFCRyfwYVeAUGoO4scEejYA6Fw0tIhxghrtcx8JKDPclOMiu3Kcw6j/uyU3M6awl1PCcwktFpbPFTQkYKtQ0TFxzpPHludhvwD/ixvP4IwFAcS2CcOCv3Fd61DWCZemN35jjpsB/wkUaFIVF8YwFBqWHwqX4Ku3xh/vKpziNYwFBaSAz0kuNY+w2zyrdcZNnSM8ysMtzcXwIm8JXBWEhnGV2MY/LaL8g/sQzLkOmd5SuVeWnKSqLKqtA+YnzrKiNi+sa9ilPckNuzvV8J/zE1Zg2GQkhh4KtDkmUdbpU7LQBiCsG9+JGRA1U3KiUIbtpY6FGJQZBBrvqlOVv3JHJvbhxJKx0iLEAwDPq9GO/sRPbk59N4tItRelNvGlcMU878DTdU9K4pEIAbmNH6Uca4VeM7MRpoHQW8T2gHHE/HtUB7GGOm22Cf8QtLTMxClMTgakXysqv6R3Staq8N0V5VFeH4zxM6xplOS1LeiGoA3dV5wTlM6173aA6WXfUgTtpfTamV0ZiCTlLB7vRlK9CSw7ZUrutVTEsyyWMrM7QcfbZZ4d7LA+MiVeJaGVAurKJb6+wBb3CxzLayy67LPyPYUUBB/ZYestKkn4TxxFdHPR0Oo1P5RxyHcwxswNvvEMt88ud8rdPx4FdZVnFEoOdTuNbul0/uhTXXXddfrWXTuMfzixRjpE9LbFui7vvvjusQov1OViRhi6UUNnudCbhPBtY6UGe9LLBWJy3PvY/RgXqu3bbLYL6wKq0OOzUU+pYVZvHysHvvvtuP70iyidbDnS7ckhQ9qnLdUcV6Nx0XvRC3TGmTYYu5FApJyYm8qveQbDovCWF/3R0KAy2QedNqrDi1il48pG/lKuuuiqc1SHTQBUplVHxEW74wNtxxx03kL064rjt3LkzKLHedNNNQTE5XUKLYrgaWTr1dOl6t+zZsyf/9ydl32/BT7bq/7//+7/cZCYoDsbUbfs/Gyi7pMHf/va33GQvdBZ8g6cOhN8iJcN+Eeetj/2PUeGXX36pVTKljSuKQ9nLIu0I5U3tFXWVOi3YhI+yPAyoRyjMs71AL1sUGFPE0IUcOnq0zduETaL4BgqCiQSeXqEBSDt5qHuzLtpEioZo7dq14c2FhofRiiL4Gi2CDcIGb1/96KiroKGlUUTQQRB75pln8jt7keDHCAWdOsJQ1Xb56YgWxPa1C24Ko2EpU1NTYQSFN9oid3fv3p3/m0nVG3K30BlB3CERFt6o4zyVICO/KTMIhbxZs28L8ah6AwdG0khrPtxnBovKV53g0Ras5uOlpgrspJS1RbRbCBB8xFSwn1I8Mpzux0KZZVSF1UJ1bRwCk152qo4yaA+pz7SHgxT6zfxgqEIODTsFu5utvKHqA2lU6GuvvTb8f+SRR8K5V9hdFfiYYExd5Sd+CAdFQhzTJ0yBsTlUWfwRrLDX7UZps6FqR8/DDjss/1cMjRQCDxRNydBgI6jQaMaCIp3Hf/7zn/AfoY+0Shs5wlX08UbS5Kmnngr/SUOhvGJL9RjtknrmmWeGc79Q+OMRKL0hy+9PPvkke/7558NS2Q8//DCYaVTPjB4aFTzhhBPCuZ9QPxjRrKrz1BU2UkyF+9dffz3/NxN9rVsCMn5QJpcsWRKugZcpCXGUYab7qa/YqZsmb2O6ivgiiMWb/hnTCp3CNxRQvEOZN1UQFSjCETwp2HHGLgq6Uh5FYRc3OKTwi+Ja/JxWHqTKdkXwDHbxI0Xu4hcKcijKxsqAUr7DnLBw8Eys0Ee442vcwj5wj+djN1EkxD5uoRyIXcWlSXyagtu4yxGDueJFWLgGpbvCyrXCpvzkP88KuaP0I415nmeB+Cu+8oc4xv6C8kFmula6Q5xOgF3cLcrXXsBd/CEM+E0clC7ymzN24rRI4Zk6RdQmKDxtx3O+Q97U5SFpTz5yqGwWofKg8hGjepSWBbkb1xXc4MA+4aoqQyoX8pNn4jLK89Qz3AX8URz4j9uDgHDE7d8oQhoRRo6qfDajw1CEHAqzKmmTQ4WK/2rA1fCk9jjT6UDqD9dlFIUphsqO3zQG3Is7VdDz6mBTO2l4gWeoNOk94gEIXfjHQYNEpeI/92O/e0FpVnbQwBGPuEIX2UOIQMDBnhpyzNRwAvFV+kkwiFEDIjexE/ubhhX3cENucojYL+JQ1Km0AXmE+/ij+HLEZmWCPBAu0rct8FPlx7SDynOZEAGqm+Q7Za+IovIbE98rOwRhoWxhhp9VZQyIA+HjUL3R82k9jcFuVbzbRC8+bUB+UK9wj3NZ/LqFdMM90tHMDYYq5FAAywofhTS2N+oorMY0BQGpTQEHqCtugNuFzpe63eTFAoFgtgI1+VYmrGA+6HylfHIMCspuG229BE7qFvnByxLX8QtTL9DWz4U+yexlaDo5nbeHoJNQpsyHngdzvZ0ClZsYMz7o439a7VKneNyUSy65pHYp8aAhriinVimVcg878TEqcUBfZWJiopFuHLouy5Yty6+6A32UMsVyzAepr6IFASi8Vy0maBvKb6+89NJLQZmfusVqLfSXqBOYtwFbfrQRTjMYhibkPPbYY/m/ahB0mnxSf9iwWgFGqXMxowkK6+wL1HkbDJ07S847b8z53d6Q4nXZSrVBw+qcf/zjH2H1Dl8CL+sw+eaa6pAoWw49SFDSRRhl5WAV1Hvyce3atbNeKFD3XaxBfTeLMrl69eqQb+Qf/weBFPR7BaE03sKB/KCuofDfBPKcvCTuRavLuKf92ERsH4Xt9BnSlNWU3OccL8AwfSYf0Rko3Q6BDnLIdDaQjPHBcKYxZUhXID7aLOPoaLQ9DTYb0ikW6gVhK4J7o1hvyBfqdFs6HXMBpnWY5omPQdBW21nkDnWsyXQfcaeMMsVFvFP9G8oB7scwPSm9KJ5BxymesiQsuEFZUp2Y7ZSm6R4rkRgzZqhRbaJD0k8IB52LoANIOwiBXToWznQAbelP9AphotMy/QdBgfzvlTIhp6zsxWAvXp2oFxJB2UzLA35hpvpG2dV/yjx1UeUZIYnrQQmOZkQ+62CMaY+VK1eG85YtW8J5LsDeV3xGBJi2YJfvYU/94j+fUOh0dLmJ6SdMtfLZiX7REVbyf8Ww7xBlj+kuppXYwJA9i+L91t5+++399g2ivrEvFuWXaSumWTVlKT0qPv/CBqArVqwIZt7ZeYDkwo4xZozg7XLYozmEoelITkpbb/W9wChOHH7TX5jOaaPMkmdpvjHSUjeFyygN5ZNyWjbSQvjqVsDFU1Fc4y/ujcro5HzDIznGjCEo7C9atGi/XboHCd+O481YSpa8KXc6m/Af4hVU/E9p8xMc3YLiKG/lbe2abuphJRdlFqXhXkbxGLGh3GlHaM4oj2MuGKlJleAPPPDAcGaHdkZaKLeUS5VfwsQqLT6vw7NSUNaqQVbA8a3C+KPNrPJix3jcY4QHu4NcrWY65MKOMWbM4I2YN9hhjYjIf96qNbIUvwXT/OiNmf+yxznWcRg06E0wkjSflI1HBfJcyr5loylNoAzhBmfKVqroi1laL1ReyXs9j36OyiEjMTyHHentxP7o2bjcSHE9vt9LvEz3LOCnkwnGmDGEt00+9Mq+HozuDBr852OSLCFH5yLeF4u3ZD6wyhsub9u85WKPESC+5zbbpdi9QDjQm9i6devAPshp+gN5yXfHGJlJyxL6Nh1hpDCPNTJT9ByjObgZPyd/oEjXhmf4mO/ChQtdpoaAhRxj5gEIG8MQGuYaTqfxZ+PGjUEJmOkxM/5YyDHGGDNvsCA7v7CQY4wxxpixxKurjDHGGDOWWMgxxhhjzFhiIccYY4wxY4mFHGOMMcaMJRZyjDHGGDOWWMgxxhhjzFhiIccYY4wxY4mFHGOMMcaMJRZyjDHGGDOWWMgxxhhjzFhiIccYY4wxY4mFHGOMMcaMJRZyjDFzho0bN2ZPP/10fjVY8HcYfsf+fvHFF9nVV1+d/fDDD+HaDBa+YH7fffeFPGgT8tX0Bws5xpiRh87l/PPPz/bs2ZPdeOONuen849RTT81uvvnmbPHixdm3336bm5pBQBlcvnx5+P/kk0+Gs0BIQRB9+eWXawVQCa06EJo+++yz/O7sIGzDKA/EtanATfiGEUYLOcaYkefee+/NjjrqqOyBBx7ITfZCJ3HkkUdmCxYsCKM8ZXA/PuhYRg06SOJSx0UXXZQ9/vjj2TnnnBM6NzMYNmzYsK8MHnzwwblpFsrShRdeGP6/+OKLtQLoTTfdlH333Xf5VZadcMIJ2emnn55fdQfCFf6fdNJJ2e7du3PT/vPWW2+F0axLL700N6mGekoY//jjj9xkgEwbY8wIs23btukjjjhieteuXbnJXrZv3z49MTERzDmws3nz5vzuTNpo6jZt2hSOttmxY8f02rVrw1EUzjJ/V61aFQ7Tf6ampkLeUBZjdu7cGczJQ0GZJC/LSO13C2EhHPizdOnS/cLUL6hjlEPqGfFrEgfShzLKc73Ge7Z4JMcYM7IwUrF69ers4Ycfzo455pjcdC/PPvtseCvGnIPRHt6kBwXD9Keccko4NF3A/9tuuy230YxDDz00jMx0+9z69etDfK3P0X++//77cD755JPDWXzwwQdZp9MP04iCMvnEE0/kV+1B+dKozfvvv59t3bo1e++998LIXhMYfWG0UFB+GWGpm276+OOPQ9lkhAr+9a9/hfIax7kKpvaGOcVsIccYM7K888472c8//5ytXLkyN/mTX375JTvooIPyq2zG/yI0rYVuTxu6Ad9880324Ycfhv+ffvppNjk5GTqeM844I5g1JRXemkIn03lLzh588MHcxPQL6cykefXmm29mF1xwQX61F5XDKuGB8iednCY6LZTZFStWZH/5y1+ynTt3himzE088Mb9bD/58+eWX2ZVXXhmEHfy/++67w72y8ieh/dFHHw3176effgrCSjfllTDGU3vDwEKOMWZkuf/++7O1a9f23FDu2rUrNNJTU1PhbZwOQ6BbkOrs6KhaRcMbNOHizf3OO+/MHnroodCo662VjqXITR1tgBIyozltCG2mXRDCi9i2bVv222+/hf8ISccee2wYLekn6PxQRqlLjAIxIjTsEZZBYSHHGDOS0HF/9dVXhaM4IlbgpONg6qcIvX0ilDD0jrvihRdeQBGm8OBeHZ988kl2+OGH7yeI0YEUuamjDTRq9Nprr4Wz6S/dKHofd9xx+b+ZIBxTNjgoX4zGMdVaBdNSjBJ+/vnnYboKIaUbwVZTSyhIM/KHgFP34oDAzujPHXfckW3ZsiWMhDYdeRolLOQYY0YS9B0g1YMQdA5///vfQ6NL57Np06Z9AhGNsUZh+I9ggx0O9Al4thd482bYnxVd6Mbwdkw4Yp2HblGn1U1HSke1dOnS7NVXX81NTD/Q6ifp5oglS5Zk7777bn71J+jp1AkR4pJLLgnlpw6EDqapmK4izxmNZBqLcthPzjrrrFBn0MUBdHOoT3NFF2yoQk7dcG58mGbQUJKuMTS8TaR+GmkabeZhle5Uol4abjN4yEPyTo0fec9bWNsbmPUbhvLpLMp0AK644orwBsxwP2+3TBsVKWEiJKE/c8ghh4QD0n1OugX3UIimk+MtGX0cwnHggQfmNppDZ0F+oS8BhLGbvDr33HNDJ9mNcGS6Y+HCheGctqPkPzpjcYePQvyaNWvCf9pU2mPd55wKB9jvRuhGeKKcM8ry2GOPhbynftdNedEeIKRRp9Aho7w06RcE9ZDRJ6Z9eZlgRIi+YuRHdqaHDMvhOhm83xJJzAgey0RNM0jLzltlfrUX0pVlfHVomS5LA2P7WqbLUkXcN6OP6g75CeQh13OtPhFe4jIqUJfSdmoQ1PnLPdJqGMtz5xOkcUeYza/+hDJKXSMf+E97qbaSPOE55R9n7NJOyz7XTdroKvCvzA3CQLjVN9DG055z3au/2r6hDMKF/yqjxJfrqmfaZgE/Hc+HikYeYiUo3mRQqBuB4M0ZeENgFUCcjkjaSPxV8Nxpp50WlNIYlkxBUmeIctGiRdkrr7zSeBjWDBfe7njrEtQzRjUYfh51eMtkRIOpoHQDwGFR1E4Ngjp/VX83b94cRrdMf9DoWpGeFqMkKLczmoeelNpI2k4UjZnuYsSPcs1oilZrpfbLUBmoQn6kaERXo5wK03nnnVe5Qkv26rj44otLR1vL3CgLaz8YGZ2csnn3GDJa0yhFh8BePOWio6igkAmpvfiIp2p4vmgZKmemCLhHIWa+EjuEQUOINERyE/MU3EjdxS0UzOQnz9XNvzJkj135SyfHddXw9zXXXBPOd911VzinUICZFmBYFAW0OC5yO82b2D/CovyI41DkTmrGUWZWR/oMR5X/HDGEJ74Xl5+4jHFOh4pxm7zkPvlHPpKfuhe7ywGEC7s8J3hGZQt73KsblgbKUKrMyBB1k3qG+5ThIvBf8egn0n1gN9hRASFj0AIONPVXK3ZmS1qH40PlQWWXMo99jrieqF6q7YqfH0S56SdVAoGUiTnHAoumeNShc4//ytPUfj/ADwk4oDBVxact5Fd6DErACTCSM2wYykqHWhnWKgoeO5pq6A/S4UGmXXiOoTgNlXFdthMq93lG/7Er9xlS03/ck5uYM9zHMKP8UHgZFmRKADe5j5mG5hga5JojjS/PxX4D/hE3nscfhhmxo7gWoeFPua/0KBpmBYWJZ6pQ2hBv0HOEUWhaJI4D/vOM4oB97Ch8coe4CeylU2RF/tUhd0gTIAzKpzRPytyl3HA/Lj/YjeOUukk6xHnAmeui+Cjecge347DwDNfc5+A/z6nMFoF/cR4A+Y+fdajcltnF/ziv+oXKWxoPsz9Kq7jczBaVyzjdVe4EdlSnALs8o/KPfcqt6ozKf/zMXIR4zvU4zEdGQsih4KiCCMyoOClpA469uOCpwmEP1ADougrZjd0HKjWdZYw6dFVk+UsFF3IvbiAIKxU+7dSLhBzsxPbkZ5O4NEVhjNOwCNnjEGl4ZScOH3GN85a4YieOV+oOpPkKRfbqSN2R0BeHscrdNE7qBOI4SRCSYEBZSYXKImEp9pdwkb8xCmtcpviP+6Rr2zQpXwpTWl/bRunebX7PV0irujrclCbpHt/nP88IyngqcKl9Ux0pgzJYJKzppWI2qCzVHVXlHkjfNgRJM1hGYrqKPSvK5vS6RUv9br/99jAV1QYsZSWMGnrlOPvss8M99i2IiYceGZLrdEb7pp8E0whs+63wMY1w2WWXhf8x6MdwYI8pi8svvzy/MzrE+5Sk8WTompUHzDsr3bS6RcuDBwnpyIqAToNZuodFHQp3XF7Rg+jUpTD8S5wpKwznxyxbtiyciz47QLiYBkx1Zf7xj39kHYFmRpniP1OS6YqOXmEqgfLVacRnDCVrqk3wgUIo2+isCZqC7aV+xnVxPh2jQtXUGGWcehaHW1Ph//73v8O5CKZraRvXrVuXm/zJf/3Xf816Z2fKM/Wz7qiaQkFtgaXinZez3MTMFYYu5NDQ0ZC3BQW1I5GH/3SuKOS1QUeKL6wYdUqR6ZbfcNVVV4Vz5604nNF1KZoflT4GSr90yv3YC0NLI4s63yIQEARposYMXY1U4BNF6ZYqQ0uXSEdZeGJ7TfVTcAv7lAe+1MvOtOk8+GzcreI///lP/m8vZfPu+Eu4EBqKdBZixWFR9/mC2YCgjeB0/fXX5yZ7hVbM4jwvgnAjcKVCbj8pKlPz4RgV6srgpk2bCsMf64bEUN9Ykq+FDZQn6qLqBO1jP74H1QT0jlje//bbb7f2Mm4Gx9CFHDp6tiZvE3Y9/frrr0MnLIGnV+goizqhus7wxx9/zP/9CRWFN4LJycnQMZR1IrfeemsQbHbu3BlGCw444ID8TnvQeEjIrBoZ0GoA3qhEvFMsO3KS3kUUpVFqljaKZW7JHmkCjKjVjQhIQJ2amgpCBc/QcMV0625Rhx4rhaebhol0R1783bx5cyhfqaIwIGQUlTuQgNoGu3btCudY2FZ5iJWVVQ7kN0qn7FGDsHvOOefMUDgvgxcDhDd3GO2gslj0otQPqLt1Cuzs/ZIiYbgIyj6HXgYoZ7SLuv7999/DWTCygjIz5S2tyykSmOqOsrChKEs/xW7BgxTkTTsMVcihE6Gj7/aDdlUVjIp07bXXhv+PPPJIOPcKS+1gw4YN4SzqBBzixyhNkRB33XXXhWmNW265pTT+dHzYKxsFaIvnn38+nMuGg0nTe+65JzQ63SxR1XQdjVfcUZMubKbWCzTopA00nTohHfl+C7DRXBF17mo6NJ7CARrd448/fl+cGS2K46z/RZ8oIE1JW95U4zIlQY+prBimChBM+92p8eYKsTBCfU39RjBE4EUgp8y6Ixgsf/zxRzgPaiUaAkzVNgSUW9q9WOiHZ555pnSaGPua0gX8iKfn+XRGPOKPgEM95ZMDvLhUlbk2pqsYgaKe/vOf/8xNzFxhaEIOUvOll16aPfXUU4WduEZAVFE40wHwVWK+EwN0HAgKHOpE6FCpMM8991xonFX4mzS88jOdb6ZBZ+QFIUBLJ+nk+DprWtkxJywc2Kfz0hAtYZAfPEelZbdS4q/wxZ0vnSWVHbcQDOhAALtt7kJM5eZNBfdpPBQW/CXdCaP2yKlCz+ltH9ApIj9422fqjYN8V2evZ2LdHvxl/pu04j/IniA9SBvSqOx7RTxL2YhRuqmT7tZd0opGnLTSWyR5zlSd3KTsMQKDUEwYOPiflgVQvKkHQMOuN0oafZ5BwJQZZwQo2W8LpsxAb8XkO0Ie6UBYiQPxJD0lFAPCTVx/sd+G8KW073VZtPkTyiu6UFUvZyqXTF8WQf1JX8pUhvUs5Za2jf1TVEc4M8VV9sKGfe3RRdlD90ujqpR5dHpoO8RHH30U2lDKLXWEctdviHfaXswVSFPyQFsBzCs6EuzA2ZRr4zc9Op1KOPivVStFGvOyo5U7qT9cl1EUphhWteB3pzKFe2jZx6te9Dzmej62k4YXeKZTkfe7RzyAlSz4x8GKBVYX8J/7sd9tgfuEudPg7AtLpwEJ4ahDaZ/GAQi73MScOENRvIvytciMg3zmXhlFzxAO5UuVu4SRQ/nJWas7eFbm5IfKZAyrRBRn2SkrCxwQl0GV1dgvDvKjKs69EJdv0gC/VQZlpryLwYw8Lrs/W/AzLkemGNKetKorF5QdymRZmqZtYGqP6/h+0aEwUFcoD5hRflSey+A51RfVT5V7zIvaIMKD2+mqxH5BfPpdHkkH+RO3Gb1CfpD/uD3fGKqQQ0aWNYpkSmxv1FFYjZlv0BhTR9VBtQVu0omZakh/0r5phzjbjo78QKAq8od2vJ8CeBH4JSG8TeG6DOLXz75IWziQxvzHP462IOx1wuY4MjQhp2nmYbefBastLOSY+QgNsqDzow601dGpTmkEbZDoJausUxfYiY8mo55tQ1vKaEcTiM9s8yfO6yIQNAYh5OAPaS2I/yD8pSzG/rYN8YhfEiT0tDVShTA4iHQaNYamk8PXU5uAZnuZzsUoIV0adDqMmS+wtBadC/QmpCDdVn2Vwn+vSurdQlzYtgF9IHSvli9fvk83LAWl1xjtIzQoCBc6b2k4ikCfBn2pKgXbKuoWHfTidjewsm9ycjJs9cABs933qinSiWvyWZTZoHzsCDq5yV69TWha/ul70FuS7k2sP8R/9ATj/MFP2edA5y7VOUKXp+kqtpElF3YGSrdvO8N4O+oGkjE++intGzNK8GbI2yejrZzbflNkhKLNKbAm8EatUQtGcXgDLmuDhtSE7oNwEYZBTNeMGpS1QcW73+lMXHA/rT+YNZleZLSHckrfgxuU4fg5ynM6IyLdH+zr+Th+3MMd7vH8XC1nQxnJKdsQqoxu7Q+aTjrOOBh9MmY+wJsh+96wyopz22/yrKr5+9//XjqS0g94o9YKMVYDsaHnrnwfoSIYIeEtt25LiX7A6Blv/22saJtrUNYGFW/l/zDSuW6LDOoGqzLZwoG+R6Na8So4toNYsmRJfrUX3NXoG6NGrFhT/CjPrG5l/zPuHXjggWEFG8dcY+ibARpjTBnaaiDdK2hUWL9+fZjW4qCjiZc59xumJ9hbiTCY8eWSSy7J/xXDtipMRbGlCdN3bNdBWYz35EIQT4UcXkrYFoRtUZiOiwU4tq1gd3imqdh2gO1QEJTKtgAYaaaNMWaEYQieofSmq4d6hWYxnjZg2L7JFLSmNAaFphtM/5EScD/LIO7H5UyK/HXqGpQDppUos0XTSZiVhR2zdCpK9jHHzUHVu37hkRxjzEjDEDybUaY7jveLiYmJ8HYs2JhSCqe88aKMqf9SSBWDGs5naoy387Z2dTfVaLPMfirBd4SVoFCtqVnKIOVJ004oBTOykioHH3bYYeGs6TtG+GIlYX0UlVEYygxo01rMpFAue/pky9FHHx3cxA5lPi3rc4Zc2DHGmJGFt0neVgeh1M+bMyNH7D+jt2SB/xo90QgT9jj4X/fW3Qa8aaOQXfTWbvoH+d7PkTO2LSBfOShzlKd4RJH/dNmxGVAOsMszhI//UpwHjTByT+WTa/zBTOd4xAZlf9yJ7w9jK4c2WMAPwo4xxowyvHny0Vp0FPqt3M9bK58n4Q2eN2npImCOQiaLIQgPb/Z6u2fJe78VU3mLX7FiRbZ169a++2VmwggJWwusWbMmW7duXd/0UzRikirxY85HQvm4bQplUR8FTp8Dyg0jNPF36OQP5kVliWf4LhpbQszlj+layDHGzCk0zD4fmc9xHwWk7I0AwIrCQcJUFcrCFm67w0KOMcYYM+JYwJ0dFnKMMcYYM5Z4dZUxxhhjxhILOcYYY4wZSyzkGGOMMWYssZBjjDHGmLHEQo4xxhhjxhILOcYYY4wZSyzkGGOMMWYssZBjjDHGmLHEQo4xxhhjxhILOcYYY4wZSyzkGGOMMWYssZBjjDHGmLHEQo4xxhhjxhILOcYYY4wZSyzkGGOMMWYssZBjjDHGmLHEQo4xxhhjxhILOcYYY4wZSyzkGGOMMWYssZBjjDHGmLHEQo4xxhhjxhILOcYYY4wZSyzkGGOMMWYssZBjjDHGmLHEQo4xxhhjxhILOcYYY4wZSyzkGGOMMWYMybL/D5glanZ6cEclAAAAAElFTkSuQmCC;" vertex="1" parent="1">
          <mxGeometry x="525.5" y="970" width="429" height="145.51" as="geometry" />
        </mxCell>
        <mxCell id="qXZDPsuC2iJt4Pbkiq8Y-73" value="" style="shape=image;verticalLabelPosition=bottom;labelBackgroundColor=default;verticalAlign=top;aspect=fixed;imageAspect=0;image=data:image/png,iVBORw0KGgoAAAANSUhEUgAAAq8AAAEkCAYAAAAB/tgbAAAAAXNSR0IArs4c6QAAAARnQU1BAACxjwv8YQUAAAAJcEhZcwAADsMAAA7DAcdvqGQAAGFHSURBVHhe7b0NsFXVef+/6K+ZhDH1BQWajFBqKx2EYqRaRHSAAcVMkkFQsQVHI/I6TYygmcHBjP/M4MC0AsY0A6JodKoNiCBTbRRlhFF5CYwUi9pi61ixSQHlJY1jMunk/s9n3f1c1l137/Nyzzn3nH3u9zOzzz577bXXXnvtt+9+1rPW6tNWwAkhhBBCCJEDfi+ZCyGEEEII0fRIvAohhBBCiNwg8SqEEEIIIXKDxKsQQgghhMgNEq9CCCGEECI3SLwKIYQQQojcIPEqhBBCCCFyg8SrEEIIIYTIDRKvQgghhBAiN0i8CiGEEEKI3CDxKoQQQgghcoPEqxBCCCGEyA0Sr0IIIYQQIjdIvAohhBBCiNwg8SqEEEIIIXKDxKsQQgghhMgNEq9CCCGEECI3SLwKIYQQQojcIPEqhBBCCCFyg8RrhfTp06es6a233kq2EEIIIYQQtULitULGjRvnDh8+7Nra2vw0ffp0H27LJ06ccEuWLPFhQgghhBCitki8VgDW1Iceesidf/75SUhXzj77bHf33Xe7Tz/9NAkRQgghhBC1QuK1AkaOHOmnUiBgx4wZkyw59+yzz7oRI0Z4dwLmjz32WLLGuZtuuqmLy4FNbAfEZ5m4/Gey9Jjg5MmT7t5773UDBgzwYax/+eWX/bos3nvvPbdgwYKOdMaPH+/DDAu3KS3M3CPCPJGHVatW+XCj2HHacYVhLJN2GEY8jjEMCyf2m7YNhGEWHi7H21kYWNlaOGVGWEh4/Mx37drVEW7bMVl+KB+WmZebZ4NzZPlPK+uQeP82hceQlUcjXMf0xhtv+GuLeGzLfzt2yiksG8qB68q2DffLOsJsf6XKivUG24blbdd6Wllmndtw2fYVhjEZpcqcZcI/+uijJEQIIUTdaBNVMX369LZixbhy5cq2cePGtR0+fNgvb9y40cdfsmSJXwYLO3DgQBLS1nbo0KG2devWJUvtccJl9ku6J06c8MukN3z4cL8fwubPn+/TtPVpEJ94xGE7lknTIJwwpjAdS9uOaevWrZ3yTz5Z3rlzp1822C48RuIQZlg5MDeIT5iVF+VpeYnL3tZRdnHahPfv379TmcXHAawnnsVhTpjlifywnn0b5I04VvaWL0s3Pi7SYN9MFlZunonH+bBytLTDayPG4tg2dr7SrkHWpWFlxf45LkuDY2XfdkxhusRj2fJGHJY5T8D1wfbEt/1aPiyNsKwsDvOwvInLNnZ8WWVp13dYlmnxulPmpMF2ds6FEELUD4nXKokFVIi9vNNEHOG8FMFe6vZyzCJ8WbJfJoM0w5cw+yyVJi9bXsQGoiI+lng/QD7CeKRBWgYvfdaH+QWWw/zEcdLKwY4jTguKlX28jQmQ8FhYH28fHy/HFoo8sHIiTRNAoWgxcZN1fknPhFEIcUrlmXMcC0yEVlj+MWnlGqebFickraxYNiFqkCbhlIeVjZUDkNdwv4Zdu3E+7IMkJBaJdr2F1z/L8TXDfuN9x/FqVeZCCCHqh9wG6kjhhefngwYN8nPjlltu8fPXXnvNz8uB6sizzjorWerK6tWr/UQ8qjCnTJmSrMnm6NGj7vrrr/dVqFT3Llq0KFlTGaRBWlQH4+pw5ZVXJmuqg6ra8847L1nqPuTr448/dgVRkoR0xqp6mR85csT/NzZs2ODuv//+TlXJVk4ffPBBxzkM/aApj8K95S688MIk5DSU9bnnnutdS4qRlec1a9a4a665plN+duzY4Y4dO1Z2lTXn6O2333azZ89OQrpPfE0WRJ+fHz9+3B+/lYO5GZDXNKZNm9bhJmOYK0BYVpQfx8o9Zcd/zjnn+HWV3E9p1LPMhRBC1A6J1x7gs88+S/61c8YZZyT/ysfEQBa8eBGto0aNcoMHD3ZbtmxJ1mTDixdBcccdd/heFNatW5es6QwCLnxx33777cma0yA8hg4d6j788EP34osvJqHdx3xvix1zOVAu7777bicfZGPYsGGuf//+Xgjhr4hIQbzEUC6IsHi6+uqrkxjlcfHFF/upFMXyDAcOHEjNT7GGhMC+OX833HCD7xHjsssuS9acxuIw4Z8a+kCXQ3y+EJv4pG7atMnv08RtzMGDB32+rHyYIxizSDt+0gjhOrVjYeI6zqJeZS6EEKL2SLz2AGmCCIpZUmO2bdvmRWkW8+bN84L10KFD3vJXSiDzskboIja2b99eVIghOMIXdixyaUiD0KEhz8KFC6t+oSOYKLNqheupU6d8uWUJEsKxGHNMzJcuXZpqnX3yySeTf6eh/BBmRprIM8uhgQCaP3++t9zGVkajVJ6B9THWQKwYJsCYP/fcc/5jg+MIsTg7d+70eZw6dWqypjzCXjYoH0QoH1XUCmQ1dqScKBPKhv0D85UrV/rwsKGWkXa8cVj80ZElnOtZ5kIIIWqPxGsdueqqq/z8wQcf9HPDXvCjR4/281IgMD755JOiVc1YlXBHKFUdbWAhpdoz64VeCS+99JKbMGFCWWKzmAAPKSYkysWEfDVQPlQRx0L08ccf98dy6aWX+mXcLkIQfkOGDEmWToP1EWsvYj+tyrlUnhF4y5Yt6yKWX3jhheRfaRCRiELOP9dBGpQ/5xT3gkogH3wAsI99+/b5sGIfRlzbM2fO9P8pm5DbbrvNlxUWVCsr0iXsnnvu6SS8WY/ltDv0RJkLIYSoHRKvVcAL06oi0yxviDleyMQxSxvb8OLFqmQWSts2LQ1e0A888EAXkYmoYLIXOC90LIQsx/lKs/L17dvXzy0eVjJEKGBRYiIt9oEfaCgULJ4Jin79+rlXX33V74t4tr/333/fW82YWMd2Jq7tWPfu3evnkHb8Zt0krRD2Y/6pYd4gLR3ikMf4WEII53iJZ3EmTpzoxRhV2LhYcCzMsZpzLIgpzg3laOsRsvv37+8Q85Yf9s05xwqJcLz55ps7yrDcPJvoxGrKftgf1fLFPkLitNmnWZM5dxDHodzZN+4kxVi8eHHHOWKOf/Ajjzzil61mwYQ/c7ueuEbYJ9c2x4OVlLKxfFCelO9TTz3llykrKwPKjw8KygCrLtO1117r/WbB0givmbSyjI8ZulvmfIyoqywhhOgh2kS3KLxsfUvlcCq8zJK1nSFuQVz6OAUh1KmFP9uEaRA3JFyXNQGtodkHE+nTGpv/pJ/Wsh2s1Tx5OnDgQEfLfmtBHu6DKS2M7ayFNsvWOpzW2Jau5ctabMdlRx7jMLZLi2eE4UxWbmwXh8dhTDFpcQgDypIW54RxHLYvg+MtfKR0rLfyg6xjCM/7M8880ylOqTyzjvIljDKOe7MIifdvE/u37dLicBwcE8cW7o9ry64nlknHzn2cF+LZcTKnHCkbuxZsHcvEzSorS5/JIB8WTjyuQYjLjXVpZRmHVVvmlJUdhxBCiPrSh5/CA1k0KVhz8GVNq0bHOkqvAvhrCtHT0AiqIPrcrFmzkhAhhBCi/shtoMmhijTL/5Nw1gshhBBC9BYkXpucUg2Oqm2QJER3yPJFFkIIIeqN3AaEEBVBg6W4r189RoQQQvQUEq9CCCGEECI3yG1ACCGEEELkBolXIYQQQgiRGyRehRBCCCFEbpB4FUIIIYQQuUHiVQghhBBC5AaJVyGEEEIIkRskXoUQQgghRG6QeBVCCCGEELlB4lUIIYQQQuQGjbAlhBCi5fjd737nfvvb3yZLQjQ/n/vc59zv/Z5siuUg8SqEEKLl+M1vfuN+/etfJ0tCND9f+MIX3Oc///lkSRRDEl8IIYQQQuQGWV6FEEK0HLK85o8nnnjCHThwIFnqyve//333B3/wB27nzp1u48aNSWhX5s2b5/7sz/7M/dd//Zf7wQ9+kIR25dprr3XXXHNNstQZtt2+fbvPj+035N///d/dT37yE3fq1Cl38cUXu8mTJ7s//MM/TNae5n/+53/c+vXrfXp/9Ed/5PdJ3tKQ5bV8ZHkVQjQtq1atco899liy1NpwnI041nC/b731lrvpppvcRx995JdFz/K///u/XmwtWrQoCeldIBQReIjPcNqzZ48766yzOgTkL37xC/fxxx93iQfENXHIxwvLt9xyS6d4iM2f/vSnqSKSc4BY/da3vuW++MUvdqQbgni+7rrr3JgxY3za27Ztc9dff70XqiEIVsKBdE6ePOm3+5d/+RcfJrqPxKsQoungIT9+/Hj3ySefuFmzZiWhot6MHDnSzZ49240aNcq99957SajoCRBNf/M3f+P/I556K9zviEqbeAYcP37cTZkyJYnRDgI/jIe4RZDOnTs3idEOy1/5ylc6xcVqe9lll3mhHGLn4Oyzz3ZPP/20F57ED62uxPnud7/rFi9e7K22pP23f/u3Po9YWEP4EPmTP/kT953vfMenc99997k//dM/dd/73veSGKK7SLwKIZqOe+65xw0cONAtXbo0CWm3EPbp06fTNGLEiGSt8xbDeP29996brHVd1jG9/PLLydp2sDyyTWx9REwTzjYDBgzosh1Cz/ZPnppN+FF25Jv8Yc0uxtVXX+1Wr17txo4d649b9Ayco/POO88LnVAsYc0zayxzrHnVQHrPPvtsstRzlLPf+NgBoYngQyQaXJuIwpA33njDz6m+N7785S93Wgaq+//jP/7DzZ8/Pwk5DeLyxIkTXkDH+TD+9V//1QvVyy+/PAlx3l0AMbxmzZokpP14EdOx6L7hhhv8/smH6D4Sr0KIpgJhyEtuxYoVSUg7L730kjt06JDDTZ9p3bp1nYTY22+/7V88tn769OkdLyhEKf9tHfHGjRvnhZrBfu+//3539913ewvK+eefn6xx7vHHH/cWILbbsmWLt7iEAnXOnDn+JUnat99+u3+5Ngu7du1yK1eudG+++aY7fPiwW7ZsWUkRgcVpwoQJqVWmovZgzUP4IGxCEEBxtfOMGTN8eKVQVY1Fl2u1J6lkv7El1ATgt7/97SSkHcRiLC5//OMfu7/6q7/q5HdKnNgP9cUXX3T9+vVzV1xxRRLSDmKSffHhnCVcYe/evX6OJTXkL/7iL/zcROn777/v5+EHNlx44YV+fvDgQT8X3UPiVQjRNPBynjlzplu+fHkn8QgISnvwE+/JJ5/sJD55GVDdB4hV4loaVIdjTTQ2bdrklixZkiy1x2e/Dz/8cEcaIQg+fNtYh58bwve1117z6xCxO3bscNOmTfPLt912mzt27JhPs1qw5mIxJS2O2ZYrgXJCUFMWTLycN2zYkKzNhvIhXi2OQxTn5z//uZ9fcMEFfm7wwYbQsmpnrK9Y/QgvB0Tx1q1b3Te+8Y2O++Wf/umfOgRxvajVfq0annuuGPigYs2MrZwxiGE+EmLXAkDUwp//+Z/7vFPWTPwPybJ8x88r/HLTOPfcc5N/ohokXoUQTQMNHxB+JgSziMVnDBbUtGpBSBO+CFssjQg7BCJTaFklT2eccUay5LxLg/HZZ5/5uYneNPHbHRCNuE3woqVcHnjggY7lSkDs4A9ohP+LgeDHek1ZivpiVrjYSsh5nzRpUrLUbkn86le/WrRFPmD9w8WAlu3vvvuue+SRR7z1PbY2ZoFAw1pK638Da30pX9xq9xuCAObjifu4mCUU0lwL0khzLTDYFx8KuA5YQy1qUPhwCMtBNAcSr0KIpoEXBy+rYgIQX1ReiKH4DKH6P7S6xiACY+GLwIMFCxb4dWw/depUH1Ytab664ZQF4pF8fO1rX/MWoFtvvdUvmx8w4jYtPZtqYTGl8RYv9Wbz4e0tUEWddh3Tgj4LRCYt2vHBxJqI+IpFcTEQjVTBc39RA4KQRZAiIL/5zW8msbpS7X5jzLcUIVwMcy0oljeD40L8p+WLfeFHa2IbSzeWYuJTDt1x1RD1Q+JVCNEUIJDwWy1ldaXaDzGXxcKFC73FMA2E79q1a/0LNgZrDILRLI7kJeTIkSPJv/b/sQXTGnhh2YW+ffv6OY0/zNc2bSoFFizo37+/nxvkMy09m1hvmP8d0C8lFqZysHJ6/vnn/VzUF4RjOdjHVhr4WCK4cHWhyrtS0YVI5f5CwGHNRLhyHeDnHfukhlS73xjSYb+xb2mMuRZk9ddqmGsB7j9Z0GAuxvzXuW9E8yDxKoRoCsyHdNiwYX6ehonPLIGL1XX48OGdhFsIwhcrSmzZxaKJK4EJT6yNpGNgDX700Uf9evNxHT16tF/HvhCWzzzzjF+mqpdtSbO7sB8ao2HNGjRokPexxQrH8VkeywUhTplRdmxLQ7dSHwgG5cS+aaQm6oc16jHf11IgErNA7GE9pMr+V7/6lbceIkArad1u1fTmslBOtX8t9muwTVaPACH1cC0ohQn42PfVXD9MbH/pS1/y8zieLccNuURlSLx2g1LVgOEkygNBQLmG8OLOqq60bonCiTAjXsfUKg1P6P+URjtWNggaji8uv7xBIxREYFZ1P2SJTwOra5YvbDHhSw8DV155pTvnnHN8WVK2mzdvTta2W4GA9bgTYFkK84kvHaKQbX/4wx922rY7fPjhh976hbWH6lv2j2UJ0VypTy0iAl9eRPDQoUN9460sl4s0KBf2W6loFuXDyEoQCx1EqvlpGnTOX8wCalA1jqsJ22PBxHeZBlRYIMux8BKH/GQ9g7Oodr9gPQLQeKoYtXQtIK9p7hhWo2I1LcSD//7v//ZzY9++fZ0+KqzxndWcGCxzbHTjJbqPxGs3oBqQLnOwaPDCCqvqrLqSG5VlURpeijjEh53RI8SwaGVZr6gqotsfg/9WfQSUvQ0fyFc55yvLGpcnKKt33nnHNyDCygH2xY8oybPAwIJCo6li4O8ZXicxlEXWeUZsHj16NFX8EUbadh+HPRsA6wljHfuIxR9xCWc9Q0pWY3UFjoG07Fhpbc2y+btWCqKe7Tl+/leCvYQR1KI+mBiNW6gjyhBdJmqZY4EvJdZisJxSs/D3f//3fnu62yoGIhP/c6rYsYCyX7q8qtQVoNL9AvvgI5V3aSlrKh91WFPLdS0o1oUdH4sI4bB3AY6b51LYBZe5U7BvE+PmkhB2LUd83j0cS3j+SI99lTo2URyJ127CyyytxaJRqmsPcRpeinEXMQizUgIgtHylWetse76UK7VWNSscBwIkbG1swsQ+nPKIie5qRZ+oPZdeeqmfV2qBE5WB1S7uRQBrO+GIPgQPopWq+FJiLQtEMg2pGD0qC9JnlCniUcWOUGOoVPKW1tCpHMrZr2E1ZDT+KgZCEMEY9wGbRixA0+BY+Tgkn4h2K2+eq/wPQYwD61nHiFsYsuLzwscn58/icR7pLaTSLsNEVyReq6SYf55Rbmtj4uEHE69Pqw6mKiOOF05UuRtsb6PrUOVsLyHm+NWxDvFAS2vikAc6NoewRXOajw5pxOmSFqMR2T7ZjqrtYmA1JK7tF4HGcugKUAtIM5wgdkHgmCkLyz9T2HVSfD4tj5Qly2HH+aRF2RBOepRLbB0lXcsDccLts2CbsOEBaVIV1R2Rbuc+za2C6yi8luqFWfXij5jeBC+6YlblelHufqttsBI+S+KJ6z6MwzOD+4wpvD/tGrVnjIVz/cb3Vd7IcgXgQx7Rh1XvZz/7WVkNkxBKxSasqlkgtH70ox915Id900MHrgDFqHa/BrUOzz33XGZ5GDzviFeOoYjrqJwBNxCVlDGuR1beiNnYSkre6LfW0sXNIc0vmO04f6wnHs/SUuUoykPitUrCvh+z4MVAFXboYsDXHI06qM4GxB0Cjq9NwuwLnO3SXixWvUFaFtfSpwrdXjQ84GlpzMhEVs1O1QkPevqn3L17t6+CZgQhxBBpIhy5ERHIPEjYFmh9HQsca4XMtmY140HHQ4URfTiWq666yj9ws14u7IPywN/RyvOpp57y83AIvlpAfij3sOypUjKrJWVEfihf+v608uTYreskO5/AnO0pF8qJaqLBgwf7dQhxGjw89NBDPp1XXnnF+1xyjq0sEKGky8OSOOyThzwPxSy4Vs4888yOhzbnifNnfpmVQD7IDx1nc9wxNEpi1B8T7qL3EvZY0B24vuz+437jercJaxTXoj1viGOi2mq47N60a/aSSy7x2/L8QxSUI06amWK+3oglrHrlVDXzAUhZlJqyiPfD/3IsvdXu18A6Ws7+LF/llAnxyrUaW7rlpF1uPDt/3bVci65IvFaBjX5SDmnVoTygzVJmwpKHemg9y6pG5SGe1eiChyAPfQQHIpKqENIkHIGDWKVFNGnYi+G2227zYog0EVmArw6QBxOX4ShFWWKUYTQRrOyP/ZqFsJjPHAIQ0UyegHzwYirXP88sMOF08cUXJ2tPQ35MvFo5h8dhLxBEs1XtEEb8sOskOy82p1qKsqV8bDuGQ6ShjB0Tc9bT+IXyB77KsbRaHLaldffixYv9chqUTXjuyR/lFF435YIIoMP9LF9KO3Z10t17sWuzFh8wdv/F2DMKuKfSXLLs3uTeoRGZ3Wfkz0YNK5VHqpr5OIyhqhyfzu5Ay3hq4EpNpVrd08CplLWxHEz8lZpqTaP2K3onEq9VgJixB2q1mF/ZHXfc0dG6sVroeog8hoLOqjb279/v50YofHgZIFTjFwEvCASt5Q8H/K9//ev+fwgCjYl4CLNSQ/bVgtCKY1PsP5YFxxG/LEPRjFX11Vdf7eTIH8J6LJdhGRJG2ceuFhMnTvRzXrRAeWKVDs8R4pYPjFpdB1lg3WVfK1asSELa3QTIQ7hvxEY1wsV6QzCXkO4Qlo+m+k3NQjEXBe4dWrCH+TZB+sEHH/h5GghXfDepBo7hIw4/z+6AIKMFeampmHDj2UJLd3NBEkIUR+K1m/ByT7MgdBcEo4kturRJsxp2h7h6zqZSrZbTWn3feOONfm4iDuGTZhnGkoloHTVqlK9Cb+Y+IhFWWRZs4GXCuUC4WxcpIawrdq5++ctfJv/aSbOOct7TzlGtPoyywOqLm0O4H6zuXNfl7LsWlrhySSsfTbWfmoVSQ9jGvbzYlHUv04KdxjK4NJl1E2uoWVsJw1WoO32SVgsfjAhqPiZVrSxEeUi8dhMEHEMn1hJcEOgGCcFZrtWwFFgp0qr3S1nBwtGEDAQNYgfRg3ChejsN/JoQrPiuUbVXjl9wI+ClkSZIQ3Bn4Dg4HvrIjMuS80SZYPkhvZgsV4nQ3cRcCEKqsVKWC5bh+Pg5BqxQIVxDYX6xKtMIDX/qcjAXEPXAkU/sIyXtQ7UecO0jLItB90sx3Jtcm2ng4sXQn2b9NJFKGKT1P0qctHs6plq3AZ6RiHFcvaxLJSFEcSReuwFWVwRcKeETwwMsCx68N998s/8fVuNWA36ngLUhpJQw4viwqqaJc/xXET34c2YdP2KHeGlWxmaBY6AKv5w88tLmeKjKx8UghsZWuFnQ4tmq2831Aj/YUPDaf+soH+FLnNiK+cILLyT/eg7ywDGGLf6tlwjLLxZ14hW7lkVrQcNO6KmeIBCmxT50+Ljn+WTXpkGjRWssGcNHZui+RENVnl/W0OY///M//RyLL0IWH9if/OQnXQYISKMWbgO4c+E+RBsFIURpJF4rhC97uhJhCLw04WMWS3uwMkcsYl2zcZMRMIgnJhMzVEvzQKaVPRZOEzOxqEnD9hn7iSG6EEf4h1nXM1jLHnzwwS4vB+vCiYn4WFWtCo482D7YjmplGkxw/JY/LBsGoo0XEGkh5sy/k7jlWDLKxYQipJWThSE4rZyZU+4xln/SZKI8bHuWzdIzZMgQP7d1lAvnCx9fhB8fIJYvziVhfDxY2fI/LFsstsTBqss+OUecK17Q9YbzyEcY+SVvfJBwvZhA51qfOXOmz4vlF19gLEWVfriVwiy71XbHJBoHLjZ0eVXs49juv/DZF5JWG2K9HNg9x0cn1y5ij31yzzBHeGZ9jOIW8OMf/9gLU6yb+MbS8wHLuBR873vf89c+1fYIWqrx6Re0J+G+l+VViDJpE2Wzbt06nMLKngovfT/xvyASfBoHDhxIjce88PD0ceL9sJxFWp5CCg9ov++CoPTrlixZ4sMM255w2z6ME+cX2ObQoUNd1nEcsHXrVr8/po0bN7YdPnzY/2d9uO9qsDJL2z/E65iy8huGMRGPfFIOVm6Fl2Xbzp07ffy4zC2dME+kAWzDtoSRFuciLgPiFgStjxPup95wDsP9ct7Imx0HYVnXHuFhedcC9lnrNEX1cA9zbuyazoJriWsm6xzG9x9TSHj/ZE2WB54pPC8J475Ku05//etftxUEsp/+7d/+rW3WrFltX/rSl/ycdP75n//ZL5PnH/zgBx1xbdqzZ4+PG4fXayp8GPbo/pp5ouw5N0ycu7Q4rThxzYry6MNP4QEgyoAvfPpiLTxkfYOnNB8wrFj4w1o8G5auWbFj0mUgKoHrBmt1La9vrGf06kCXaaJ5wFWEGoLCh01Zbja4z1ATUSmcf56Zae48WF2pGaDPZOu6qxS/+c1vXEEMJEuVg4/qww8/7GsnegJck6id66n91QIavGG1ZqQrRuKiBjGts/7ugBUeazmDAfQWvvCFL7jPf/7zyZIohtwGKoQqX17YWY0XqELG8X7dunVJiBCiHOiuDBcKc7voKXDtQYyHU+hPGa9jsoZB5DVtfdoxIMBYdzKqLrc0eFnH64B9sT728ewpaKw4fPjpfpGLwTEgXrsDwhWXlLT98LzFVasnMV/fngJ3nWJj7zcbiPu//uu/9oIVn95vfvOb3hCS1TCtO1gXkkLESLxWCF/+5YCALXcAg0YS+noKUQquE8QUPsD4LfK/VteONTDkRdiT4Mcb+tqGLdk5tnjACJbt3iavYXzSwXIWdjWGIMWqSL/L8cuY8qNLObbDN5yeHkIBi2iliycgn+X28FAryAu++IiSUiBcEZnlWkZjbNCBLKpJu1KwNNPv609/+lP/v96+qCb4rPeDPMCQp/gnm6WV88d9QXgtoLGceigRWchtoAKwfGT1I5hGpfF7mrhTcqzFiG4hsuCafvTRR5OlduiVolbXOY1WEHCl+iGuJeF9ilhj/9u3b/fLiFf6/zTRhNhEZFr+WOaFbWIVsUk/zXF69CiR9iKmy7Fvf/vb/sVPXBru0dCP7Vk+55xzfFdtCDf2RZ/CjMYXiuN6QtnQMMrykCeqcRuIrYdf/vKXSw4BWg07d+70HwgIv1qMstUTfOMb3/BDR4dj9SP0oRzXBxrLcb9wP3GPffWrX+20HT2axOXBSH8MsU18oJFdOOiEuRqYGwPW+jz1nSu3gfKR5bUCKn1B1+qFXi/4bgknCVdRCq5p3GbCqZbXOS8/Xk4It54izP+mTZt812cGIjG09tETBy9Mg3UmJMkzVtg4PYbfxZcR8ckUEg70QXU5g4PYUNHWR7Ctt3zYi7snIP+4SuVNuFYL3VqFUz2FK/ziF7/w87wIV0AgfvGLX0yWToO1uhQIV3rt4ZpHoDKxnX002DwsD8KWL1/uBSo1HnRnFsKzA2stgvVnP/uZDyunqzORTyRehRBNg/Uni2jqabCyxuIzhC6gEHFZVk/6GQ2FL+CWQyM0qvsRvpMmTfINoPIA5cHwxfExCVGMctzlsLhi0cdqy8cY/dtiKbW+cA8ePOgtsSFYJcG6TmN7s7piucan/Pvf/75f5l5FXOfJh1hUhsSrEKJpwBKDdQW/0p60vgJCjSr8LGjtHlaRhiD0cA1IE74cj1mpafxkVavNDmKbRlS1tKyLdIqN9NWsIFJ/9atfJUunGT16dPIvG+41BoHANYDeCrjvn3766WRtu8U0Fp5YYf/xH//Rffe73/U9M4R+yBs3bvRi9S//8i/9fYplFmuuhtttXSRehRBNBe4rF110UZeR4eoJ4hN3BbppSgPfT1rcZ1Wf8zJGpKZRbOAF0gyHB8ZKa6OXmQXLOv23TvqzRpGqJeyT6tlajfYnimMiy0b6ygNYPuOhrblG8csuhrkEYG21Bo98FIauGbgQ4P8e85WvfMULW8Q+otcgPn7opEfXWlhk8+SCISpH4lUI0XTwYnv99dd99WJPYOIzrZsmoKV/VvW5CV9zeQi58847vaUVVwGOhSFKw0YphGOxZU4XU4h2a9iFewL7xJLEtszZNiuPtcL6VEUk9FTDsN4O4pVq8rDnimaHa5nuvaiyB/o3xwWALu8MPsT4CAqh8RuY5ZQRzvBftXRCiyrhWKNZZy4BEN8D9HqAqwEQn33SuEu0LuptQAjRlOA2MG/ePP8yrHdjQsQh4jNNGCJO9+zZk9mVE42wPv3008xufdieFzvQVVbc3RPb79u3z/dSwEs4zgNWXxpxIQTq3XUQwnXq1Klu8+bNuW+kVe0gBT0NIo5rDFcNrvd6NxKrBYhEPqgQrVy7fGyZ3ypwzSJAsdKGIEap/mc7fF3pI9buL8Qn3cOx7kc/+pG3thKfjzxcAwChH1pXEbzf+ta3/HpqLPJUhiHqbaB8JF6FEE0NIrbe1kbRTiuVdd7EKyBg8Y1GjJXT3VQzYz0KIHDle1oeEq/lI/EqhBCi5cijeG0lqLanH2P5npaPxGv5SLwKIYRoOSReRd6QeC0fNdgSQgghhBC5QeJVCCGEEELkBolXIYQQQgiRGyRehRBCCCFEbpB4FUIIIYQQuUHiVQghhBBC5AaJVyGEEEIIkRskXoUQQgghRG6QeBVCCCGEELlB4lUIIYQQQuQGiVchhBBCCJEb+rQVSP4LIYQQLcHvfvc799vf/jZZEqL5+dznPud+7/dkUywHiVchhBBCCJEbJPGFEKIXsmrVKvfYY48lS60Nx9lbjrUc4vJ466233E033eQ++uijJESI5kbiVQghehEnT55048ePd5988ombNWtWEip6MyNHjnSzZ892o0aNcu+9914SKkTzIvEqhBC9iHvuuccNHDjQLV26NAlx3urWp0+fTtO9996brHVd1jG9/PLLfh1Wu7T1sRWPeKQZW/gQ04SzzYABAzrSNXbt2uVGjBjh17Mt8ZsFrJfhMTORV6NYuda73BChtn/yVEqUXn311W716tVu7NixTVXGQqQh8SqEEL0EBM6zzz7rVqxYkYS08/bbb7sTJ044mkAwTZ8+3c2fP9+vQzzx39YRb9y4cV7swL59+9zGjRs71h84cMAtWbLEnX/++X49sN/777/f3X333W79+vWd1j3++OPeCky6W7Zscddcc02H0EKsTZkyxT399NN+PSC+m4WXXnrJHTp0qOPY161b590xjGLlWs9ygzlz5rjJkyf7tG+//XYvSktx/fXXuwkTJrh58+YlIUI0KYULWwghRItTEDlt/fv3bysIrCQknYKIaiuIqGSpK2y/devWZKkrBYHWdvjw4WSpPT32y/7TYN3OnTuTpba2gjDuyGNB3Pllg3jdeW2RXnjc5G/48OF+Il8FAer/F4RlEqNySCfMa0ypcq1luXE8lJNty5xl0oS4PEKIE8YVohmR5VUIIXoB27Ztc8eOHXPTpk1LQtLB0mfWwRiqk5988skOq2sMVtoLL7ywk4WQqmiseVhMqcZmCi2E5OmMM85Ilpx3aTBOnTrVaTmMVw3vvvuue/311/3/vXv3upUrV7rNmze7yy67zId1h02bNnnLaRbFyrXW5fbZZ5/5+dlnn91pXg74v2IhJr9CNCsSr0II0Qu47777vHgqJmSopo5FVMgDDzxQVKDNmDGji0A7fvy4ny9YsMBvS/pTp071YdViPp1pE+uyQHxTDlSnL1y40C1btsznyxqwpfmyhlMM7g0I4CxRX6pce7rcSkHjrQ0bNpT0kxWiUUi8CiFEi4MIwf+ylNUVIYfVLQ0E2tq1azOtkwi04cOHpwo0fC+x6JlVj7yEHDlyJPnX/v+ss85Kltr9Ro1PP/3U9e/fP1ly3g+0LfEZjSfWlWL37t3uvPPO6yLoEbFpadoUs2bNGrdo0aJkqSvFyrVe5QbWwMsaYPXt29fPS2Hn+Pnnn/dzIZoNiVchhGhxXnvtNT8fNmyYn6dhIgqhlAYCbfny5ZmWWwRamlUWiyGuBiagsOixHwOL46OPPurXI7J37NjhRo8e7dddddVVXrDR4wCQzty5c/3/7kJaHCsNq8gv+0Pk0ZCtO5ioz/owKFWu9Sg39oXIf+aZZ/wyLiNsS5rlwDmmUR4NwYRoRiReu0GpKqVwEvmBF0DYcTfwQuupqjP83qgipNsbrh3mdIXDyzFswSzKA5FCOVrXRLzk6d+UboPMItVboFU8Yiar2hqyRBRUI9BoKX/llVe6c845x58P7if8Sw2q7IH1VItv3bq1I5+ILZbpccCep6RXDfi7zpw5011++eU+v1T3Dxo0yJ155plJjMrorqiHepUbvPHGG773A7b94Q9/2GnbcmDfCGITz0I0FW2iW9B6c/r06V1abBJGsYatQEXzw/ksvGCSpXY4t7Ta7QnYN9cN+wxbHHMd0YpYt2rlUJaUGxPnkXKlhTbLBcGSxOodcMw8m3orXAvxs7o3U0552P2jXgdEMyLLazfhKxt/pCzGjBmT/BN54MMPP3QXXHBBstQOFplyq9mqAcsgLXuxnOBrF1pPuI6ee+45X4XX26yF1WJ+i+ZrSLkePXrU96fZmzDLWU9cy6J1uPTSS/28p2qehKgEidcqKeZDZpTbcpV4NpJMOMVV2bXCRmdJm6iyNnh4Watewq0Km5ci1V6sI4/8t/yTtr00wxbBxImhqpx1VNHbNlT5UsVr2xGn3tVXtDxmX+Zfh9BhuVir5WrBVQDhijjNaqnMh9JDDz3kWx9zLih/zgPlYWVHuVu+jazzZtg6zhXnL7xO7ZzaMlMchyksG/Zv5595fK7Jb3jN9cQ5Jf1+/fp1Em50Dj9x4sRkqb5YmcVwbjj+noAPM4g/znoTfMhYTwKisvKgu7K8Y8+ctMnEeannoVHqOSd6iHYDrOgOVKvEVSrmNhBDZ9thNQ3xhicdZAOdfrMd1ceEWUfRbFcvqDq1/cf5tnXWebcdJ/khHsdCNazlm+2tPObPn99xLIaFES8krMo1CLN9gJVFvat6yRt5sWO1Y6vnfkN3gXIgb3auyBduBeTTytBcDoqdtxDOi8UB4oTnzbYLr0PrAD2MRx5wb2D/5oJBHEubMNZbOoST5/h6qCXkJbzGgXwy9QSUAccc7j+E8xOWa72grNPOvRDFsOsmvM/zjL2DQngWhC5+pZ6HpZ5zoueQeK0CXrwmFgwTFjFc3OHLg3jhi5t14U1gD46euimy8s3NHL/suXkRHgbbxQLP0rPy4fjs4RH6kRJuDwDDxFEYj32G5dUqWDlVcp7tWglFkV0v9qAt57wB24X7Jo3wOrV04/zF8Ug3vBfIG3HIByDS4pcg1wxxwvPcKnBslEmWcAXKAwFbb+wchudLiHLgummV5649N4tR6nlY6jlXT3hOpp0LniPVtLEh/6WmZnx2yG2gCujCpVjr3Uow/6I77rijqXwbaUnLmNlWfcJEC1RGdwnzGfcvWLjJ/Nw62oZbbrnFz5944gk/B6qk4upMqngL16afm1sC+xSdCVs3W9c4VgVW7nmjb8hy+37MAtcH0qXFtu2LFtBgXTTRzQ/uEWF+rF/MDz74wM9bBcqDY3vqqac6zhHnhWMOqxi57uN+OyuFKk5cQqp5ZoTnRFPvnEQ7xZ6H5Tzn6gXPD3qUWLp0aRJymltvvdX3xtFdeNeWmprR5UbitZvwshge9LlXLYiPwhef/8/NcfHFF/v/zQD5Srugiwn3tMYhDGVY+Er0Xe7gi4jvEN3VpMGDAn8iG3LRxHCrgT8mmOisBoaSDCnnvB0+fLishjxcj6Vedmn7OnjwYLLW+W570uJk+frmFYQ6HxLhcXE9Qykfee4L4vbkB2zaOdHUuybRTjnPw7TyC59ztYZnwdixY93TTz/dkTeewdbGgTBEtT1jegsSr91k69atfgi9WoKQeeedd7xQMyHbDNDBdUzcOCiGkXDS4CuRG43xxBndJq1XBm5CxBINjBjfO60PxFbB+s1E8FRLONoOlHPe3n///eRfcWIhnEbaNRGG0eF6jIm1VoIPkfhD4pVXXvEfu+GHg/W9CpQDVlT61sRCzQdsOX37YomhYWGtaoCEMOyDupyP21ahnOdhqedcrWGgiYsuuqjjPRh/CPPsCEHs8iyxRrelCI0SWVM56fQ0Eq/dgItj5cqVmcMkZlHM6sIFePPNN/v/K1as8PNmYP78+b4z7Ngy+MILLyT/0mE9L+tYePIgHDdunO+4O3Y1MGgNDq1mkUuDY6Q8EK/FWq2yrpjI45rELcA+qMo5b6R3ySWXJEvdx1wW7rnnnk4PUvJEh/DABxn5i4/x8ccfd4MHD06WWhd60ghraigbzrmNFsUHHWDBYVhTrNTFhhsVot589tlnft5beqko9Tws5zlXDzDymMsdYJTgnWEuSbZvq8UbNWqU+9rXvubfBfSgU6pWLzRKZE1N2VNHIWOiAg4cOOAbWWQ5SNMohmK1xjLMiUsDDmuYgpM3aTBZgw4cvsPt0lp51wvyYPm2/BjWeIoJx3Act8k35WCwrnBTd4QxJyxuxWnLHCPrzfHdjt22t2MPy5B9kkfWhQ7zrUBY/pRx2ICJ/4RZWQDnwOKyLRNlSBpGqfNGGeL8H55vwohPWkZ8LsDOL+kaFo/rgGudKby+mbNMHPZLfmzealAuHKeVNcuUqZUH5cy5oqzC8g+hvCmfWmDnlXMiRLnYfV7ve5TrnHuhmkZH5WDvmfD5alT6PMx6ztUDnh+2D/IeP0v4Hz6Lw+PjOUOcVkTitQJMNJQ7cTMw8d9eHPZAiOMxt5sk3k+9Hx7hvtL2R55NXHGjxA8ZwjkG1qXFseOztLnp7GYL1zGxL9ZbOHNuPsqPB0YooloJjpkHo5UzE8fLNWEiyLDrw0SS/SeNkKzzlnYNxhPlnnYdxmHEM8i/XQOExy8JzqO9QDg20mpFOA/hcdq9z9zC0s6XQTjnLe0l213icyVEKUyoxc+fWsO1znOjntcnxxFO4TGV+zw0Sj3nag3PTfYT7o/3IMvh8yWG42rVZyxIvFaAvbiLXbBcaGG83gDH2so3SbNh11d34aGWJY5MRPeWa7fZoPyLPV+6C2nyohOiXOxjK+sjq9aY8aanacXnIceSJWpbhT78FC5QUQY4LdPoZPv27UlINsSlQQb+a60ODt0FQaURbHoIri18mbp76+LbRXcwxRpi4KN5/fXXJ0uiJ8CPbt68eb4RFucGX7paNcSya6bwcZ3bxl1ct+YPH2LPHfypOb4QGr6Z73xaoxO6KIz98vERpOsjGlOG3dFxPrZu3ep99RmhLVwHlr9wn3mGEQ4//vjjurakN3jecM3H56InaLXnIdfv888/79uVmL9rsWPLK2qwVSEM01kOPFDNgbqV4caHcluti+rhowh4mXYHXhClHmYSrj3Pdddd5xu20VCG+8oacNaCq666ys/r2bCk3tDAjV5KDP6Hzx1e1uFQpmHvFtwrixcvTpbaYTl8RvPxQAtthKv1u21wPmgIQ/rkg3MVNtpBGM+YMcP/Jx+09s4zHBsNLPngqTeNFK7QSs9DzhvdatHIi2uZvmGt4V3LgeVVlEel/pat6p9pWPV1OIn6Epe33DVaA6ouqZqMp1qCn17YsCNvxM9Tygc3LSNcb37DBvEoY4P/YVlY/KxGQ6yj+hiIiwuG7Y9l7kWrdiZtlsO85Q2OLTwmkQ+4Frn+womwVkRuA0II0QvAOoi1sSBIulR55w0soVhA00YcAo61WPU9Vim6JDQXCuJTo0F6ZqkKLYG4RhWEQEcY20+ePNnXsJEX+qUOX6Vx/LyxYMECb6Uvx0VOiEYgtwEhhOgF2IAYjFqXdxhGe/78+clSZ3ARwGUgS7jSoTzVxPGAEa+++qqv7meQiEmTJpU1SEQrQvkxvPSSJUuSECGaD4lXIYToBWBtXb58ube+hv6aeYOGWQz4ktXwDOH17W9/O1nqypw5c/xIfzGUDQ1smbZs2dJrB4lAvE+fPr0lGp2J1kXiVQgheglUczPU5AMPPJCE5A8aRFGtnQZWw7Vr1/reANJA+A4fPjy1gU7Y2CuGbcLhlrHS2oiJ1ujLhgi1Ft55HDmOY6ABVTON8ihEGv/v/yuQ/BdCCNHi0FL+b//2b93vfve7mgwP3JMgPhGo3/rWt5KQznBcN954oxszZkwS0pkpU6a4H/zgB27gwIFJSDtYcbE20g0Wvp4MrYn/q6WD2EU0//7v/753ScCn9Xvf+55fd+aZZ7r/+7//c3/3d3/nvvCFL/jtvvOd77gJEyb49XkB0T1z5kzfHdgf//EfJ6FCNCdqsCWEEL0M3AboU9YaHeUFxOuQIUMyuzai4VXcP6uB6N2zZ09mt0esR7hBWv+vNMyyflwvu+yyLvuwfmaxyGaJ52YF4Uq3Sps3by7ZbZQQzYDEqxBC9FIQsXnveUBUj64DkTckXoUQQgghRG5Qgy0hhBBCCJEbJF6FEEIIIURukHgVQgghhBC5QeJVCCGEEELkBolXIYQQQgiRGyRehRBCCCFEbpB4FUIIIYQQuUHiVQghhBBC5AaJVyGEEEIIkRskXoUQQgghRG6QeO0l7Nq1y3300UfJkhBCCCFEPunTViD5LxrEW2+95fbt2+f/Dxs2zI0ZM8b/L8bLL7/s51dffbWfG2FaIYsXL3ZvvvmmO//88/0y2x8+fNj/T2PatGnu7LPPTpY6gwjes2ePu/DCC93IkSOT0NNYHs466yw3evTojn3GkM7WrVv9/6uuusqnJ4QQQghRjIZaXk+ePOnuvfded9NNNyUhvYtnn33WDRgwwM2YMcMvv//+++6KK65w48eP92WTBeLwmmuucY8++mgSchpE4+23354snWb58uWdRCTbPvnkk8nSaRC5hKcJV8Qm5+raa691+/fvd0eOHEnWnIbzOWnSJP9/w4YNbtCgQR1CO4Qw1p06dcof99ChQ/22QgghhBBFwfLaCE6cONE2bty4tiVLlvj/vZHp06f7MgihPDgtGzduTEI6Q1kNHz7cT2wfs27dOr99Kdj28OHDyVI7Bw4c8Ntu3bo1CTnNoUOH2vr37+/Tz4Lt2J64Bvthu/Acs9/4GC3f5EEIIYQQIouGWV4feOABN3DgQLd06dIuVj4si4899pi3TNbCT5M0apFOpXAcxZg9e7Z76KGHkqV2CmLPz7FIpvH44497y2pBvCYh3YN9x9X5WEoLQtNddtllSUg7lN3YsWPdPffc42bNmpWEduX+++93BTHeqfqf/Rw7dsxt27YtCXHumWee8fOJEyf6OWBJhtWrV/u5EEIIIUQaDRGvVIkjdBA2MXG186hRo9x7773nlyuFqmmr5u4pODZE94gRI/wxFgN/1TSf0SwQw+vWrXO33XZbEtJ9Yl9ZOycI1PhjYs2aNX5ebL9sv2PHDjdlypQkpJ0hQ4b4+SuvvOLnsGXLFi9yw/0gpBHOlJ0QQgghRBYNEa8ffvihn9M4KQSRioBC6GDhW79+vfcJXblyZRKjNFgJsdqy3aZNm9ySJUvcwYMHMxsN1QryjvDGdxN/0BdffNHnv1LMQmmWSANxiG/sI488ktmQKsTKgakc8U9ZwY033ujnRihqgQ8C0mTOOsPOKY20QswKe/z4cT8HRC5W95gJEyZ4K60QQgghRBYNEa/WGj4WlK+99pq3voXWSKrIzfJXDLqCWrBggbfUAi3rqYIu17KJGAutfib+irkbIN7YjgZWU6dO9dbEQ4cOeVeI7ohl9rVs2TIv1uPtEZe0yLeeCF599VU/z8LK7KWXXiqrMRT7xGUh3u/evXv9fPfu3W7evHm+hwJcGmbOnOmuu+66TgJWCCGEEKLeNLS3gRiEFta3ELPkZYlIrIpU0T/44IO+e6ejR496q20l4hGRinX2hhtu8GKUNO+66y6/Lisd4iEKsSLit8r2VMWXYxVNAxF48803++NfuHBhEtoO+aEXAKzIRmihJC8GZXDgwAEvoM16PX/+fG89zfLBRfi//fbbqW4c1p3W5MmTfVqkSf6eeuopf+xmsRVCCCGE6AkaKl4rsdqF1c615tJLL/WCDJGHIMNK+fDDDxdtnFRraMAG7Ddmzpw57qKLLvJ9oporACA4V61a5a2gBuI5tjZjkYa0/l8B4U8DsNgPNoQyCrG4fHAIIYQQQvQUDRGvJoTMT7IcBg8enPzrDD6VWD3vvPNObwXE17VUdX+MiT0aimGhRECWsqAi3nARwFXgjjvu8NZfLKDdqUYnv2vXrnXPPfdc6n5vueUWP6WBZZo+XLsL5UTDuEWLFiUh3aNv375+Tp+tIXYeLr/8cj8HXEMQ3jGEUZ5CCCGEEFk0RLya0IkbEiFw0nw5ETulxCS+oPi44usK+L5icSzVXVU1kCdE7Pbt293mzZu91db8S8sVz1TZ49f7xhtvdDrG0BUAC3A8AdbScJl9mlW2XKzbqriBmMFAAhAPSGAivV+/fn7ORwTn6fXXX/fLhrkdIO6N66+/3gvVUOjzn7Arr7wyCRFCCCGE6EpDxKu1QI8tr4hXfDlDwcloT3Pnzk2WSoOPKmIO31f8P7GkIpxKiUnEIvlBgNFICTFVTit9g2PCzxRr7CWXXOK75yo1chj7oGupjRs3dpQJIGjTRs8qBa4VCOG4uynrOzWtBwMaiOEukeXbS5+vlEmcH+sVIbQIYwFGwMfnL3ZJMDeG0F/W0iMvQgghhBCZJIMV9DiMvMQUYyMyMeIS/xlJqtoRuBjRiSkNRnRauXKlH9kKCuKpY+SvcKSo7lBqtCgbVYp5OHHMaWVjMDIV21FOO3fuTEJPj4LFOvJPWlaeaaNm2YhYYRppsJ40SIs0SZvtKLcQGzWNuKyjLPmfVo6WBnPi8j8tj0IIIYQQIX34KQiHHoeqdSybaX2hYgWlupkqayx/xVwGsKjSkKkUWB3TrItWPW+WQUuPbqlCa2gM1sWsBlAhVqWfBhbSrJG06APXusWKCV0DKKPQqglh3oqVocUrlkeDctmzZ4/PL362o0ePLtoTA+ePeIyilXX+wnxmnR8hhBBCiJCGiVcEGC3Vu9ORf0i14rW71EK8CiGEEEKIymiYeMUf1PxEhRBCCCGEKIeGNNiiupxeBdQ4RwghhBBCVEKPi1fcBRjJ6pVXXpGPoxBCCCGEqIiGuA3QoIdRoejbtFijKCGEEEIIIUIa4jZA63g6qn/iiSeSECGEEEIIIUrTEPEKdN9UySAAQgghhBBCNEy8MoqVKM6qVat8rwyVDvkqhBBCCNGqNEy8vvvuu8m//IMPLyKTKR6atRq+/vWvuw0bNvjO/oUQQgghRAPFK2PgT548OVnKL1hHaXx25513utmzZ/tx+wmrBdaYTY3ahBBCCCHaaUhvA4xOdfHFF7udO3dmDoGaB06ePOnOOeccP8KXDdGKcF20aJE7ceJE0WFtywGf4KFDh7oGjSMhhBBCCNF0NMTyeuTIET8/77zz/DyvmOvDsGHD/BwYyx8+/PBDPy8FQv7ee+/1LgfMEcQG66ZPn54stYOgtfhMiOVwG4bLNV9ZrMBqFCeEEEKIVqIh4vXw4cN+nvfqcBOvaYMtlCMaaYg1adIkN27cOO92sHbtWrdt27ZkrfMDOcSuFWPHjnXnnnuuW7JkiRe2y5Yt67Dw7tq1y40aNcr7yLKe/K1cudKvE0IIIYRoBRrm89rqnDp1KvmXDlbVxYsXuzfffNO7HJgVOhT0NP4Krbpw7NgxN2LECDdy5EjfVy4DPQDW1ylTprgtW7a4WbNmucGDB/twuiQTQgghhGgVGiJeTZCF1d2txqWXXpr8S2f16tV+ftddd3kxOnXqVB+GKAUstwjVWLziX0sDMdwCcBEwsYvFlvgPPvigGz9+vPeVRcxOmzbNrxdCCCGEaAUaIl4HDRrk53nvLssEKlZU49NPP/Xzfv36+XkWWFXnzp3rq/dffPFFd/DgQW9JNUgTd4K40RdWWqy1iFZcBAxcDIhPeo888og7evSoW7hwYdWNxoQQQgghmomGiFd8RPHXxEqYZ7CS9u/fv8OKCk8++aQ/NvODpfFUWtdZAwYM8L6rpEFcxCr9xRr79+93AwcO9NZpwpnTUAus/LC0Yn0F0gLSQ9gSrsENhBBCCNFqNMzndcWKFe7VV1/t0sI+b+BjihWVqnqq/7Emc2zG7t27/RRjXWpR/c+2M2bM8GI1hPKZN2+eGzJkiO+94P777/dx2YaGXjTGMpF86623unfeeadjvTXcEkIIIYRoJRrSz6uBdXDNmjXev3P9+vVJaP5AfCMu+/bt26UHBYQkVtLQJcDg+I8fP566HWCNpeGVVf3bfgC3BBOuRrjefGeFEEIIIVqJhorXVoeuq1544QW3dOnSJEQIIYQQQlSDxGsdwRKqBlNCCCGEELVD4lUIIYQQQuQGDVIghBBCCCFyg8SrEEIIIYTIDRKvQgghhBAiN0i8CiGEEEKI3CDxKoQQQgghcoPEqxBCCCGEyA0Sr0IIIYQQIjdIvAohhBBCiNwg8SqEEEIIIXKDxKsQQgghhMgNEq9CCNELWLVqlXvssceSpdaG4+wtx1orwjJ766233E033eQ++ugjvyxEsyHxKoQQLczJkyfd+PHj3SeffOJmzZqVhAqRzciRI93s2bPdqFGj3HvvvZeECtE8SLwKIUQLc88997iBAwe6pUuXJiHtlrU+ffp0mczShtUtXnfvvff6dRCvY3r55ZeTte2QFtssWLDA7dq1KwltBwvfgAED/HZYhEMQ22zHOuLE6TYS8kbeR4wY4fPHR0GWuGNdbP1l2crLptC6Ga9jKrdcS5Ub+bTzSv5LidKrr77arV692o0dO9anLUQzIfEqhBAtCgLm2WefdStWrEhC2tm3b5/buHGja2tr89OBAwfckiVL3Pnnn+/Xv/322+7EiRMd66dPn+7mz5/v1yF8+W/riDdu3DgvdgyE0c033+xuvfVWL4DGjBmTrHFecK1cudK9+eab7vDhw27ZsmU+j8bjjz/urcSku2XLFnfNNdc0jfVv06ZNbu/eve7111/3+fv444/9scTEgjxk3bp1HWXHZGVebbmWKrc5c+a4yZMn+7Rvv/12L0pLcf3117sJEya4efPmJSFCNAmFC1kIIUSLURAxbf37928riKUkJJuCOG0rCMlkqTMFYdtWELbJUldIf+vWrcnS6f2yXRoFgdZWEHzJUpv/z/4Ntt25c2ey1NZWEHBlHUMI8eNt2IflizzacjWQ97hsyDthHGech7R8ZUG8Ssq1WLkdOnSojdc9aQBzlsO0svJGnDiuEI1GllchhGhBtm3b5o4dO+amTZuWhKSDxe/CCy/ssADG3H///R1W1xiqk5988slO1kH2S7X1hg0bfDU1U1iFffz4cXfWWWclS67TfyDPZ5xxRrLkvMtDtXCMuE3MnTvX5++BBx7oWO4uHHtB7HUqG8Jw07j77rv9caaxePHijqr9LAttd8q1WLl99tlnfn722Wd3mpcD/q9Y3rkOhGgWJF6FEKIFue+++7ywKiVUZsyYkSlOEUfFhC0iEHeDkFOnTvn51772Nb8O4UMVdi1armf56trE+jQQYBwHeVq0aJGvdmfZ/IArTRdxSVX65s2bO5UNYY888kinMkeg2vZ8SBw6dMhX3b/yyis+L7FvKvR0uZaCxluI5mZx3xBC4lUIIVoMRAZ+q6Wsrgin4cOHZ4rThQsXepGUBqJp7dq17rLLLktCTkOa+GMiGvGbhNAS+f777yf/2kVZv379kqV2jhw5kvxr/2/WWdJD+GVNrC/Gu+++6+f9+/f3c6OSdE24InwRwAYCFYE3dOhQL3j5j28pAnXw4ME+DqLWhC1pUrb4/YZUU65Z5WaY0OUYoG/fvn5eCsvL888/7+dCNBqJVyGEaDFee+01Px82bJifZ4E4jS18hgnbLEG4Zs0at3z58i6W3UGDBrlXX321w0pnlkUTqAg2xBlCChFF1XsosrECP/roo34daezYscONHj06WVs5pIP1k0Zh5I1GUDS6Il8m4sqF+KFwZdl6YYgFMMdJYy7+WxmFVlwTu5deeqlfNrpbrsXKjbwh2J955hm/jAsC5zYU38UgL5QbDcGEaAoKN5aoEJzaKbpyJtH8bNy4sVNjBBo3EFZrrOFD1mQNLKxRhegeNKKhPK2xC+eTxiwFMeGXewMcK8dcDMqnWJkUxE1mIx0ad5F+1rXKdcx6zgPphA2JwM4RcfgfQprky7YNGy2VC/tnArvvbJm8sFwQ7X65EkiDbcMprQy55sg768MyLAjMTuUSH1s15Vqq3MI88axhOSQsszQoL7bV80k0A1JX3cQeFPHNbg+P+GEtmpNYuHJeu/NSqwR7CYTXDi8SXmz2YhHdx+5BXvJgYqU33Zcca5qo6i2UEmKiK6XKjHVcV1kfNEL0JHIb6CZUo9BnXhZh/3uieaHaLqwWpTrxggsuSJbqAw0uYqi+o99Gqv6o7rMqQVE569ev91W1Bvciy4WXbxLS2lhVeLlVwkKUg7k3mNuCEI1E4rVKSvmUQdqoKuFkhCO3hFM8SkstSNuPTYzcYrBvumchPBxNBn81fMhIB98tfMqIxxTmN0zXGguE2DY2Uoz5kNk+Sb/eQs6ODX75y1/6RhaEmW9arQm7s4mxhhHWiCO+dugeJyRcx2R5jsuR7eKXjp0/1jMPz1vWfjnPLIdd/HBeuWYsLv/jfVl+wjgmsuoB+6fLohA+TMq5X6uB/VJWaceWVi714MMPP/Tzen+ENTMMg6uhcCuj3DKzXg/yRvxMCyd751kc7mH+M4XvSsPuc8J4xobPQ9EzSLxWSTEhYvBAYDQbLD9YgJimT5/uHeZPnDjh4yDQEE3XXXedDztw4IAPZ7t6PITZj+UFyA//2TetZQGxQavgQ4cOdYgpGyqQfgN5SdKiGYshNzjO/BdddJE/DhOcpMdxwtatW/3csDiM4GKWarqIee655/zoO2x71VVX+e5g6iV07rzzTt+QwUTNxIkTfcMEwuIW0D2BtcK2VsJ27QDlh1UxhHOGtRY4T1iRKSvOr4Vx7mjoMXXqVB8GPGx/+MMfuhdffNGn8f3vf9+fN2t8Eu6XOftFGJMe+7PW0whXxj+fNGmST4d90aKb68SEmuXnkksu8XG4thHO9Rq1h3zSYInGSAbHS6vvuBFMLeF4OW66FUrbD42SOAf1upaF6AnCniLyBM80nl8Qvot5z5x77rk+3J571Kryn4n3F+8E4gH3OfcxDR3ZnvcfzxaEruhBCoUvugk+ZTjYh5i/XQx+QqE/EfGYjNifiHm4XE/YT5gXKNzk3rk/xHwHCze3X7Y8xo0G8DUMtyVta6gQgu9nXA7EYzJsnz1RDj2FlVt4PVBulCvh+LyybJS6FuzaMUgnPndh+XPNEj/2/yQO4Zx7iPfL+QrzBYTFPrpsz3Z2HskP8UKswY7tK+9QppRveE5jrNy70wCpEtKuLyFqAddV/K7IG+XcG+H6tHdUfA/zDIzfb7WGZ2Va2fNsrcaXn/IoNTXjs0SW1yrA6pjVP2KlmD/RHXfckVq93tNgueL4rLqE6YorrvDr9u/f7+dGaH3G4kT/g2wbcsstt/gRYMzayjFiiYvhK5aJ9VjLpkyZkqxpPcw9gemcc85xN9xwg//Cjzs5rxT8eM3abVCmR48e9f/NAk7XOyGcI7BulkKwZmKdiPPFqDtXXnllstQOvpYcB13+APkhXngtYamADz74wM/zzl133eWrD7HUGFRFUiNh2LMC63R34f6h/MzNpjuE50GTpnjq7fDuifvHDeG5Rm1gWGa0U+D9Vq93t1l7bVCNEAbcqOY9WdCBJafwudYsSLx2Ey7SWCBUA9W9BxJXAUTFxRdf7P83ksJXXuqFnHYDhaR1ro1bAOVFP4RAf4NU0cdQpYpopSqaqulW7lew8DXbUaZUSSEqP/74Y++2YSI/hGvCHpa18J+0ISONLBcY9lvsevzkk0+Sf6eJh/QMjzWcwuEv8wrPAgQ6rhchuEaY+0Yx+DAwX+WeIO08aNJkU2+HQR9KNXbkXZ1WdrUyZoXwfMEd6emnn+7IF+8A+4AlDOHck8+QZkDitZsgNPBtqyX4WL7zzjteNJqQbSS8kNP880pZfbIc+nm5k6Z9naZZF/GDRLAeOnTIW3DL8SluBSgLhBw+qJDm52sPzJ07d3phFPqwxuDjGkO5hw84hHIasdWB/c6fP99bS9lvjI1aFNM/GMWIcdpjOL5WeODaCEfhC48PC14oWKANO1YrX2scglWaIVqx0tq9kQXXCNeAejMRPY19LJcSdnmHARzMpz8L4sRUUxtSDAw9tCWxXnHsOWLtNOL3BM9ojBvW6KwUZhApNjWjP6/EazfgBcPIKWkWxmIUa+nMBXjzzTf7/ytWrPDzRkJDKaABVUg5NyhWtiUpo/aYpfXaa69NtboC4pbq62qqzZudTz/9NPnXlS9+8YvJv2wQLjRyi10zDBobIJziBw7VXTwA7dw++OCDfm5YvtJGM+J8IkZ5KIYCC1FLlVksQhmacu7cuf4/H2Np3X89/vjjJV8SecXKI7RAc22DlS8feXwY0Bju9ddf9+dzz549fp0QzYbV1LRyLxa8h6lJKvb+4Zm3bNmyLjVfL7zwQvKvtuzevbvDpQsQznwUWx7NeGANjHlGE5/GyLimlaqhCy3HWVMzug2QMVEBhZeNbwyT5SCN4zbFag7dzIlLAxVrnEKjF9JgsgYwOIGH21njHWscVS+sEQn5jrE8kU8ctnEMDx3GKQvblnSAeDiu27Idqx0nabAMto74tp7/pMcyaRDfyqHeZdFT2DFRViFcJ3b9hKMO2bVAeQNzKycgHdYblB3rCWNfrOe82bUFYbkCZU16afuNr8nwfHNNW14sjHiExdcA25IPy098/HmF4+TYuF84VsqE4+UYrXyt7LKOme1Yb8+IarD8hOdSiGqx53297luuW+4bJnt21BruL7tXY7gHeS7ac9awPLEeLA0me76yPt6uVrAP2z/7Ju+2bGVGHMOeIazjuWz5bjUkXiuAi9Qu2nImXl5M/LcXiT0A4njM7YaK91Ovh0VaXsIbkIuefIdCKLwRbHvybXE4lvAFbOkyEZ/JXujhOiZAKJEWE/G4AflPunm/CdPKO544zlBkpl1zlIedC9LkAUU45WVlxDmw64qHW5imQdp23ohj5wXi/ZIWWJpM7BvCfTFxPcQvH5YJZz37rNc13SgoX8qQ4+N8UCZMYVjaBy/lwraUTdYHcXdgn3bOhKgF9gFm932tsWc990w9ng9ZzzQjXJc1GeFzl/zW8t6NoVzs+cqc5wrPDJYpr7SPVOKxrp75ajQSrxVgF79dQGlwoYXxWhkTY/V6mAnR6vASshcNc54ftcDSFKJWIJJ43tfbiMD7JPyQ7imKiT3C83Q/UYY8W8hzllbJO334KVyQogzwIaThyfbt25OQbIj70ksvdelUvpXAr49W6IUbpdMQq0KI0uADjN+8+a4xyhu+arXwL+P5g79bQQzXpQV0I8DXuvBCTpZOQ+NGjpHn0b59+5LQ01h5pjU6oYvC+NnFfvA9JjxsnIQ/JP6G+CrbPkMsfzTIw6e/1fz2uT5p5Hnw4MEkpD4wUMrdd9/d4+VHQycaCWdRan0zgH8rXR3aNc85e+ihh1ry/awGWxXChVAOXDyNGKGpJ7EXBY1zhBCVQbdxDGGL6ELI0tNI3Pdud7FGeVk9QeQRjiXstQIRuXLlyg4RSYM4hgA2+G+jQSEsFy9e7P8bLMfPaLrpo/cHRGvfvn2T0HbhShd29HFNmnTlFzaE4RwSRp7IB12kxa3A8wzHQqNLPojqBecIgTh//vyGCP9SwrTZhStwzXJPIFptyPNWbRQrt4EKwAxfCZXGzxNUS3L52NTqLhJC1BpcBKiK5d7B57XWzwt88cKGHHmHqtDQrQL3rLDM4vIL3TCYh+5N/I/LhuU0/0EgnHNkkHa4Pf6PVtVNtTrVta30/OdYeM63ahV0q8H13ernSm4DQgjRglBNjnWx8BJruSpsLIFYN7NcuLCEYgHNGlCFPjDpktCstsSfNGmSe+ONNzq6hMJiZeVGfBvvHmK3MPrCDN2n4vh5h+6XsHyX4zInRE8gtwEhhGhBpk2b5uebNm3y81aCPoKXpPQlbTDMNtXPadBXNW4Boc+quUDNmTOnY9CIckZH6w1QnU8f0cXKW4ieRuJVCCFaEKyGy5cv99bXVvK/REzRSXzW0ML4DzMgTNygykCgMh58DAN/YFm0QSPSBt/ojSDmp0+f3hJDOYvWQeJVCCFaFKqtGVoyHikvz2AFRJRnsXDhQl/NnQbCdvjw4alDnBZreEr8sLEYjcEuv/zyZMn5NMMhQxmeudiIinkBKzWNqJph1EchQuTzKoQQLYz5h9aqG65GgtWVVv1ZfryIU3pxyOqicMSIEe7pp59O7R6LdGlRTvdlJlTNx5OeBcaOHeuHPD733HO95ffNN9/ssO6y35kzZ/reI8hbK/iHcsxTp051mzdvThX7QjQSiVchhGhxELDz5s3LfSMiqvE//fRTN2bMmCSkM4jIIUOGpIotBCr9t2Z1eUQZWT+udFkWV5Oz/dakH9fRo0d3cUsgb/jOsm3Yf28ekXAVzY7EqxBC9BIQaK3W84CoPbpORLMj8SqEEEIIIXKDGmwJIYQQQojcIPEqhBBCCCFyg8SrEEIIIYTIDRKvQgghhBAiN0i8CiGEEEKI3CDxKoQQQgghcoPEqxBCCCGEyA0Sr0IIIYQQIjdIvAohhBBCiNwg8SqEEEIIIXKDxKvILe+995576623kiUhhBBC9Ab6tBVI/jecjz76yG3dujVZ6sqwYcPcmDFj/P/HHnvMz9M466yz3PXXX+//v/zyy+7w4cP+fxrTpk1zZ599drLUGfKzZ88ed+GFF7qRI0cmoadBOO3bt8/vb/To0e78889P1nTm5MmTbtu2be7UqVOdjqGVMWHJMQ8aNMhddtllmeVscK7g6quv9nMj67p48skn3ZIlSzri2/nI4qqrrvLnMo1S5zrMQ7F0euO5FkIIIXqShlpeedHfe++97qabbvLLx48fd7fffrt/8Yfs3bvXh4ewTHgI2xH+4YcfJiHOPfroo17kxCxevNiHpwkqhAp5uvbaa93+/fvdkSNHkjWnId+TJk3y/zds2OAFmomvEETc0KFD3SuvvOLzN2XKFDd+/Hh/7K0IAnLEiBFu7Nix/jxwzDNnzvRlQFlkwXbXXHONP18xdl28//77SUg7t9xyixeIBsKV8xrDeWb7/v37JyGnKedcc145vxwLeeBYOP8xve1cCyGEEA0By2sjOHHiRNu4cePalixZ4v/DgQMH/HLM9OnT24YPH54stRMvw7p167Aitx0+fDgJad82XAb2Q7ytW7cmIac5dOhQW0Hk+LSyYDu2J67BftjOjsUgn/Pnz0+WTu+7WPp5huOiHMIyt/IKyyGEMqOcmCjHGCsz5sVg3/E5JW3yk3ZdlXOuOQ72vXHjxiTk9HUW56e3nWshhBCiETRMvCImYqGCUIgFgYmHWACkCc808ZMWj32nCU32RfjKlSuTkHQQ3UwhJtBCkbNz504fxjyEfLKfaiDvoXjuKSgjpiw4f2llTjmkCVOgvJlYX414ZX2cNzsvaddVOeea9WwfXitsS1goVOt5roUQQghxmoa4DVCNev/997vZs2cnIe3gMxr7Gz7zzDN+jm9qSOwXuWvXLvf222+7O++8MwlpJ45n+77nnnu6uAysWbPGz2+77TY/T4Ptd+zY4auEQ4YMGeLnVBkbu3fv9vOwahvwmTx27FjRavQsqF6nyprq6Y8//jgJrT9UnVv1ejE4f3GZF4PjKXyYFC3zcmHfsd8x57rwodHluirnXMOWLVv89uG1wj4KgtQ9++yzSUh9zrUQQgghutIQ8Wo+qfGLPgahuGzZMt8op1RjnwcffNANHz68ZAOZTZs2+fmNN97o50YoagGxRqMw5qwzLO800gqxBjz4ZxomaOK803gJPvvsMz8vBfsnH/iS3nHHHV5MHT16tO6NgfAHpQwGDBjgy43zcPDgwcyGaVnwYQHxxwrHNWPGDPfII4+UPL/w6aefesFInizNYiCM+dAg3yHlnmtg+4EDByZLp5kwYYIXpUatzrUQQgghitMQ8WotwkuJIBpkIRCmT5+ehKSDyKLR1KJFi5KQbFauXOnTi/dtjb8QIfPmzfM9FFhjo+uuu66LqOkJsNaZlRURtXnzZrd9+/ayLZuIsdA6aGKUeTEQhgsWLHCjRo3yy2+++aZbvXp1aiv8ckAkIrjjfCOIsUyaCH/11Vf9PAs+UKzR1BVXXFGyMRTXBBZSE5BGM55rIYQQQpRHU/fzinUMa2op0WSuBbRWL4a5FsQWQEDAwOTJk9369evdrFmz3MKFC91TTz3lhaNZbHsKhNnUqVPdJZdc4g4dOuSWLl2a2T1TGohUrKQ33HCDF7EI4bvuusuvy/poIA7WXUQibhpYdymHSi2tIYjvd955xz333HNJSDvsi54BQqtoaMkkzwbnf+fOnR3nhbLYuHFj0fNi1tW5c+d2sYY227kWQgghRPk0vKusLKzKd9WqVUlIOqRhrgWlRJa5FhSzXF566aXJv3Ys7ksvveTneYHjQJDNnz/flyMi8uGHH/ZCradAgK5du9a98cYbXQTknDlz3EUXXeT7TkVoMwEfF5xzrKAhsYuE9eObdV5MgHL8WbTKuRZCCCF6Ew0RryYawv5YY7KqfGPq4VpQjL59+/p53OeoVcVffvnlfg79+vXz87ia3rYdPHiwn6eBewBuAvQ9av2KVtLox6zV9EWLBRLhWsqvFMsu1loavSH+8HUtx80gDeu3lQZsaRZj+mhlSgN/4uXLlydL3SPLPaRSuAYR1DGE4QphVHOuhRBCCFE+DRGvJgCzxFixKt+YWrkW0Ak9xJ3Um3XYxAlCDEHz+uuv+2XDqqKpdjdsEANbZ7AteS5HTFJFjtsAQgk3AtwJwir1eoCVEx9XfF0B31d8YBGk5YCA49ip2g/PS5hvLMDxBJRLuAyVCuhi7iFQ7rkGLLykFdYS8J+wK6+8Mgmp/lwLIYQQokySLrN6HHad1cemdQJfqh9T6/8z7Fs1DeuoPquTfLA4cT+jpM0+wv470zqpJ+2CSEmW2klLk2Ni27S+UMuBfS5J+qmN+xSNYR+UMXH5X03fsGzPcXCMBYGWhKZDvLis2TfHXQzWx+UPhMfp2XlJK0fS4JizqORc2zUW9jNs8cJyqMe5FkIIIURXGiZeecmnCRVAII2LBgFIAxGHOEA4FAPxEIuSNFhvAgSxYunHIpv9kT/isg5hxf80YWj7tjSJR7rVQh6yhCiCi3zZfsgf+WW5u+LVQLAVE68m9tgXx2sTx094FiYIKZ/4PHE9hGWYdV6AvGWtCyn3XIOtY856/qcJ0nqdayGEEEKcpg8/hRduj2M+nLT2jqGaGL/YUq4AVg1dqusoqrvpniusis6C6uk9e/b4rpPwvRw9enSm3yT7L4glH2/ixImZVcOkWRA2/n85xwXWgKkYWWnF5WL7p1uqYj0WhPksBq4XWWVClf27776bLHWGcrKGVjHh8VKtH59TrhXOY6nzYsdQLI9GJefariEolnZ3zrUQQgghyqdh4hWxQqvuNPEqqhOv3aUW4lUIIYQQop40TLwy1Kg1SBJCCCGEEKIcGtLbAKM+MZrS/CJ9cAohhBBCCBHT4+KV6nBGfaL/T1U9CyGEEEKISmiI2wANihhBiZGXijUgEkIIIYQQIqQhbgO0JKfV+RNPPJGECCGEEEIIUZqGiFdg2NdKhjsVQgghhBCiYeJ17969yT/RaPiIoPcHJrrLEkIIIYRoVhomXrM6shfZICwZ3AGRaYM81IL+/ft732N6gFAjOiGEEEI0Mw0Trzt27HCTJ09OlkQpEK6jRo3y/5csWeI++eQTN3bs2JpYShkZ7IILLnATJkxIQoQQQgghmpOGiFeG2oRhw4b5uSjNM8884wYMGOAHdWBUrWXLlrljx4758FqAG4c+JoQQQgjR7DREvB45csTPzzvvPD8XpdmyZYu77rrrkqV2a+n06dPd7t27k5DinDx50g8OYb6tu3btSta0wzqGmw0J4y9YsKDLNnyEhG4M7EMIIYQQop40RLwePnzYz9XHa/ngZkHVfgx+qqXAteDKK6/0A0PgckC5T5kyJVnb3mALKy4WXQPhet9997k777zTb4OP8s9//vNkbftgE5MmTXLjxo3zcdauXeu2bduWrBVCCCGEqA8N83kVtQHRWYq77rrL3X777W716tUdAjX0b8WCiggNOXXqlLeM49rBNv/wD//gJk6c6NcRf/Hixe7NN9/0ffaaBV0fI0IIIYSoNw0Rr+brqmrm6sF1oBhYVTds2ODdDqje79Onj2/stWLFiiSG8xbZ0BIL06ZNcwMHDnRDhw71Vlh6IcBVARDBgCgeMWKEmzp1aidhLIQQQghRLxoyPCzV2IMGDXI7d+50Y8aMSUJFMRCesH79ej+H8ePHe3cAGnFlgfC84YYb3IEDB/xymsCkIRjiNu1c4OeKsEWcMioaEH/u3LleOPfr10/dawkhhBCix2iI5RWxg/B58MEHkxBRCsoLC6r17cocP1izvLKMwLX1xplnnunngwcP9sIVazf+qmb15kMC14MzzjjDvfzyyx0Nu6xHCAQtLgb79+/3y4B4Pffcc316nEvisq0QQgghRL1pmM8r1dY0NlIr9fLA6olQpW9XRCrV+Rs3buywpH722Wde3DIPYRhe/Fmx0Np2+LPG3HHHHe7gwYPeNYB0aIxFfKy7b7/9trv11luTmM6tWrXKLVq0qGP9jBkzvIuBEEIIIUS9aYjbgIHVb82aNd5aGFaHi2woKwQqllTzQQWsnwjOo0ePJiGdMUtqvB1wHkgzbHBl+4E0VwO2OX78uOvbt68aagkhhBCix2ioeBW1Aysovq8SkkIIIYRoZSReWwRcL2KLqhBCCCFEqyHxKoQQQgghcoMGKRBCCCGEELlB4lUIIYQQQuQGiVchhBBCCJEbJF6FEEIIIURukHgVQgghhBC5QeJVCCGEEELkBolXIYQQQgiRGyRehRBCCCFEbpB4FUIIIYQQuUHiVQghhBBC5AaJVyGEEEIIkRskXoUQQgghRG6QeBVCCCGEELlB4lUIIYQQQuQGiVchhBBCCJEbJF6FEEIIIURukHgVQgghhBC5QeJVCCGEEELkBolXIYQQQgiRGyRehRBCCCFEbpB4FUIIIYQQuUHiVQghhBBC5AaJVyGEEEIIkRskXoUQQgghRG6QeBVCCCGEEDnBuf8fBzkMAuxBaqMAAAAASUVORK5CYII=;" vertex="1" parent="1">
          <mxGeometry x="517.5" y="520" width="437" height="185.74" as="geometry" />
        </mxCell>
      </root>
    </mxGraphModel>
  </diagram>
</mxfile>
